<?xml version="1.0" encoding="UTF-8" standalone="no"?><svg xmlns="http://www.w3.org/2000/svg" xmlns:xlink="http://www.w3.org/1999/xlink" contentScriptType="text/ecmascript" fill="#000000" width="440" zoomAndPan="magnify" contentStyleType="text/css" viewBox="32.4 65.3 440.0 369.7" height="370" preserveAspectRatio="xMidYMid meet" version="1"><g id="change1_1"><path fill="#003b6e" d="M352.66,339.59l43.91-30.84c4.88-3.43,10.09-5.07,16.04-5.07h59.78V179.74l-119.28,36.65 c-4.22,1.42-24.32,4.54-41.1,7.14c-29.17,4.51-63.86,9.89-69.28,13.32l0,0c-15.31,10.01-34.61,20.92-50.57,30.44 c-6.12,3.63-3.97,10.2-0.09,14.88c2.07,2.49,4.88,4.82,8.25,6.66c11.2,6.07,28.63,7.11,48.08-6.07c20.38-13.8,38.52-8.53,57.03,9.86 L352.66,339.59z M181.47,366.04l15.62,6.09c2.55,1.02,3.83,3.91,2.81,6.46c-0.99,2.58-3.88,3.83-6.46,2.83l-15.59-6.09 c-0.62,1.08-1.3,2.13-2.04,3.15c11.65,15.45,22.88,30.5,42.43,50.06c16.19,16.19,36.43-2.01,30.25-10.66l-31.1-29.74 c-1.98-1.9-2.04-5.07-0.11-7.06c1.9-1.98,5.05-2.04,7.03-0.14l35.32,33.82l7.54,6.8c10.86,9.58,32.8-9.72,23.07-19.36l-35.32-33.79 c-1.98-1.9-2.04-5.05-0.14-7.03c1.93-1.98,5.07-2.04,7.06-0.14l35.32,33.79c10.8,10.37,30.9-10.97,21.49-20.69l-0.51-0.51 l-35.32-33.79c-1.98-1.93-2.04-5.07-0.11-7.06c1.9-1.98,5.05-2.04,7.03-0.14l35.32,33.82c0.11,0.08,0.23,0.2,0.34,0.31 c10.32,10.29,29.65-10.91,22.05-18.54l-49.04-48.7c-15.08-15-28.26-19.64-44.42-8.7c-23.16,15.68-44.48,14.12-58.42,6.55 c-8.14-4.42-15.19-11.82-16.89-20.49c-1.39-7.2,1.08-14.03,8.39-18.37l40-23.84L155.34,219l-0.09,0.17l15.11,10.74 c2.27,1.59,2.78,4.71,1.19,6.94c-1.62,2.24-4.71,2.78-6.97,1.16l-15.11-10.74c-4.31,4.65-9.84,8.19-16.19,10.18l4.28,25.31 c0.45,2.72-1.36,5.27-4.08,5.73c-2.72,0.45-5.3-1.39-5.75-4.08l-4.28-25.31c-6.63,0.26-13.01-1.3-18.62-4.25l-10.74,15.11 c-1.59,2.24-4.71,2.75-6.94,1.16c-2.24-1.59-2.78-4.71-1.16-6.94l10.74-15.11c-4.65-4.34-8.19-9.84-10.15-16.19l-25.31,4.28 c-2.72,0.45-5.3-1.39-5.75-4.11s1.39-5.3,4.11-5.75l25.29-4.25c-0.03-0.91-0.03-1.79,0-2.66l-52.5-15.17v120.61h59.64v-0.03 c6.04,0,11.42,1.76,16.33,5.3l19.16,13.8l-7.77-17.72c-1.11-2.52,0.06-5.47,2.58-6.58c2.52-1.11,5.44,0.06,6.55,2.58l9.38,21.37 c5.73-1.59,11.62-1.64,17.15-0.37l6.09-15.59c1.02-2.58,3.91-3.86,6.46-2.83c2.58,0.99,3.86,3.88,2.83,6.46l-6.09,15.62 c4.96,2.78,9.24,6.83,12.39,11.88l21.37-9.35c2.52-1.11,5.47,0.03,6.58,2.55c1.11,2.55-0.06,5.47-2.58,6.58l-21.37,9.35 C182.69,354.61,182.75,360.51,181.47,366.04L181.47,366.04z M154.6,391.66c-1.11-2.52,0.06-5.47,2.58-6.55 c2.52-1.11,5.47,0.03,6.55,2.58l12.56,28.6c1.11,2.52-0.06,5.47-2.58,6.58s-5.47-0.06-6.58-2.58L154.6,391.66z M129.01,388.37 c0.99-2.58,3.88-3.83,6.46-2.83s3.83,3.91,2.83,6.46l-8.7,22.28c-0.99,2.55-3.88,3.83-6.46,2.83c-2.58-1.02-3.83-3.91-2.83-6.46 L129.01,388.37z M116.53,342.34c2.58,1.02,3.86,3.91,2.83,6.46c-0.99,2.58-3.88,3.86-6.46,2.83l-22.28-8.7 c-2.55-0.99-3.83-3.88-2.81-6.46c0.99-2.55,3.88-3.83,6.46-2.83L116.53,342.34z M113.24,367.94c2.52-1.11,5.47,0.06,6.58,2.58 c1.11,2.52-0.06,5.47-2.58,6.58l-28.63,12.53c-2.52,1.11-5.47-0.06-6.58-2.58c-1.08-2.52,0.06-5.44,2.58-6.55L113.24,367.94z M95.13,173.96c2.24,1.59,2.78,4.71,1.19,6.94c-1.62,2.24-4.73,2.78-6.97,1.16l-21.74-15.45c-2.24-1.62-2.78-4.73-1.19-6.97 c1.62-2.24,4.73-2.75,6.97-1.16L95.13,173.96z M148.22,172.12c-1.59,2.27-4.71,2.78-6.94,1.19c-2.24-1.62-2.75-4.71-1.16-6.94 l15.48-21.77c1.59-2.24,4.71-2.78,6.94-1.16c2.24,1.59,2.78,4.71,1.16,6.94L148.22,172.12z M121.32,162.05 c1.08,6.46-8.76,8.14-9.84,1.64l-5.84-34.41c-0.45-2.72,1.39-5.3,4.11-5.75s5.3,1.39,5.75,4.11L121.32,162.05z M160.13,198.31 c-6.46,1.08-8.11-8.76-1.64-9.84l34.41-5.81c2.72-0.45,5.3,1.36,5.75,4.08c0.45,2.72-1.39,5.3-4.11,5.75L160.13,198.31z"/></g><g id="change2_1"><path fill="#08a6d0" clip-rule="evenodd" d="M235.08,160.44c-4.34-4.22-7.6-9.41-9.52-15.17l-24.46,4.14c-3.26,0.54-6.35-1.67-6.89-4.93 c-0.54-3.26,1.67-6.35,4.93-6.89l24.43-4.14c-0.09-6.04,1.3-12.05,4-17.46l-14.4-10.23c-2.69-1.93-3.32-5.67-1.42-8.36 c1.93-2.69,5.67-3.32,8.36-1.42l14.4,10.26c4.25-4.34,9.44-7.6,15.19-9.52l-4.14-24.46c-0.57-3.26,1.64-6.35,4.9-6.89 c3.29-0.57,6.35,1.64,6.92,4.9l4.11,24.43c6.04-0.06,12.05,1.33,17.46,4.03l10.26-14.43c1.9-2.69,5.64-3.32,8.33-1.39 c2.69,1.9,3.32,5.64,1.42,8.33l-10.23,14.4c4.34,4.25,7.6,9.44,9.52,15.19l24.43-4.14c3.29-0.54,6.38,1.67,6.92,4.93 c0.54,3.26-1.67,6.35-4.93,6.89l-24.43,4.14c0.06,6.04-1.3,12.05-4,17.46l14.4,10.23c2.69,1.93,3.32,5.67,1.39,8.36 c-1.9,2.69-5.64,3.32-8.33,1.39l-14.4-10.23c-4.25,4.34-9.44,7.6-15.19,9.52l4.14,24.46c0.57,3.26-1.64,6.35-4.93,6.89 c-3.26,0.54-6.32-1.67-6.89-4.9l-4.11-24.46c-6.07,0.09-12.08-1.3-17.49-4l-10.23,14.4c-1.9,2.69-5.64,3.32-8.33,1.42 c-2.69-1.93-3.34-5.67-1.42-8.36L235.08,160.44z M156.93,334.06c13.29,5.19,19.87,20.18,14.68,33.48 c-5.16,13.27-20.21,19.87-33.48,14.68c-13.29-5.19-19.87-20.21-14.68-33.48C128.64,335.48,143.66,328.87,156.93,334.06 L156.93,334.06z M94.25,206.53c-1.25-7.46,0.48-15.02,4.85-21.17c4.31-6.07,10.77-10.18,18.09-11.48h0.03h0.06 c0.14-0.03,0.31-0.06,0.45-0.08h0.06l0.03-0.03c11.48-1.79,22.39,3.26,28.49,13.15c6.07,9.84,5.75,21.88-0.96,31.29 c-9.07,12.76-26.79,15.76-39.54,6.69C99.64,220.53,95.5,213.96,94.25,206.53L94.25,206.53z" fill-rule="evenodd"/></g></svg>