<?xml version="1.0" encoding="UTF-8" standalone="no"?><svg xmlns="http://www.w3.org/2000/svg" xmlns:xlink="http://www.w3.org/1999/xlink" contentScriptType="text/ecmascript" fill="#000000" width="1000" zoomAndPan="magnify" contentStyleType="text/css" viewBox="10.0 10.0 1000.0 1000.0" height="1000" data-name="Layer 1" preserveAspectRatio="xMidYMid meet" version="1"><g data-name="Artboard 22"><g id="change1_1"><path d="m509.9718019,10c276.1490586,0,500.0279539,223.8222551,500.0279539,499.9715578,0,276.1495469-223.8788953,500.0284422-500.0279539,500.0284422-276.1495469,0-499.9715578-223.8788953-499.9715578-500.0284422C10.0002441,233.8222551,233.8222551,10,509.9718019,10h0Z" fill-rule="evenodd"/></g><g id="change2_1"><path fill="#ffffff" d="m686.4591726,630.4149732c1.4057412,1.3738238,2.2362815,3.2905186,2.2362815,5.3989929s-.8305402,4.0254442-2.2362815,5.3989929c-1.3736863,1.3738238-3.2905186,2.236419-5.3989929,2.236419s-3.9933892-.8625952-5.3670755-2.236419c-1.4056037-1.3735487-2.2362815-3.2905186-2.2362815-5.3989929s.8306778-4.025169,2.2362815-5.3989929c1.3736863-1.3738238,3.2586012-2.2361439,5.3670755-2.2361439s4.0253066.86232,5.3989929,2.2361439Zm66.1300962-144.048443c-1.3738238,0-2.6197029.5750635-3.5142155,1.469576s-1.469576,2.1403917-1.469576,3.5142155c0,1.4057412.5750635,2.6516203,1.469576,3.5461329s2.1403917,1.469576,3.5142155,1.469576c1.4056037,0,2.6514828-.5750635,3.5459954-1.469576s1.469576-2.1403917,1.469576-3.5461329c0-1.3738238-.5750635-2.6197029-1.469576-3.5142155s-2.1403917-1.469576-3.5459954-1.469576Zm-54.9167716-90.058239c-.8945126.8945126-1.4375211,2.1406668-1.4375211,3.5461329,0,1.3738238.5430085,2.6197029,1.4375211,3.5142155.9265676.92643,2.1724467,1.469576,3.5461329,1.469576s2.6197029-.5431461,3.5461329-1.469576c.8945126-.8945126,1.4376586-2.1403917,1.4376586-3.5142155,0-1.4054661-.5431461-2.6516203-1.4376586-3.5461329-.92643-.8945126-2.1724467-1.4693009-3.5461329-1.4693009s-2.6195654.5747883-3.5461329,1.4693009Zm-78.5253276-55.3637527c0-3.8655821-1.5334108-7.3478802-4.057224-9.8715558-2.5238132-2.5239508-6.0380287-4.089279-9.8716934-4.089279-3.8654445,0-7.3477426,1.5653282-9.8715558,4.089279-2.5238132,2.5236756-4.0891414,6.0059737-4.0891414,9.8715558,0,3.8336647,1.5653282,7.3478802,4.0891414,9.8396384,2.5238132,2.5236756,6.0061113,4.089279,9.8715558,4.089279,3.8336647,0,7.3478802-1.5656034,9.8716934-4.089279,2.5238132-2.4917582,4.057224-6.0059737,4.057224-9.8396384Zm93.1569781-34.5346242c-6.1656983-2.1723091-13.1620744-2.0446395-19.5194147.8945126-.1917795.0638348-.3834215.1598621-.5431461.2556143-6.2935055,3.0987391-10.7979858,8.4658146-13.0023498,14.6316504-2.1724467,6.1658359-2.0446395,13.1620744.8945126,19.5516072.3194491.7665678.7986228,1.5014934,1.4375211,2.1403917,2.6516203,2.6197029,6.9325413,2.6197029,9.5841616,0,2.1084743-2.1403917,2.5238132-5.3351581,1.2139617-7.8910262-1.3736863-3.0349043-1.4376586-6.3573403-.3834215-9.2964923,1.0223197-2.9391521,3.1627114-5.4947451,6.1337809-6.9643211.1597246-.0638348.2875317-.1279447.3834215-.1917795,3.0349043-1.3735487,6.3893952-1.4376586,9.3284097-.3832839,2.9072347,1.0221822,5.4629653,3.1625739,6.9644587,6.1336433.0319174.1279447.0958898.2556143.1597246.3835591,1.4057412,3.0349043,1.4376586,6.3573403.4153389,9.3284097-1.0861545,2.9710695-3.2586012,5.558855-6.3574778,7.0284311l-75.9376797,36.227622c-3.3862708,1.5972456-4.792012,5.6226898-3.1946288,9.0089606,1.5973832,3.3543534,5.6226898,4.792012,9.0089606,3.1947664l75.9376797-36.2278971c6.4533676-3.0668217,11.0536001-8.497732,13.2579642-14.75932s2.0765569-13.3538539-.9902648-19.775029v-.0319174c-3.0988766-6.4214502-8.4978695-11.0216827-14.7915126-13.2581017Zm-9.3284097,192.4478746c-6.6129546-.5431461-13.4176887,1.469576-18.880654,6.1017259-2.8113449,2.4281986-3.1627114,6.6770645-.734788,9.5201893,2.428061,2.8433999,6.676927,3.162849,9.5201893.7349256,2.5877856-2.2045016,5.8462492-3.1309316,9.0410156-2.9072347,3.1946288.2556143,6.2615881,1.7251904,8.4659521,4.3129759,2.2042265,2.5875104,3.1627114,5.8461116,2.9070971,9.040878s-1.6931354,6.2615881-4.2809209,8.4658146c-2.587648,2.2045016-5.8462492,3.162849-9.040878,2.9072347-3.1947664-.2556143-6.2935055-1.693273-8.4978695-4.2807834l-54.6291023-63.9897046c-2.428061-2.8431247-6.676927-3.1625739-9.4882719-.7346504-2.8432623,2.396006-3.1627114,6.6767894-.7667054,9.4879967l54.6291023,63.9897046c4.6642049,5.4309103,11.0855175,8.4658146,17.6986097,9.0089606,6.6129546.5112287,13.4176887-1.5014934,18.848599-6.1336433,5.4309103-4.632425,8.4659521-11.0536001,9.0089606-17.6668298.5112287-6.6129546-1.4694385-13.4496061-6.1337809-18.8805164-4.6322875-5.4309103-11.0536001-8.4658146-17.6665547-8.9770432Zm-218.8999682,143.6651591c1.2460167,3.1944913,3.3864084,5.9099464,6.4533676,9.3922445,7.8269163,8.881291,13.3537164,13.1620744,17.4109404,13.6733031,2.7475101.3194491,5.4629653-2.1403917,8.4978695-6.7728167.2556143-.4152013.4791737-.8625952.7028706-1.2777965,4.8879018-9.967308,4.8879018-32.8413512,1.5334108-54.8847166-3.2905186-21.5321368-9.5521067-41.5308627-17.1554636-46.5146542-.2235594-.1276696-.4153389-.2556143-.5750635-.3194491-2.4917582-1.2139617-4.4725629-.92643-6.1337809.3832839-2.8751797,2.2683364-5.5587174,6.6129546-8.2741726,11.9481127-6.7728167,13.2581017-5.9740563,26.8353774-5.0795438,41.7226422.3194491,5.4950202.6708156,11.1815448.6708156,17.4750503,0,7.2518528.6069809,11.7563332,1.9487497,15.1747965Zm-90.7290547-74.372489c-2.7154551-5.3351581-5.3989929-9.6797763-8.2741726-11.9481127-1.6613556-1.3097139-3.6420227-1.5972456-6.1658359-.3832839-.1278072.0638348-.3194491.1917795-.5430085.3194491-7.6034945,4.9837916-13.8650826,24.9825175-17.1555324,46.5146542-3.3544222,22.0433654-3.3544222,44.9174086,1.5334796,54.8847166.191642.4152013.4472563.8625952.7028706,1.2777965,3.0349043,4.632425,5.7503594,7.0922659,8.497732,6.7728167,4.0573616-.5112287,9.5841616-4.792012,17.4110779-13.6733031,3.0350418-3.4822981,5.2073509-6.1977533,6.45323-9.3922445,1.3417689-3.4184633,1.9488873-7.9229436,1.9488873-15.1747965,0-6.2935055.3194491-11.9800301.6708156-17.4750503.6069809-10.2548397,1.1820443-19.9029737-.734788-29.2313835-.0958898-.3513665-.191642-.702733-.2235594-1.0540996-.8945126-3.8655821-2.2043641-7.6673293-4.1211964-11.4371592Zm209.8589526,14.4720634c-3.354491-25.6533331-14.9510996-44.8535738-34.7581835-57.6640065-20.4778996-13.1942669-49.7732554-19.8710563-87.8857924-19.9668085-.5112287,0-1.0223197-.0641099-1.5654658-.1917795-3.6099677-.8625952-5.8462492-4.5044803-4.983654-8.114448,1.1180719-4.632425,1.8209426-8.7536214,2.4279234-12.1079748,2.7794275-16.1969787,3.2266838-18.6568195,26.1964792-24.5351236l1.3098515-.3513665c21.2765224-5.3989929,24.3753991-6.1977533,24.8864901-19.0722959l.1917795-8.2102002c-6.3574778-1.8212177-12.9065976-2.7157303-19.4557174-2.6835377-7.37966,0-14.791375,1.2139617-21.9474756,3.6099677-14.3760361,4.792012-24.4712888,11.1812697-30.8287667,19.7431116-6.2935055,8.4658146-9.1686852,19.4555799-9.1686852,33.5440842v85.2981444h22.8739056c1.0223197-3.2586012,2.3321712-6.5491198,4.057224-9.9034732,3.5142155-6.9324037,7.2519904-12.7787905,11.9161953-16.4206756,5.8143318-4.5685903,12.395369-5.782552,20.4140648-1.8850525.7028706.3516417,1.3417689.7349256,1.9487497,1.1182095,11.1494899,7.2518528,19.3917451,31.0204086,23.1934923,55.8111466,3.7058575,24.3117018,3.322436,50.3483189-2.7794275,62.8076602-.4791737.9902648-.9904023,1.8847774-1.5334108,2.6835377-6.0059737,9.2326575-12.6190659,13.9289174-21.4044672,12.8745427-7.5074672-.92643-15.7497224-6.6129546-25.9088099-18.1777834-3.9933892-4.5044803-6.8685689-8.1782828-8.9132084-13.4176887-1.9487497-5.015709-2.8432623-11.0216827-2.8432623-20.0625607,0-5.5269376-.3194491-11.1815448-.6709532-16.6762899-.5110911-8.6895115-.9902648-16.9638217-.191642-25.2381318h-55.6833394c.7986228,8.2743102.3194491,16.5486203-.2236969,25.2381318-.3194491,5.4947451-.6388983,11.1493523-.6388983,16.6762899,0,9.040878-.8945126,15.0468517-2.8432623,20.0625607-2.0446395,5.2394059-4.9198192,8.9132084-8.9132084,13.4176887-10.1590875,11.5648288-18.4013427,17.2513534-25.9088099,18.1777834-8.8174562,1.0543747-15.3984934-3.6418851-21.4364533-12.8745427-.5110911-.7987604-1.022251-1.693273-1.5014934-2.6835377-6.1018635-12.4593413-6.4852162-38.4959584-2.7793587-62.8076602,3.8016785-24.790738,12.0439337-48.5592937,23.1614374-55.8111466.6069809-.3832839,1.2779341-.7665678,1.9808047-1.1182095,8.0185583-3.8974995,14.5995955-2.6835377,20.4139272,1.8850525,4.6322875,3.6418851,8.4021173,9.4882719,11.9161953,16.4206756,1.7251904,3.3543534,3.0350418,6.644872,4.0573616,9.9034732h24.6948482v-85.2981444c0-17.0276564,3.7377749-30.6368496,11.8842779-41.5946975,8.114448-10.8620957,20.318175-18.7847642,37.3777489-24.4712888,8.5299245-2.8433999,17.3791605-4.2810585,26.2283966-4.3129759,6.6450096-.0319174,13.2898816.766843,19.7432492,2.3002538l.191642-9.8396384c-.1597246-3.4503807,2.3320336-6.485285,5.7824144-6.9643211l15.5899978-2.236419-25.4616912-38.4959584c-.7346504-.9902648-1.2139617-2.2042265-1.3417689-3.5142155-.3194491-3.5780503-.5430085-7.4755498-.7986228-11.1493523-.9583474-15.3343835-1.5653282-25.1740219-12.7787905-39.6460853-21.468302-27.7618074-50.1884568-35.8124207-76.0015145-30.4772626-11.277297,2.3321712-22.011448,7.1880181-31.4038301,14.056587-9.3923821,6.8685689-17.4109404,15.7179425-23.2252721,26.0685345-13.9608348,24.8229305-15.0471269,58.3670147,8.2741726,93.4128676,5.4629653,8.2102002,10.8300407,16.3565656,14.4719259,29.9021991,3.4821606,13.130157,5.2073509,31.1480782,3.4183258,59.0056378-.2235594,3.5142155-3.130794,6.325698-6.7088444,6.325698-38.1445231.0957522-67.4398101,6.7725416-87.8857924,19.9668085-19.7751666,12.7785153-31.3718439,31.9468386-34.7581835,57.5360618-.0639036.5750635-.1917107,1.1501269-.4153389,1.693273-6.8366515,17.7944994-13.3857713,39.9655344-19.6153732,66.577215-5.8782354,25.174297-11.4369528,54.0221214-16.6443037,86.576216,8.8173187,1.4054661,17.7305271,2.3318961,26.6755841,2.7473725,9.4243683.4790361,18.9444888.3832839,28.5285816-.2556143,10.2868947-44.4700147,17.5708025-71.2734748,21.8835721-80.4742149.3195179-1.1182095.8945126-2.1403917,1.7251904-2.9710695.1277384-.0957522.2236281-.2236969.3194491-.2875317.734788-.6069809,1.565397-1.086017,2.5557306-1.3735487,3.5780503-1.0543747,7.3158252,1.0221822,8.338145,4.6002325,6.8366515,23.5448588,12.1078372,41.8503118,15.8136947,54.8527992,3.5461329,12.4274239,6.4532988,22.8099333,8.7534151,31.1480782h170.6921785c2.3001162-8.338145,5.2072134-18.7206543,8.7214289-31.1480782,3.6739401-12.9064601,8.9132084-31.0204086,15.6858876-54.3415705.2236969-1.1182095.734788-2.1725842,1.5334108-3.0990142,2.428061-2.8112073,6.7088444-3.0987391,9.5201893-.6388983,3.8017473,3.2905186,11.7883881,31.2121882,23.9282803,83.7328161,9.5521067.6388983,19.1042133.7346504,28.5285128.2556143,8.9132084-.4154765,17.8264168-1.3419064,26.6756529-2.7473725-10.7660684-67.3121406-22.8739056-118.3312751-36.2277596-153.0576788-.2236969-.5428709-.3513665-1.086017-.4472563-1.6610804Zm153.3768528-178.806489c-7.0921283-.7030082-13.83289,1.5972456-18.9444888,5.8141942-5.1114612,4.2169486-8.6575941,10.3827845-9.3284097,17.5069677-.3515041,3.7057199,2.3640886,6.9643211,6.0698085,7.3156876,3.7058575.3516417,6.9963761-2.3640886,7.3478802-6.0698085.3194491-3.3862708,2.0125845-6.3254229,4.4725629-8.3700624,2.4598408-2.0127221,5.6865246-3.0987391,9.1048504-2.7792899,3.3862708.3194491,6.3254229,2.0124469,8.3700624,4.4725629,2.0125845,2.4598408,3.130794,5.718442,2.7792899,9.1047128-.3194491,3.3865459-2.0125845,6.3573403-4.4725629,8.3700624-2.4598408,2.0446395-5.6865246,3.1309316-9.1048504,2.8114825l-19.040241-1.8531351-171.7464157-18.0179212c-3.7058575-.3832839-7.0282935,2.3321712-7.4115774,6.0378911-.3834215,3.7059951,2.3320336,6.9965137,6.0378911,7.3797976l171.7464157,18.0179212h.0638348l19.0722959,1.8531351c7.0921283.6708156,13.8330276-1.5975208,18.9444888-5.8144694,5.1114612-4.2169486,8.6575941-10.3827845,9.3284097-17.5069677.7028706-7.0919907-1.5653282-13.8009726-5.7822768-18.9443512-4.2170862-5.1114612-10.4147019-8.6256767-17.5069677-9.3284097Zm-102.5812776,139.575605c-8.146503,0-14.7915126,6.6451471-14.7915126,14.7915126s6.6450096,14.7915126,14.7915126,14.7915126c8.1463654,0,14.791375-6.6451471,14.791375-14.7915126s-6.6450096-14.7915126-14.791375-14.7915126Zm-55.7792292-54.1178736c0-8.1463654-6.6450096-14.7915126-14.7915126-14.7915126-8.1463654,0-14.791375,6.6451471-14.791375,14.7915126s6.6450096,14.7912374,14.791375,14.7912374c8.146503,0,14.7915126-6.644872,14.7915126-14.7912374Zm6.9324037-90.6013851c-.8945126.9267051-1.4376586,2.1725842-1.4376586,3.5461329,0,1.3738238.5431461,2.6197029,1.4376586,3.5461329.92643.8945126,2.1724467,1.4376586,3.5461329,1.4376586s2.6195654-.5431461,3.5461329-1.4376586c.8945126-.92643,1.4375211-2.1723091,1.4375211-3.5461329,0-1.3735487-.5430085-2.6194278-1.4375211-3.5461329-.9265676-.8945126-2.1724467-1.4373835-3.5461329-1.4373835s-2.6197029.5428709-3.5461329,1.4373835Z" data-name="Artboard 22"/></g></g></svg>