<?xml version="1.0" encoding="UTF-8" standalone="no"?><svg xmlns="http://www.w3.org/2000/svg" xmlns:xlink="http://www.w3.org/1999/xlink" contentScriptType="text/ecmascript" zoomAndPan="magnify" text-rendering="geometricPrecision" contentStyleType="text/css" version="1" width="406.1" clip-rule="evenodd" fill="#000000" preserveAspectRatio="xMidYMid meet" viewBox="0.0 0.0 406.1 406.1" height="406.1" fill-rule="evenodd" image-rendering="optimizeQuality"><g><g><g id="change1_1"><circle fill="#ffffff" r="182.01" cx="202.7" cy="202.11"/></g><g id="change2_1"><path d="M366.09 205.91c0,-88.14 -71.45,-159.6 -159.59,-159.6 -88.15,0 -159.6,71.46 -159.6,159.6 0,88.14 71.45,159.6 159.6,159.6 88.14,0 159.59,-71.46 159.59,-159.6z" fill-opacity="0.149"/></g><g id="change3_1"><circle fill="#f7f7f7" r="155.8" cx="202.7" cy="202.11"/></g><g id="change4_1"><path fill="#0476fc" d="M0 203.04c0,-112.13 90.89,-203.04 203.04,-203.04 112.15,0 203.04,90.89 203.04,203.04 0,112.15 -90.89,203.04 -203.04,203.04 -112.15,0 -203.04,-90.89 -203.04,-203.04zm24.85 0c0,98.41 79.78,178.19 178.19,178.19 98.41,0 178.19,-79.78 178.19,-178.19 0,-98.41 -79.78,-178.19 -178.19,-178.19 -98.41,0 -178.19,79.78 -178.19,178.19z"/></g><g id="change2_2"><path d="M203.04 24.85c-98.41,0 -178.19,79.78 -178.19,178.19 0,50.95 21.38,96.91 55.67,129.39 -30.25,-31.94 -48.8,-75.06 -48.8,-122.52 0,-98.41 79.78,-178.19 178.19,-178.19 47.46,0 90.58,18.55 122.52,48.8 -32.48,-34.29 -78.44,-55.67 -129.39,-55.67z" fill-opacity="0.149"/></g></g></g></svg>