<?xml version="1.0" encoding="UTF-8" standalone="no"?><svg xmlns="http://www.w3.org/2000/svg" xmlns:xlink="http://www.w3.org/1999/xlink" contentScriptType="text/ecmascript" fill="#ffffff" width="30" zoomAndPan="magnify" contentStyleType="text/css" viewBox="1.0 1.0 30.0 30.0" height="30" data-name="Layer 2" preserveAspectRatio="xMidYMid meet" version="1"><g id="change1_1"><path fill="inherit" d="M9.07,21.17a8.62333,8.62333,0,0,1-1.71-4.51h4.32C11.83,21.28,13.07,19.25,9.07,21.17Z"/></g><g id="change1_2"><path fill="inherit" d="M11.68,15.33H7.36a8.65613,8.65613,0,0,1,1.71-4.52C13.07,12.74,11.82,10.71,11.68,15.33Z"/></g><g id="change1_3"><path fill="inherit" d="M12.32,10.64a6.70946,6.70946,0,0,1-2.31-.9,8.60227,8.60227,0,0,1,3.5-2.04A10.31263,10.31263,0,0,0,12.32,10.64Z"/></g><g id="change1_4"><path fill="inherit" d="M12.32,21.35a10.12552,10.12552,0,0,0,1.19,2.93.83348.83348,0,0,1-.15-.04,8.78946,8.78946,0,0,1-3.35-1.99A6.261,6.261,0,0,1,12.32,21.35Z"/></g><g id="change1_5"><path fill="inherit" d="M18.37,21.11c-.59,2.18-1.51,3.55-2.37,3.55s-1.78-1.37-2.37-3.55A16.36778,16.36778,0,0,1,18.37,21.11Z"/></g><g id="change1_6"><path fill="inherit" d="M13.63,10.88c.59-2.19,1.51-3.56,2.37-3.56s1.78,1.37,2.37,3.56A16.36778,16.36778,0,0,1,13.63,10.88Z"/></g><g id="change1_7"><path fill="inherit" d="M13.02,16.66h5.96a19.70171,19.70171,0,0,1-.32,3.13,17.57055,17.57055,0,0,0-5.32,0A19.69472,19.69472,0,0,1,13.02,16.66Z"/></g><g id="change1_8"><path fill="inherit" d="M18.98,15.33H13.02A19.69393,19.69393,0,0,1,13.34,12.2a17.57444,17.57444,0,0,0,5.32,0A19.70092,19.70092,0,0,1,18.98,15.33Z"/></g><g id="change1_9"><path fill="inherit" d="M19.68,21.35a6.515,6.515,0,0,1,2.31.9,8.69527,8.69527,0,0,1-3.5,2.03A10.12552,10.12552,0,0,0,19.68,21.35Z"/></g><g id="change1_10"><path fill="inherit" d="M19.68,10.64A10.31263,10.31263,0,0,0,18.49,7.7a.83894.83894,0,0,0,.15.04,8.68623,8.68623,0,0,1,3.35,2A6.62874,6.62874,0,0,1,19.68,10.64Z"/></g><g id="change1_11"><path fill="inherit" d="M20.32,16.66h4.32a8.62283,8.62283,0,0,1-1.71,4.51C18.93,19.25,20.18,21.28,20.32,16.66Z"/></g><g id="change1_12"><path fill="inherit" d="M22.93,10.81a8.6237,8.6237,0,0,1,1.71,4.52H20.32C20.17,10.7,18.93,12.74,22.93,10.81Z"/></g><g id="change1_13"><path fill="inherit" d="M16,1A15,15,0,1,0,31,16,15.00547,15.00547,0,0,0,16,1Zm7.62,21.47a10.0472,10.0472,0,0,1-15.24-.01C2.86,16.07,7.57,5.94,16,5.99A10.029,10.029,0,0,1,23.62,22.47Z"/></g></svg>