<?xml version="1.0" encoding="UTF-8" standalone="no"?><svg xmlns="http://www.w3.org/2000/svg" xmlns:xlink="http://www.w3.org/1999/xlink" contentScriptType="text/ecmascript" fill="#000000" width="3299" zoomAndPan="magnify" contentStyleType="text/css" viewBox="-92.7 -112.1 3298.5 2767.5" height="2768" preserveAspectRatio="xMidYMid meet" version="1"><g><g><ellipse rx="1269.9" ry="1557.9" fill="#ffc4a2" cx="1556.5" transform="matrix(7.537492e-02 -0.9972 0.9972 7.537492e-02 171.0433 2727.9832)" cy="1271.8"/></g><g><path fill="#ffc4a2" d="M2962.6,1336.4c0,0-345.2-866.8-1356.4-909.2S125,1210.1,125,1210.1s325.7,726.4,1459.5,730.6 c139.2,9.7,283.8,1.7,431.3-30.3l0,0l0,0C2324.9,1843.5,2647.3,1671.4,2962.6,1336.4z"/></g><g><path fill="#f79a9a" d="M2806.6,1280.9c0,0-95,225.2-596.7,364.3c-148.9,41.3-333.7,75-562.4,93c-237,18.7-429.8,3.6-586.2-30.1 c-120.8-26.1-219.8-63.4-300.5-105.1C505.9,1471.5,434,1297,434,1297l94.4-263.4l363.8-216.5l170.7-101.6l491.9,20.3l174.8,7.2 l447.3,18.4L2806.6,1280.9z"/></g><g><path fill="#f28c8c" d="M2806.6,1280.9c0,0-66.1,156.6-379,289.3c-62.3,26.5-134.4,51.9-217.7,75c14.2-33.2,31.3-69.3,51.6-108.2 c174.3-333.3-139.4-727.3-532.1-793.9l447.3,18.4L2434,973.6L2806.6,1280.9z"/></g><g><path fill="#ea7a7a" d="M2806.6,1280.9c0,0-41.2,97.6-212.5,204c-45.6,28.3-100.6,57.3-166.5,85.3c133.7-264.2-6.2-585.5-6.2-585.5 s4.4-4.1,12.5-11.2l141.8,116.9c0,0,0,0,0,0.1L2806.6,1280.9z"/></g><g><path fill="#f28c8c" d="M1554.8,735.8c-111,10-223.5,48.5-329.1,123.4c-423.2,300.1-260.9,687.2-164.3,848.9 c-120.8-26.1-219.8-63.4-300.5-105.1C505.9,1471.5,434,1297,434,1297l94.4-263.4l363.8-216.5l170.7-101.6L1554.8,735.8z"/></g><g><path fill="#ea7a7a" d="M761,1603c-254.9-131.4-326.9-306-326.9-306l94.4-263.5l363.8-216.5l17.7,42.1 C909.9,859.3,637.7,1086.1,761,1603z"/></g><g><radialGradient gradientTransform="matrix(-1.0164 -3.640523e-02 3.702640e-02 -0.9993 5331.6104 2622.0518)" gradientUnits="userSpaceOnUse" xlink:type="simple" r="560.992" xlink:actuate="onLoad" cx="3712.262" id="a" cy="1291.12" xlink:show="other"><stop stop-color="#6af4ff" offset="0"/><stop stop-color="#69f1fc" offset="0.151"/><stop stop-color="#64e7f1" offset="0.28"/><stop stop-color="#5dd6df" offset="0.401"/><stop stop-color="#53bec7" offset="0.517"/><stop stop-color="#459fa7" offset="0.63"/><stop stop-color="#357a7f" offset="0.739"/><stop stop-color="#214d51" offset="0.847"/><stop stop-color="#0c1b1c" offset="0.951"/><stop offset="1"/></radialGradient><ellipse rx="570.6" ry="561" fill="url(#a)" cx="1606.3" cy="1196.7"/><radialGradient gradientTransform="matrix(-1.0164 -3.640523e-02 3.702640e-02 -0.9993 5331.6104 2622.0518)" gradientUnits="userSpaceOnUse" xlink:type="simple" r="509.984" xlink:actuate="onLoad" cx="3712.218" id="b" cy="1291.168" xlink:show="other"><stop stop-color="#696667" offset="0"/><stop stop-color="#464445" offset="0.362"/><stop offset="1"/></radialGradient><path fill="url(#b)" opacity="0.53" d="M1569.1,886l-49.2-199.1c-0.8-3.6-6.2-2.6-5.8,1l22.5,203.7c5.5,50-59.3,75.6-90.5,35.8l-127.3-162.3 c-2.3-2.9-6.8,0.1-4.9,3.2l104.8,177.1c25.7,43.5-22.8,92.7-67.8,68.8L1167.4,917c-3.2-1.7-6.1,2.8-3.1,4.9l169,120 c41.5,29.4,17.5,93.8-33.5,90l-207.8-15.6c-3.6-0.3-4.5,5-0.8,5.8l204,42c50,10.3,54.9,78.8,6.6,95.6l-196.3,68.9 c-3.5,1.2-2,6.4,1.6,5.6l203.7-43.2c50-10.6,82.7,50,45.6,84.7l-150.8,141.4c-2.7,2.5,0.8,6.6,3.8,4.5l168.2-121 c41.3-29.7,96.2,12.6,76.7,59.1l-79.3,189.5c-1.4,3.4,3.5,5.7,5.3,2.5l103.6-177.8c25.4-43.7,93.1-27,94.5,23.3l6,204.8 c0.1,3.6,5.5,3.8,5.9,0.2l21.1-203.9c5.2-50,73.9-61.8,96.1-16.5l90.2,184.7c1.6,3.3,6.6,1.3,5.5-2.2l-65-194.6 c-15.9-47.7,42-86,80.9-53.5l158.8,132.7c2.8,2.4,6.6-1.4,4.1-4.2l-139.8-151.8c-34.3-37.2,2.7-95.4,51.8-81.2l200,57.7 c3.6,1,5.4-4,2-5.4l-190.7-82.7c-46.8-20.3-37-88.3,13.7-94.9l206.6-27.3c3.6-0.5,3.3-5.8-0.4-5.8l-208.5,0.6 c-51.1,0.2-70.3-65.8-26.7-92.2l177.4-107.5c3.1-1.9,0.6-6.6-2.8-5.2l-190.2,83.9c-46.6,20.6-91.4-32-62.6-73.5l117.6-169.1 c2.1-3-2.2-6.3-4.7-3.6l-138.9,152.6c-34.1,37.5-96.7,7.3-87.6-42.1l37.5-201.6c0.7-3.6-4.6-4.9-5.8-1.4l-63.8,195.1 C1650.8,937.3,1581.1,934.8,1569.1,886z"/><radialGradient gradientTransform="matrix(-0.9896 -0.2347 0.232 -0.9727 5560.8794 3214.5464)" gradientUnits="userSpaceOnUse" xlink:type="simple" r="484.764" xlink:actuate="onLoad" cx="4231.203" id="c" cy="1053.714" xlink:show="other"><stop stop-color="#696667" offset="0"/><stop stop-color="#464445" offset="0.362"/><stop offset="1"/></radialGradient><path fill="url(#c)" opacity="0.53" d="M1641.2,900l-8.7-194.8c-0.2-3.5-5.3-3.6-5.6-0.2l-17,194.1c-4.2,47.6-69.3,59.4-91,16.5l-88.5-175 c-1.6-3.1-6.4-1.2-5.2,2.1l64.7,184.6c15.9,45.3-38.6,82.2-76,51.5l-152.9-124.9c-2.7-2.2-6.3,1.4-3.8,4l135.2,143.3 c33.1,35.2-1.2,90.7-48,77.7l-190.8-53.2c-3.4-0.9-5.1,3.8-1.9,5.2l182.4,77.1c44.8,18.9,36.5,83.6-11.6,90.4l-195.8,27.7 c-3.5,0.5-3.1,5.5,0.5,5.5l198-2.4c48.6-0.6,67.7,62,26.8,87.5L1185,1420.6c-3,1.9-0.5,6.3,2.7,4.8l179.3-81.5 c44-20,87.3,29.7,60.5,69.4l-109.2,161.9c-1.9,2.9,2.2,5.9,4.5,3.4l129.7-146.5c31.8-35.9,91.8-7.8,83.8,39.3l-32.6,192.1 c-0.6,3.4,4.4,4.6,5.4,1.3l57.6-186.1c14.2-45.7,80.4-43.9,92.6,2.5l49.7,189.1c0.8,3.4,5.9,2.5,5.5-1l-24.4-193.6 c-6-47.5,55.1-72.4,85.4-34.8l123.4,153.3c2.2,2.7,6.4-0.2,4.6-3.1l-102.1-167.5c-25.1-41.1,20.3-88.4,63.4-66l175.7,91.1 c3.1,1.6,5.8-2.7,2.9-4.7l-162.3-112.7c-39.8-27.6-18.1-89.1,30.4-86l197.7,13.1c3.5,0.3,4.2-4.8,0.7-5.5l-194.4-38.1 c-47.7-9.4-53.2-74.4-7.8-90.9l185.4-67.2c3.3-1.2,1.8-6-1.6-5.3l-192.9,42.9c-47.3,10.5-79.3-46.9-44.6-80.2L1995.2,878 c2.5-2.4-0.8-6.3-3.6-4.2l-158,116.6c-38.7,28.6-91.6-11.2-73.8-55.6l72.5-180.9c1.3-3.2-3.4-5.4-5.1-2.4l-95.8,170 C1707.8,963.1,1643.3,947.8,1641.2,900z"/><g><ellipse rx="189.4" ry="186.3" fill="#232323" cx="1606.3" cy="1196.7"/></g><g><ellipse rx="87" ry="85.6" fill="#070707" cx="1606.3" cy="1196.7"/></g><radialGradient gradientTransform="matrix(-1.0164 -3.640523e-02 3.702640e-02 -0.9993 5331.6104 2622.0518)" gradientUnits="userSpaceOnUse" xlink:type="simple" r="80.952" xlink:actuate="onLoad" cx="3450.5" id="d" cy="1606.494" xlink:show="other"><stop stop-color="#ffffff" offset="0"/><stop stop-opacity="0" stop-color="#f3f3f3" offset="1"/></radialGradient><ellipse rx="82.3" ry="81" fill="url(#d)" cx="1884" opacity="0.91" cy="891.1"/><g><path fill="#ffffff" opacity="0.52" d="M1376.3,1532.3L1376.3,1532.3c33.7-25.6,38-74.2,8.9-104.8c-52.1-54.8-85-127.4-88-208.2 c-4-106.7,45.4-203.2,124.5-264.8c26.5-20.6,34.1-57,19.2-86.7l0,0c-20.3-40.6-73.8-52.7-109.8-24.6 c-113.7,88.8-184.4,227.7-178.7,381.3c4.3,116.2,51.6,220.9,126.4,299.9C1304.3,1551.3,1346.5,1554.9,1376.3,1532.3z"/></g></g><g><path d="M1653.7,555.8C772.8,537,460.6,955.8,373.4,1116.7c-0.2,0.2-0.3,0.4-0.4,0.6c-22.6,35.5-26,79.9-10.9,119.2 c1.5,4.1,3.2,8.2,5.1,12.5c114.4,298.9,394.9,353.4,394.9,353.4c-106.9-65.6-177.4-152.1-220.2-219.6 c-33.2-52.5-43.9-117.1-27.4-177.5c23.3-85.2,90.4-179.5,233.9-275.4c9.2-6.1,18.9-11.1,29.1-15.3 c139.6-57.5,324.5-145.1,561.7-184.9c851.2-142.9,1416,563.3,1416,563.3c-34.7,170.3-355.6,277.7-355.6,277.7 c349.8-58.2,434.2-223.7,468.4-259.5C2656.2,969.9,2275.8,569.1,1653.7,555.8z"/></g><g><path fill="#602a1e" d="M780.6,607.3c0,0,1058.3-543,1910.6,318.3C2691.3,925.5,2005.1-45.4,780.6,607.3z"/></g><g><path d="M51.1,505.5c0,0-5.1,392.9,458.3,452.5l-77.9,78.1C431.5,1036,3,971.9,51.1,505.5z"/></g><g><path d="M205.9,499.5c0,0-4.4,335.5,391.4,386.4l-66.6,66.7C530.8,952.5,164.8,897.8,205.9,499.5z"/></g><g><path d="M342.8,504.6c0,0-3.6,277.9,324.1,320l-55.1,55.2C611.8,879.9,308.8,834.4,342.8,504.6z"/></g><g><path d="M478.3,445.2c0,0-3.4,258.9,302,298.2l-51.4,51.5C728.9,794.8,446.5,752.5,478.3,445.2z"/></g><g><path d="M630.5,445.2c0,0-3.3,253.7,295.9,292.1l-50.3,50.4C876,787.7,599.4,746.3,630.5,445.2z"/></g><g><path d="M759.5,407.6c0,0-3.3,253.7,295.9,292.1l-50.3,50.4C1005.1,750.1,728.5,708.6,759.5,407.6z"/></g><g><path d="M947.1,309.2c0,0-101.6,230.7,157.2,391.2l-65.6,25.1C1038.7,725.3,801.6,571.6,947.1,309.2z"/></g><g><path d="M1078,342c0,0-87.8,199.5,135.9,338.2l-56.7,21.7C1157.2,701.9,952.3,569,1078,342z"/></g><g><path d="M1220,347.5c0,0-74.4,169,115.1,286.5l-48.1,18.4C1287.2,652.3,1113.5,539.7,1220,347.5z"/></g><g><path d="M60.7,861.1c0,0,34.1,229.9,400.2,222.7l-53.1,52.6C407.8,1136.4,68.3,1137.8,60.7,861.1z"/></g><g><path d="M466.6,1401.5c0,0-214.1,118.4-216.6,317.1c0,0,46.6-193.8,269.8-284.5L466.6,1401.5z"/></g><g><path d="M581.9,1475.7c0,0-205.4,113.6-207.8,304.2c0,0,44.7-185.9,258.8-273L581.9,1475.7z"/></g><g><path d="M682.3,1550.8c0,0-170.8,94.4-172.8,253c0,0,37.2-154.5,215.3-226.9L682.3,1550.8z"/></g><g><path fill="#e8a989" d="M632.9,1704.8c0,0,695.3,392.3,1376.6,160.1s771.9-304.9,771.9-304.9s-205.7,831.6-1237.6,797.6 C566.8,2325.5,632.9,1704.8,632.9,1704.8z"/></g><g fill="#e54545"><path d="M1041.7,1603.1c0,2.5-2,4.5-4.5,4.5c0,0,0,0-0.1,0c-61.1-0.9-183.6-65.6-221.3-149.6 c-34.4-76.8-18.6-136.4-14.5-149c-4.3-4.9-8.8-10-13.7-15.3c-73.2-79.6-94.2-86.2-204.6-63.8c-27.1,5.5-52.5,10.4-75.5,14.6 c0.3-3,0.6-6.2,0.9-9.2c22.3-4.1,46.7-8.8,72.8-14.1c15.7-3.1,29.6-5.7,42.2-7.6c0.2-8.7,4.6-92.8,100-118.2 c20.6-5.5,39.8-10,57.1-13.9c0.2-11.7,3.5-67.8,46.8-92.5c53.5-30.5,70.1-55.8,74.8-65.2c1-2.2,3.7-3.1,5.9-2c2.3,1,3.1,3.7,2.1,6 c-10.7,21.4-39.2,46.5-78.4,68.9c-36.4,20.9-41.5,68.6-42.2,82.8c60-13.9,99.8-23.9,116.2-57.1c23.3-46.8,60.7-72.2,62.2-73.3 c2.1-1.3,4.8-0.9,6.2,1.2c1.4,2,0.9,4.8-1.1,6.2c-0.4,0.3-37.1,25.2-59.3,69.9C895.1,1064,852,1074,786.6,1089 c-18.2,4.3-38.8,9-60.8,14.8c-86.7,23.1-92.9,95.5-93.4,108.5c46.1-6,73.9-1.2,104.3,20.8c9.2,0.3,83.8,1.3,105-33.9 c5.4-8.9,9.7-17.4,13.7-25.8c13.8-27.8,25.7-51.9,70.1-59c2.6-0.3,4.7,1.3,5.1,3.7c0.4,2.5-1.2,4.7-3.7,5.1 c-39.8,6.4-49.8,26.5-63.5,54.1c-4.2,8.4-8.4,17.2-14,26.4c-19.7,32.8-75.8,37.7-101.3,38.3c13.7,11.6,28.5,26.4,46.1,45.6 c21.9,23.8,37.6,44.4,50.2,60.9c31.2,40.8,46.9,61.2,103.6,71.8c2.4,0.5,4,2.7,3.5,5.2c-0.4,2.1-2.2,3.6-4.4,3.6 c-0.2,0-0.5,0-0.8-0.1c-60.1-11.1-77.5-33.8-109-75.1c-8.5-11.1-17.8-23.2-29.2-36.8c-4.7,19.1-13.5,72.2,15.6,137.3 c36.4,81,154.5,143.3,213.4,144.3C1039.8,1598.6,1041.7,1600.6,1041.7,1603.1z"/><path d="M753.9,1351.3c-1.2,0.4-3,0.6-5.6,0.6c-16.2,0-58.8-8.3-101.1-28.4c-34.8-16.6-61.6,2.5-72.6,12.8 c18.2,4,34.6,11.4,45.8,24.2c17.8,20.4,33,45.1,47.7,69c19.1,31.2,37.3,60.7,59.3,78.3c2,1.5,2.3,4.3,0.8,6.3 c-0.9,1-2.2,1.6-3.5,1.6c-0.9,0-1.9-0.3-2.7-0.9c-23.3-18.6-41.8-48.7-61.4-80.6c-14.5-23.6-29.5-48-46.7-67.8 c-19.6-22.5-58.8-26.4-92.4-24.8c-1.1-2.9-2.2-5.9-3.2-8.8c14.7-0.9,30.7-0.7,46,1.6c8.1-8.5,42-40.3,87-18.9 c48.7,23.2,94.8,28.9,99.9,27.5c2.4-0.7,4.8,0.7,5.6,2.9C757.3,1348,756.2,1350.5,753.9,1351.3z"/></g><g fill="#e54545"><path d="M2740.5,1334.9c-1.4,2.9-2.9,5.8-4.6,8.6c-35.6,1.6-89.4,4.6-152.5,9.8c-16,1.2-30.1,2.2-42.8,2.6 c-1.1,8.2-14.1,87.2-111.7,100.9c-21,2.9-40.6,5.1-58.1,7c-1.4,10.9-10.4,63.6-56.1,82.3c-56.3,23.1-75.5,45.1-81.1,53.6 c-1.3,1.9-4.1,2.5-6.2,1.2c-2-1.3-2.7-3.9-1.3-5.9c12.8-19.2,43.7-39.8,85-56.7c38.3-15.7,48.3-60.3,50.4-73.6 c-61.1,6.6-101.7,11.8-121.4,41.2c-28,41.8-67.7,61.7-69.4,62.6c-2.2,1-4.8,0.3-6-1.8c-1.2-2.1-0.4-4.6,1.8-5.8 c0.4-0.2,39.4-19.7,66.1-59.5c22.6-33.8,66.5-38.5,133-45.6c18.5-2,39.4-4.3,61.9-7.4c88.5-12.4,102.2-80.1,104-92.2 c-46.5,0.6-73.7-6.9-101.5-31c-9.1-1.2-83.1-10.4-108,20.7c-6.3,7.9-11.4,15.5-16.2,22.8c-16.6,24.7-31,46.2-75.8,48.1 c-2.5,0.1-4.6-1.7-4.6-4c-0.1-2.4,1.7-4.4,4.2-4.5c40.3-1.7,52.2-19.5,68.7-44.3c5-7.5,10.2-15.3,16.7-23.4 c23-28.7,79.4-27.4,104.8-25.1c-12.5-12.4-25.6-28.2-41.1-48.1c-19.2-24.9-32.8-46.1-43.6-63c-26.8-41.9-40.3-62.9-95.7-79.1 c-2.4-0.7-3.7-3-2.9-5.2c0.6-2,2.6-3.2,4.6-3c0.3,0.1,0.6,0.1,0.9,0.2c58.6,17.1,73.5,40.4,100.7,82.8c7.3,11.5,15.3,24,25.1,37.9 c6.7-17.4,20.9-66.7-1.4-131.3c-27.8-80.6-138.7-152.3-197.2-159.6c-2.5-0.3-4.2-2.5-3.9-4.7c0.3-2.3,2.5-3.9,4.9-3.7 c0,0.1,0,0.1,0,0.1c60.7,7.5,175.9,81.8,204.6,165.3c26.3,76.2,4.5,130.9-0.9,142.4c3.8,5.1,7.7,10.4,11.9,15.9 c64.6,83.1,84.8,91.7,196.8,82.5C2648.9,1339.3,2705.1,1336.4,2740.5,1334.9z"/><path d="M2703.4,1234.9c-14.5,2.4-30.3,4.1-45.7,3.7c-7,9-37.3,42.9-84.4,27.9c-50.9-16.3-97.4-16.3-102.3-14.3 c-2.3,0.9-4.8-0.1-5.8-2.2c-0.9-2.1-0.1-4.6,2.1-5.5c1.1-0.5,2.9-0.9,5.5-1.2c16.1-1.9,59.3,1.1,103.4,15.2 c36.5,11.7,61-9.5,70.7-20.4c-18.4-1.7-35.6-6.8-48.2-17.6c-19.8-17.2-37.6-38.8-54.8-59.6c-22.6-27.2-43.8-53-67.7-67 c-2.1-1.2-2.7-3.9-1.4-5.8c0.8-1.2,2-1.9,3.3-2c0.9-0.2,2,0,2.8,0.6c25.2,14.8,46.9,41.1,70,69c17,20.6,34.5,41.8,53.8,58.5 c21.2,18.4,58.8,18.2,91.3,13.3C2698.6,1230,2701,1232.5,2703.4,1234.9z"/></g></g></svg>