<?xml version="1.0" encoding="UTF-8" standalone="no"?><svg xmlns="http://www.w3.org/2000/svg" xmlns:xlink="http://www.w3.org/1999/xlink" contentScriptType="text/ecmascript" fill="#000000" width="427.5" zoomAndPan="magnify" contentStyleType="text/css" viewBox="386.3 50.0 427.5 1100.4" height="1100.4" preserveAspectRatio="xMidYMid meet" version="1"><g><g id="change1_1"><path fill="#dbc6b4" d="M806.7,636.3c-3.3-3.8-6.9-9.7-8.8-19.1c-0.6-3-2.6-5.6-5.3-7c-3.5-1.7-7.6-4.2-11.8-7.7 c-6.8-5.8-10.9-11.9-13.1-16c-0.5-30.4-3.1-64.8-9.3-102.1c-3.8-23.2-8.6-44.7-13.8-64.5c-0.3-12.2-1-24.8-1.9-37.9 c-1-13.7-2.3-26.9-3.8-39.4c-1.3-12.6-3.1-29.7-5.4-50.4c-1.7-14.4-2.6-21.4-7.4-29.7c-7.4-12.9-18.8-19.7-23.7-22.5 c-11.3-6.6-18.4-6.7-30.4-10.3c-10.8-3.3-26-9.6-43.2-22.9c0.4-9.2,0.9-18.4,1.3-27.6c1.7-1.5,3.5-3.5,5.1-6.3 c4.9-8.6,3.3-17.4,2.6-20.4l0,0c2.1,0.9,4.7,0.3,6.1-1.5c0.5-0.7,1.1-1.4,1.6-2.2c0.9-1.3,7.2-10.8,8.3-24.1 c0.3-4.1,0-6.4-1.6-7.5c-1.5-1.1-3.7-0.6-4.8-0.3c0.6-3.2,1.3-7.7,1.6-13.2c0.5-10.4-0.8-20.3-2.2-25C642.3,64.3,622.9,50,600,50 s-42.3,14.3-46.7,28.7c-1.4,4.8-2.7,14.7-2.2,25c0.3,5.5,1,10,1.6,13.2c-1.1-0.3-3.3-0.8-4.8,0.3c-1.6,1.1-1.9,3.4-1.6,7.5 c1.1,13.3,7.4,22.8,8.3,24.1c0.6,0.8,1.1,1.6,1.6,2.2c1.4,1.8,3.9,2.5,6.1,1.5l0,0c-0.7,2.9-2.4,11.8,2.6,20.4 c1.6,2.7,3.4,4.8,5.1,6.3c0.4,9.2,0.9,18.4,1.3,27.6c-17.1,13.3-32.4,19.6-43.2,22.9c-12,3.6-19.1,3.7-30.4,10.3 c-4.9,2.8-16.2,9.6-23.7,22.5c-4.8,8.4-5.7,15.3-7.4,29.7c-2.4,20.7-4.2,37.8-5.4,50.4c-1.5,12.6-2.8,25.8-3.8,39.4 c-1,13.1-1.6,25.7-1.9,37.9c-5.2,19.8-9.9,41.3-13.8,64.5c-6.1,37.3-8.7,71.6-9.3,102.1c-2.3,4.1-6.3,10.2-13.1,16 c-4.1,3.5-8.2,6-11.8,7.7c-2.8,1.4-4.7,4-5.3,7c-1.9,9.4-5.5,15.3-8.8,19.1c-3,3.4-7.1,6.9-6.1,9.4c0.8,1.9,4.4,3.1,7.4,2.2 c6.2-1.9,5-11.8,13.1-16.3c1.8-1,3.5-1.4,4.5-1.6c-0.2,9.1-1.8,16-3.2,20.7c-1.7,5.8-5.4,15.6-6.4,27.2c-0.2,2.7-0.4,6.5,1.6,7.5 c1.7,0.9,4-0.5,5.1-1.3c1.8-3.3,3.1-6,3.8-7.8c4.3-10.1,4.3-16,9.3-27.2c0.7-1.5,1.3-2.7,1.6-3.4c-0.4,4.9-1.1,10.3-2.2,16 c-3.1,15.6-8,26.6-8,26.6c-0.6,1.9-2,5.7-0.3,7.2c1.3,1.2,3.6,0.4,3.8,0.3c2.6-0.9,4.3-3.9,4.5-7.5c1.6,2.2,2.9,2.5,3.5,2.5 c2.9,0.1,5.2-4.1,7-7.5c1.3-2.4,2.1-4.5,2.6-5.9c2.1,2.1,3.9,2.2,4.5,2.2c3.5-0.1,7.2-4.3,7.7-10.6c2.4-5.3,5.7-13.4,8.6-23.5 c6.4-22.5,6.3-39.5,6.7-49.2c1.4-31.6,11.5-38,22.7-81.4c4.8-18.4,10.3-45.6,11.8-80.5c3.4-10.5,6.6-22.1,9.3-34.8 c4-18.9,6.1-36.3,7-51.7c1,12.6,2.3,30.6,2.9,52.3c1,34.5,1.9,67.7-3.2,107.1c-5.7,44-12.1,42.6-16,82c-3.2,32.6-1.1,57,1.3,83.9 c2.8,31.8,9,74.8,23,125.2c1.6,17.5,1.2,31.5,0.6,40.7c-2.3,37.3-11.3,51.7-9.6,84.5c0.6,11.2,2.1,18.5,5.1,33.2 c8.3,40.2,23.7,78.2,19.2,95.2c-0.4,1.6-2.2,7.4-1.7,15.2c0.4,6.3,1.9,7.3,2.1,11.3c0.3,5.4-2.1,10.4-17.1,27.3 c-8.1,9.2-16.9,13.4-15.6,16.9c0.3,0.9,1.7,2.7,3.4,2.7c0.8,0,1.6-0.4,2-0.8c-0.7,0.7-1.9,2.2-1.8,4.3c0,2.3,1.6,4.4,3.8,5.4 c-0.2,0.6-0.5,1.7-0.2,2.9c0.6,2.5,3.1,4.4,5.8,4.6c2.8,0.2,4.7-1.5,5.1-1.9c0,0.5,0.4,3.6,2.8,5c3.3,2,7.6-0.8,7.9-1 c1.6-1.1,2.7-2.7,3.5-4.3c-0.1,1.8,0.1,3.7,1,5.3c1.9,3.4,6.6,5.5,10.7,4.6c5.7-1.3,7.6-8.2,8.1-10c0.7-2.6,0.1-2.8,0.9-5.2 c1.5-4.8,4.4-5.1,6.8-9.2c3.4-5.8-0.2-9.2,3.4-13.8c2.6-3.3,4.8-1.9,7-4.8c3.8-4.9,1.2-13.3-1.7-22.8c-1.7-5.6-2.5-6-2.6-9 c-0.2-6.1,2.8-8.6,3.4-14c0.4-3.3-0.1-8-4.1-14.2c0.1-4.2,0.2-11.4,0.6-20.2c2.3-47.1,9.1-65.5,9.8-99.8c0.4-17.2,0-30.2-3-46.8 c-0.9-5.1-1.6-7.6-1.8-12.4c-0.7-15,4.5-22,7-36.9c1.6-9.4,0-9.6,0.6-24.7c0.9-21.2,4.2-25.1,6.7-46.3c3-25.5,1.7-48.6,1.6-51 c-0.7-11.9-2.3-24.5,2.6-40.7c1.6-5.4,3.5-9.7,4.8-12.5l1.3-0.2l1.3,0.2c1.3,2.8,3.2,7.1,4.8,12.5c4.8,16.2,3.3,28.8,2.6,40.7 c-0.1,2.4-1.4,25.6,1.6,51c2.5,21.2,5.8,25.1,6.7,46.3c0.7,15.2-0.9,15.3,0.6,24.7c2.5,14.9,7.7,21.9,7,36.9 c-0.2,4.8-0.9,7.4-1.8,12.4c-3,16.6-3.3,29.5-3,46.8c0.7,34.3,7.5,52.7,9.8,99.8c0.4,8.9,0.6,16,0.6,20.2 c-4,6.2-4.4,10.9-4.1,14.2c0.6,5.4,3.6,7.9,3.4,14c-0.1,3-0.8,3.4-2.6,9c-2.9,9.5-5.5,17.9-1.7,22.8c2.3,2.9,4.4,1.5,7,4.8 c3.6,4.6,0.1,8,3.4,13.8c2.4,4.1,5.3,4.4,6.8,9.2c0.8,2.4,0.1,2.6,0.9,5.2c0.5,1.8,2.4,8.7,8.1,10c4,0.9,8.8-1.2,10.7-4.6 c0.9-1.6,1.1-3.5,1-5.3c0.8,1.6,1.9,3.2,3.5,4.3c0.3,0.2,4.6,3.1,7.9,1c2.4-1.5,2.7-4.5,2.8-5c0.4,0.3,2.3,2.1,5.1,1.9 c2.6-0.2,5.2-2.1,5.8-4.6c0.3-1.2,0-2.3-0.2-2.9c2.3-1,3.8-3.1,3.8-5.4c0-2.1-1.1-3.6-1.8-4.3c0.5,0.4,1.2,0.8,2,0.8 c1.7,0,3.1-1.8,3.4-2.7c1.4-3.5-7.5-7.7-15.6-16.9c-15-17-17.3-21.9-17.1-27.3c0.2-4,1.7-5,2.1-11.3c0.5-7.8-1.3-13.6-1.7-15.2 c-4.5-16.9,10.9-55,19.2-95.2c3-14.6,4.5-22,5.1-33.2c1.7-32.8-7.3-47.3-9.6-84.5c-0.6-9.2-1-23.2,0.6-40.7 c14.1-50.4,20.2-93.5,23-125.2c2.4-26.9,4.5-51.3,1.3-83.9c-3.9-39.5-10.3-38.1-16-82c-5.1-39.3-4.2-72.5-3.2-107.1 c0.6-21.7,1.8-39.7,2.9-52.3c0.9,15.4,3,32.8,7,51.7c2.7,12.6,5.9,24.2,9.3,34.8c1.5,34.9,7.1,62.1,11.8,80.5 c11.2,43.4,21.3,49.8,22.7,81.4c0.4,9.6,0.3,26.7,6.7,49.2c2.9,10.1,6.2,18.1,8.6,23.5c0.5,6.4,4.2,10.6,7.7,10.6 c0.5,0,2.4-0.1,4.5-2.2c0.5,1.5,1.3,3.6,2.6,5.9c1.9,3.4,4.2,7.6,7,7.5c0.6,0,2-0.3,3.5-2.5c0.2,3.7,1.9,6.6,4.5,7.5 c0.2,0.1,2.6,0.8,3.8-0.3c1.7-1.5,0.3-5.3-0.3-7.2c0,0-4.9-11-8-26.6c-1.1-5.7-1.8-11-2.2-16c0.3,0.7,0.9,1.9,1.6,3.4 c5,11.3,5,17.1,9.3,27.2c0.8,1.8,2,4.5,3.8,7.8c1.1,0.7,3.5,2.1,5.1,1.3c2-1,1.8-4.8,1.6-7.5c-1-11.6-4.7-21.4-6.4-27.2 c-1.4-4.6-3-11.6-3.2-20.7c1,0.2,2.7,0.6,4.5,1.6c8.1,4.4,7,14.4,13.1,16.3c2.9,0.9,6.6-0.3,7.4-2.2 C813.8,643.2,809.6,639.7,806.7,636.3z"/></g><g><g id="change2_49"><path fill="#0476fc" d="M586.8,318.5c-0.4-6.4-0.2-12.9,0.1-19.1c0.4-6.3,0.8-12.1,0.4-17.8c-0.2-2.9-0.5-5.7-1-8.6 c-0.2-1.4-0.5-2.9-0.8-4.3c-0.3-1.5-0.6-2.8-1-4.1c-0.7-2.6-1.8-5-3-6.9c-1.3-1.9-2.8-3.2-4.6-3.9c-1.8-0.8-4.1-1-6.7-0.8 c-2.5,0.2-5.2,0.9-7.9,1.7c-2.7,0.9-5.4,2-8.1,3.2c-2.6,1.2-5.7,2.7-8.6,3.9c-5.9,2.4-12,4.1-16.9,6.5c-1.2,0.6-2.3,1.2-3.4,1.9 c-1,0.7-1.9,1.5-2.7,2.4c-1.6,1.8-2.9,4-3.8,6.5c-1.9,5-2.7,11-3,16.9c-0.4,6-0.5,12.1-0.6,18.2c-0.2,12.3-0.2,24.6-0.8,37 c-0.6,12.4-1.8,24.9-4.3,37.2c-2.5,12.3-6.6,24.4-12.8,35.4l0.3-1.7c1.1,10,1.1,20.1,0.6,30.1c-0.6,10-1.8,19.9-3.5,29.7 c-1.8,9.8-4,19.5-7,29.1c-1.5,4.8-3.1,9.5-5,14.1c-1.9,4.7-4,9.1-5.9,13.6c-4,9-8.1,18.1-11.8,27.2c-1.9,4.6-3.7,9.2-5.4,13.8 c-1.7,4.6-3.2,9.3-4.5,14.1c-1.3,4.8-2.2,9.6-2.9,14.5c-0.3,2.4-0.6,4.9-0.6,7.3c0,1.2,0,2.4,0.2,3.6c0.1,1.2,0.4,2.4,0.6,3.7 c0.3,2.5,0,5-0.4,7.5c-0.4,2.4-0.7,4.9-0.7,7.3c0,2.5,0.5,4.9,0.7,7.4c0.2,2.5,0.1,5-0.2,7.4c0.2-2.5,0.3-4.9,0-7.4 c-0.3-2.4-0.8-4.9-0.9-7.4c-0.1-2.5,0.2-5,0.5-7.4c0.3-2.4,0.6-4.9,0.2-7.3c-0.2-1.2-0.5-2.4-0.6-3.7c-0.2-1.2-0.3-2.5-0.3-3.8 c0-2.5,0.2-5,0.5-7.5c0.5-4.9,1.4-9.9,2.6-14.7c1.2-4.8,2.6-9.6,4.2-14.3c1.6-4.7,3.3-9.4,5.1-14c3.6-9.3,7.4-18.4,11.2-27.5 c1.9-4.6,3.9-9.1,5.6-13.7c1.8-4.6,3.2-9.2,4.6-13.9c2.7-9.4,4.7-19.1,6.2-28.8c1.5-9.7,2.5-19.5,2.8-29.3 c0.3-9.8,0.1-19.6-1.2-29.2c-0.1-0.6,0-1.1,0.3-1.6l0-0.1c5.7-10.5,9.3-22.1,11.4-34c2.2-11.9,3.1-24,3.4-36.2 c0.3-12.2,0.1-24.5,0-36.8c0-6.2-0.1-12.3,0.2-18.7c0.3-6.3,0.9-12.8,3.1-19.4c1.1-3.3,2.9-6.6,5.3-9.4c1.2-1.4,2.6-2.7,4.1-3.8 c1.5-1.1,3-2,4.6-2.8c3.1-1.6,6.1-2.7,9-3.8c2.9-1.1,5.7-2.1,8.4-3.3c2.7-1.2,5.1-2.4,8.1-3.9c2.9-1.4,5.9-2.7,9-3.8 c3.1-1.1,6.5-2,10.1-2.4c3.6-0.4,7.6-0.3,11.5,1.2c3.9,1.5,7.3,4.4,9.5,7.5c2.2,3.2,3.7,6.5,4.7,9.8c0.5,1.6,1,3.3,1.3,4.9 c0.4,1.6,0.7,3.1,1,4.8c0.6,3.2,1.1,6.5,1.3,9.7c0.6,6.6,0.2,13.1,0,19.1c-0.2,6.1-0.2,11.9,0.3,17.8c0.3,3.3-2.2,6.2-5.6,6.5 c-3.3,0.3-6.2-2.2-6.5-5.6C586.8,318.6,586.8,318.6,586.8,318.5z"/></g><g id="change2_4"><path fill="#0476fc" d="M433.9,655.4l-1.9-0.8c2.3-5.7,5.1-10.2,8.8-13.9c3.6-3.6,7.1-7.3,10-12l1.8,1.1c-3,4.9-6.7,8.8-10.3,12.4 C438.8,645.7,436.1,649.9,433.9,655.4z"/></g><g id="change2_57"><path fill="#0476fc" d="M429.7,654.6l-2-0.3c0.4-2.8,0.3-5,0.1-7.4c-0.1-2.2-0.3-4.5,0-7.4c0.1-1.4,0.3-2.6,0.4-3.8 c0.5-4,0.9-7.4,0.3-13.2c-0.7-8,1.8-21.4,5.5-29.4c3.2-9.7,8.2-16.7,13.4-24c3.2-4.4,6.4-9,9.5-14.5 c9.5-16.9,10.9-42.4,11.1-52.6c0.1-8.4-0.6-15.5-1.3-22.4c-0.7-6.7-1.4-13.6-1.3-21.8c0.1-14,2.4-29.5,4.7-44.5 c0.4-2.7,0.8-5.4,1.2-8.1c1.5-10.4,0.8-19.9,0.1-29.9c-0.4-6-0.9-12.3-0.8-18.9c0.1-18.6,7.4-39.4,13.4-53.5 c6.1-14.4,16.4-20.8,28.3-28.1c1.4-0.9,2.8-1.8,4.3-2.7l1.1,1.7c-1.5,0.9-2.9,1.8-4.3,2.7c-11.6,7.2-21.6,13.4-27.5,27.2 c-6,14-13.1,34.5-13.2,52.7c0,6.5,0.4,12.7,0.8,18.7c0.7,10.1,1.4,19.7-0.1,30.3c-0.4,2.7-0.8,5.4-1.2,8.1 c-2.2,14.9-4.5,30.3-4.7,44.2c-0.1,8.1,0.6,15,1.3,21.6c0.7,6.9,1.4,14.1,1.3,22.6c-0.2,10.3-1.6,36.3-11.4,53.5 c-3.1,5.6-6.4,10.2-9.6,14.6c-5.1,7.2-10,14-13.2,23.6c-3.7,7.8-6.1,20.7-5.4,28.4c0.6,6.1,0.1,9.6-0.4,13.7 c-0.1,1.2-0.3,2.4-0.4,3.8c-0.3,2.8-0.1,5,0,7.1C430,649.2,430.1,651.6,429.7,654.6z"/></g><g id="change2_43"><path fill="#0476fc" d="M429.6,640l-1.8-1c2.4-4.2,4.9-6.5,7.8-9.1c1.5-1.4,3.1-2.9,4.9-4.8c5.8-6.3,9.3-17.8,10.6-22.4l2,0.5 c-1.6,5.9-5.1,16.8-11,23.3c-1.8,2-3.5,3.5-5,4.9C434.2,633.9,431.9,636.1,429.6,640z"/></g><g id="change2_28"><path fill="#0476fc" d="M449.5,567.2c-0.3-7.9-1.8-13.7-3.4-19.8c-1.6-6-3.3-12.3-3.8-20.8c-0.6-10.6,1.8-24.2,4-37.4 c1.4-8.1,2.8-15.8,3.3-22.3c1.3-16,3.4-24.3,6.8-37.9l0.6-2.4c-0.5-18.1,1.5-36.1,5.2-48.4c4.2-13.6,6.7-22.5,9.7-36.2l2,0.4 c-3,13.8-5.6,22.7-9.7,36.4c-3.7,12.1-5.6,30-5.2,47.8l0,0.1l-0.7,2.7c-3.4,13.6-5.4,21.8-6.7,37.6c-0.5,6.6-1.9,14.3-3.3,22.5 c-2.3,13.1-4.6,26.6-4,36.9c0.5,8.3,2.1,14.5,3.7,20.4c1.7,6.3,3.3,12.2,3.5,20.3L449.5,567.2z"/></g><g id="change2_32"><path fill="#0476fc" d="M469.5,515.6l-2-0.3c1.7-9.7,3.8-18.6,7-29.7c7.3-25.2,9.5-57.5,9.1-77.4c-0.3-17.5,4.7-25.8,10.5-35.2 c1.9-3.1,3.9-6.3,5.8-10c5.7-11.2,7.1-15.7,9.4-23.2c0.8-2.6,1.7-5.5,2.9-9.1l2,0.7c-1.2,3.6-2.1,6.5-2.9,9.1 c-2.3,7.6-3.8,12.1-9.5,23.5c-1.9,3.8-3.9,7-5.9,10.2c-5.7,9.2-10.6,17.2-10.2,34.1c0.4,20.1-1.8,52.6-9.2,78.1 C473.3,497.1,471.2,505.9,469.5,515.6z"/></g><g id="change2_46"><path fill="#0476fc" d="M467.5,459.7l-2-0.3c1-6.3,3.8-12,8.1-16.4l1.2-1.2c3.7-3.8,6.6-6.7,9.2-11.2l1.8,1.1 c-2.8,4.7-5.9,7.9-9.5,11.6l-1.2,1.2C471,448.5,468.4,453.8,467.5,459.7z"/></g><g id="change2_52"><path fill="#0476fc" d="M768.1,653.3c-1.7-5.4-4.1-9.7-7.3-13.4c-4-4.5-6.6-8.3-8.7-12.6l1.9-0.9c2.1,4.2,4.5,7.7,8.4,12.2 c3.4,3.9,5.9,8.5,7.7,14.1L768.1,653.3z"/></g><g id="change2_65"><path fill="#0476fc" d="M772.4,652.9c-0.1-3,0.2-5.3,0.5-7.5c0.3-2,0.6-4.1,0.6-6.8c0-6.1,0-10,1.5-17.3c1.4-7.2-0.5-19.4-4.1-26.7 c-3.4-9.4-8.5-16-13.9-23c-3-3.9-6.1-8-9.2-12.7c-10.8-16.9-12.3-41.7-12.5-48.9c-0.2-7.6,0.5-13.2,1.2-18.7 c0.7-5.7,1.4-11.1,1.2-18.6c-0.3-9.6-1.9-19.2-3.5-29.4c-0.9-5.5-1.8-11.3-2.6-17.1c-1.1-8.5-0.3-16.6,0.5-25.1 c0.7-7.9,1.5-16.1,0.8-24.8c-1.7-18.5-3.7-28.7-11.7-49.5c-6.2-15.9-28.5-44.5-41.2-57.1l1.5-1.5c12.8,12.8,35.4,41.7,41.7,57.9 c8.2,21,10.2,31.3,11.9,50c0.8,8.8,0,17.1-0.8,25.2c-0.8,8.5-1.6,16.5-0.5,24.7c0.7,5.8,1.7,11.5,2.6,17 c1.7,10.2,3.2,19.9,3.6,29.6c0.3,7.6-0.5,13.4-1.2,18.9c-0.7,5.4-1.4,11-1.2,18.4c0.4,14.6,3.8,34.8,12.1,47.9 c3,4.7,6.1,8.7,9.1,12.6c5.5,7.1,10.7,13.9,14.2,23.4c3.8,7.5,5.8,20.4,4.3,27.9c-1.4,7.1-1.5,10.9-1.4,16.9c0,2.9-0.3,5-0.6,7.1 c-0.3,2.2-0.7,4.3-0.5,7.1L772.4,652.9z"/></g><g id="change2_35"><path fill="#0476fc" d="M773.8,638.8c-1.9-4.1-4.1-6.5-6.8-9.6c-1.2-1.3-2.4-2.7-3.8-4.4c-3.6-4.5-6.7-11.5-9.5-21.6l2-0.6 c2.7,9.8,5.7,16.6,9.2,20.9c1.3,1.6,2.5,3,3.7,4.3c2.7,3,5.1,5.6,7.1,10.1L773.8,638.8z"/></g><g id="change2_50"><path fill="#0476fc" d="M757.4,569.4l-2.1,0c0.1-7.3,1.6-13.5,3-19.4c1.4-5.8,2.9-11.8,3.1-19.2c0.4-9.2-2-20.8-4.4-31.9 c-1.4-6.9-2.8-13.4-3.4-18.9c-1.3-12.1-3.2-18.2-6-27.3c-0.5-1.6-1-3.4-1.6-5.3l0-0.3c-0.1-15.9-0.7-33.9-4.4-48 c-1.4-5.3-2.9-10-4.2-14.5c-2.3-7.5-4.5-14.7-6.2-23.5l2-0.4c1.7,8.7,3.9,15.8,6.2,23.3c1.4,4.5,2.8,9.2,4.3,14.5 c3.8,14.2,4.4,32.4,4.5,48.3c0.6,1.8,1.1,3.5,1.6,5.2c2.8,9.3,4.7,15.4,6.1,27.7c0.6,5.4,1.9,11.9,3.4,18.7 c2.3,11.3,4.8,23,4.4,32.4c-0.3,7.5-1.8,13.7-3.2,19.6C758.9,556.5,757.5,562.3,757.4,569.4z"/></g><g id="change2_42"><path fill="#0476fc" d="M736.2,521.3c-1.7-8.1-4-16.1-6.9-24.4c-7-19.7-10.5-45.4-9.3-68.7c0.8-16.4-4.8-26.4-10.8-36.9 c-1.6-2.9-3.4-5.9-5-9.1c-4.6-9.2-5.7-15.1-6.8-21.3c-0.7-4.2-1.5-8.5-3.3-14.1l2-0.6c1.9,5.8,2.6,10.2,3.4,14.4 c1.1,6.4,2.1,11.9,6.6,20.8c1.6,3.1,3.3,6.1,4.9,9c6.2,10.8,12,21.1,11.1,38.1c-1.2,23,2.2,48.4,9.1,67.9c3,8.4,5.3,16.5,7,24.7 L736.2,521.3z"/></g><g id="change2_18"><path fill="#0476fc" d="M738.1,474.6c-1.1-4.9-3.7-8.9-7.7-12.1l-0.2-0.2c-4-3.2-7.5-5.9-10.6-10.2l1.7-1.2 c2.9,4.1,6.1,6.6,10.2,9.8l0.2,0.2c4.4,3.5,7.2,7.8,8.5,13.2L738.1,474.6z"/></g><g id="change2_63"><path fill="#0476fc" d="M585.2,253.4l-2.1-0.1c0.3-7.7,0.7-11.8,1.2-16.6c0.4-4.1,0.8-8.7,1.3-16.4c1.1-17.9-1-45.7-6.8-61.7 c-2-5.4-3.2-9.8-4.4-13.6c-2.4-8.3-4.4-14.8-11.3-25.8c-6.3-9.9-7.7-26-3.6-39.3c3.1-9.9,9.2-17.2,17-20.5 c20.2-8.5,32.3-7.9,49.8,2.4c16.4,9.7,18.2,26.7,17.6,43.7c-0.3,7.8-2.6,12.5-4.9,17c-2.1,4.1-4.1,8-4.4,14.3l-2.1-0.1 c0.3-6.7,2.5-10.9,4.6-15.1c2.2-4.3,4.4-8.8,4.7-16.1c0.5-15.2-0.3-32.2-16.6-41.8c-17-10-28.2-10.5-47.9-2.3 c-9.3,3.9-13.7,12.6-15.8,19.2c-4,12.7-2.6,28.1,3.3,37.5c7.1,11.2,9,17.8,11.5,26.3c1.1,3.8,2.4,8.2,4.3,13.5 c5.9,16.3,7.9,44.3,6.9,62.5c-0.5,7.8-0.9,12.4-1.3,16.5C586,241.7,585.6,245.7,585.2,253.4z"/></g><g id="change2_38"><path fill="#0476fc" d="M603,111.2c-0.4-11-1.1-22.2-1.9-33c-0.5-7.7-1.1-15.7-1.5-23.6l2.1-0.1c0.4,7.9,1,15.8,1.5,23.5 c0.8,10.8,1.6,22,1.9,33.1L603,111.2z"/></g><g id="change2_16"><path fill="#0476fc" d="M586.6,141.6l-2-0.4c0.9-4.3,2.8-8.3,6.1-12.4c1.3-1.7,2-3.6,2.8-5.7c0.8-2.1,1.6-4.3,3.1-6.2 c0.8-1,1.6-1.8,2.3-2.6c1.9-2.1,3.6-3.8,4.3-6.8l2,0.5c-0.8,3.5-2.8,5.6-4.8,7.8c-0.7,0.8-1.5,1.6-2.2,2.5 c-1.3,1.6-2,3.5-2.7,5.6c-0.8,2.1-1.6,4.3-3.1,6.3C589.2,134,587.4,137.7,586.6,141.6z"/></g><g id="change2_21"><path fill="#0476fc" d="M568.6,108.3c-1.3,0-2.5-0.4-3.9-0.9c-0.7-0.2-1.4-0.5-2.3-0.7l0.6-2c0.9,0.3,1.7,0.5,2.4,0.7 c2.7,0.9,3.7,1.2,7.4-0.4c5.2-2.2,13.9-4.1,19.4-4.7c5.1-0.6,6.6-1.9,10.3-5.1l0.3-0.2l1.4,1.6l-0.3,0.2 c-3.8,3.3-5.6,4.9-11.4,5.5c-5.4,0.6-13.8,2.4-18.8,4.5C571.4,107.9,569.9,108.3,568.6,108.3z"/></g><g id="change2_23"><path fill="#0476fc" d="M563.8,83.6c-1.1,0-2.3-0.3-3.9-0.9l0.7-1.9c3.5,1.3,4.1,1.2,7.5-1.5c1.1-0.8,2.1-1.8,3.2-2.8 c2.6-2.4,5.3-5,8.8-6.1l0.6,2c-3.1,1-5.6,3.3-8.1,5.6c-1.1,1-2.2,2.1-3.4,3C567,82.7,565.6,83.6,563.8,83.6z"/></g><g id="change2_59"><path fill="#0476fc" d="M532.2,306.6l-0.5-2c3.3-0.9,5.6-0.9,8.8-0.9c0.6,0,1.3,0,2,0c3.5,0,8.1-0.6,12.2-1.2l2.1-0.3 c1.9-0.2,3.2-0.1,4.4,0.1c1.8,0.2,3.2,0.4,5.9-0.7c1.2-0.5,2.6-1.1,4-1.8c4.6-2.1,10.3-4.7,15.1-4.7l0,2.1 c-4.3,0-9.8,2.5-14.2,4.5c-1.5,0.7-2.9,1.3-4.1,1.8c-3.2,1.3-5.1,1.1-6.9,0.8c-1.1-0.1-2.3-0.3-3.9-0.1l-2.1,0.3 c-4.1,0.5-8.8,1.2-12.4,1.2c-0.7,0-1.4,0-2,0C537.4,305.8,535.3,305.8,532.2,306.6z"/></g><g id="change2_66"><path fill="#0476fc" d="M539.1,313.3l-0.6-2c3.5-1,6.8-2.5,10.2-4.8c3.8-2.5,7.4-3.4,10.8-4.1l0.4,2c-3.2,0.6-6.6,1.5-10.1,3.8 C546.2,310.7,542.8,312.3,539.1,313.3z"/></g><g id="change2_40"><path fill="#0476fc" d="M538.1,354.2c-2.6,0-5.4-1.5-8.5-4.6l1.5-1.5c2.9,2.9,5.3,4.2,7.5,4c1.9-0.2,3.8-1.7,5.5-4.4 c2.7-4.2,2.8-9.1,2.8-14.3c0-3.2,0-6.5,0.6-9.8c1.6-8.6,8.2-16.3,17.8-20.6l0.9,1.9c-8.9,4.1-15.1,11.2-16.6,19.1 c-0.6,3.2-0.6,6.4-0.6,9.5c0,5.5,0,10.7-3.1,15.4c-2.1,3.2-4.5,5-7.1,5.3C538.6,354.2,538.3,354.2,538.1,354.2z"/></g><g id="change2_41"><path fill="#0476fc" d="M536.8,347l-1.2-1.7c4.3-3.2,8.1-4.2,13.1-3.6l-0.2,2C544,343.2,540.7,344.1,536.8,347z"/></g><g id="change2_45"><path fill="#0476fc" d="M537.5,336.5l-1.5-1.4c2.6-2.7,3.6-5.3,5-8.9l0.2-0.6c1.8-4.5,4.5-7.2,8.7-8.5l0.6,2 c-3.5,1.1-5.8,3.3-7.4,7.2l-0.2,0.6C541.5,330.6,540.4,333.5,537.5,336.5z"/></g><g id="change2_55"><path fill="#0476fc" d="M535.8,326.6l-0.1-2.1c3.4-0.1,5.5-1.2,7.8-3.9l1.6,1.3C542.4,325.2,539.8,326.5,535.8,326.6z"/></g><g id="change2_31"><path fill="#0476fc" d="M541.1,367.8l-1.8-1.1c3.5-5.8,5.9-10.3,4.8-17l2-0.3C547.4,356.7,544.7,361.8,541.1,367.8z"/></g><g id="change2_67"><path fill="#0476fc" d="M557.4,361.5c-2.7-3-4.3-5.9-6.2-9.3l-0.5-1c-2.3-4.2-3.4-8.8-3.3-13.3l2.1,0.1c-0.1,4.2,0.9,8.4,3,12.2 l0.5,1c1.9,3.4,3.4,6.1,5.9,9L557.4,361.5z"/></g><g id="change2_54"><path fill="#0476fc" d="M588.8,290.5c0.7-9.2,2.3-18.6,6.2-27.4c2-4.4,4.5-8.5,7.5-12.2c3-3.7,6.5-7,10.2-9.8 c3.7-2.9,7.6-5.4,11.5-7.8c2-1.2,3.8-2.3,6.1-3.5c2.2-1.1,4.6-2,7-2.5c4.9-1.2,10.2-0.8,14.9,1c4.7,1.8,8.7,4.7,12.1,8.1 c3.4,3.4,6.2,7.3,8.5,11.4c1.2,2,2.2,4.2,3.1,6.3c0.9,2.2,1.7,4.2,2.6,6.2c1.8,4.1,3.8,8,5.8,12c2.1,4,4.2,8.1,6,12.3 c1.8,4.3,3.3,8.7,4.4,13.1c0.6,2.2,1.1,4.5,1.6,6.7c0.5,2.3,0.8,4.6,1,6.9c0.9,9.2,0.5,18.3,0,27.3c-0.5,9-1.2,18-1.5,27 c-0.1,4.5-0.1,9,0.2,13.4c0.3,4.4,0.9,8.9,1.7,13.3c3.1,17.6,9.2,34.8,11.3,52.9c0.3,2.2,0.5,4.5,0.7,6.8 c0.1,2.3,0.3,4.5,0.4,6.8c0.2,4.5,0.4,9,0.8,13.5c0.7,9,1.8,17.9,3.3,26.8c1.6,8.9,3.7,17.6,6.6,26.2c2.9,8.5,6.7,16.8,11.8,24.2 c-5.2-7.4-9.1-15.6-12.2-24.1c-3.1-8.5-5.3-17.3-7.1-26.2c-1.7-8.9-2.9-17.8-3.8-26.8c-0.4-4.5-0.8-9-1-13.5 c-0.1-2.3-0.3-4.5-0.5-6.7c-0.2-2.2-0.4-4.5-0.8-6.7c-2.4-17.8-8.8-34.8-12.2-52.7c-0.9-4.5-1.6-9-1.9-13.5 c-0.4-4.6-0.5-9.1-0.4-13.7c0.1-9.1,0.6-18.1,1-27.1c0.4-9,0.6-18-0.4-26.7c-0.3-2.2-0.6-4.4-1-6.5c-0.5-2.1-1-4.3-1.6-6.4 c-1.2-4.3-2.7-8.4-4.4-12.4c-1.8-4-3.9-7.9-6-11.9c-2.2-4-4.3-8-6.2-12.2c-0.9-2.1-1.8-4.3-2.7-6.2c-0.9-2-1.9-3.9-3-5.8 c-2.2-3.7-4.8-7.2-7.8-10.1c-3-2.9-6.5-5.4-10.3-6.7c-3.8-1.4-7.8-1.6-11.7-0.6c-1.9,0.5-3.8,1.2-5.6,2.2 c-1.7,0.9-3.7,2.2-5.6,3.4c-3.8,2.4-7.4,4.8-10.8,7.5c-6.8,5.4-12.3,12-15.6,19.8c-3.4,7.8-4.8,16.5-5.3,25.2l0,0 c-0.1,1.9-1.7,3.3-3.6,3.2C590.1,294.1,588.7,292.4,588.8,290.5C588.8,290.5,588.8,290.5,588.8,290.5z"/></g><g id="change2_6"><path fill="#0476fc" d="M637.2,272.5l-1.8-1c1.5-2.8,2.7-4.7,6.1-6.3l0.5-0.2c2.7-1.3,5.3-2.5,6.5-5.3l1.9,0.8 c-1.6,3.5-4.6,4.9-7.5,6.3l-0.5,0.2C639.7,268.4,638.7,269.9,637.2,272.5z"/></g><g id="change2_29"><path fill="#0476fc" d="M654.2,333.9l-2.1-0.1c0.1-4.1,2.9-8.3,5-11.4l0.4-0.6c1.1-1.7,1.3-2.6,1.5-3.9c0.1-0.7,0.3-1.6,0.6-2.6 l2,0.6c-0.3,1-0.4,1.7-0.6,2.4c-0.2,1.3-0.5,2.6-1.8,4.7l-0.4,0.6C657,326.3,654.3,330.5,654.2,333.9z"/></g><g id="change2_9"><path fill="#0476fc" d="M658.4,347.9l-1.9-0.9c1-2,2-3.3,3.2-4.8c0.4-0.5,0.8-1,1.2-1.5c1.6-2.1,2.5-5,2.5-7.8l2.1,0 c0.1,3.3-1,6.7-2.9,9.1c-0.4,0.6-0.9,1.1-1.2,1.6C660.2,345,659.3,346.1,658.4,347.9z"/></g><g id="change2_58"><path fill="#0476fc" d="M597.5,475.2c-0.4-31.7-1.8-63.8-3.3-95c-0.7-15.6-1.5-31.7-2.1-47.6l6.9-0.3c0.6,15.9,1.3,32,2.1,47.6 c1.4,31.2,2.9,63.4,3.3,95.2L597.5,475.2z"/></g><g id="change2_24"><path fill="#0476fc" d="M603.6,469c2,3.5,4.2,6.7,6.7,9.9c2.5,3.2,5.2,6.5,7.6,10.1c1.2,1.8,2.4,3.6,3.4,5.5c1.1,1.9,2.1,3.9,3,5.9 c1.8,4,3,8.2,4.2,12.2c1.1,4,2.2,7.9,3.6,11.7c0.7,1.9,1.4,3.8,2.2,5.7l1.2,2.8l1.3,2.4c1,1.4,2,2.8,3.3,3.7 c0.7,0.5,1.4,0.9,2.3,1.4c0.9,0.5,2,1,3.1,1.9c0.5,0.4,1.1,1,1.6,1.5c0.5,0.5,0.9,1.2,1.3,1.8c0.4,0.6,0.6,1.2,0.9,1.9 c0.1,0.3,0.3,0.6,0.3,0.9l0.2,0.9l0.4,1.8l0.2,1.7l0.2,1.7l0,1.6c0.1,4.4-0.3,8.6-0.6,12.8c-0.2,2.1-0.5,4.2-0.8,6.3 c-0.3,2.1-0.7,4.2-1,6.3c-1.5,8.3-3.4,16.4-5.4,24.5c-4,16.2-8.3,32.2-10.9,48.4c-1.2,8.1-2,16.3-1.6,24.3 c0.4,8.1,1.7,16.2,3.5,24.2c3.7,16,10.3,31.2,16.5,46.6c1.6,3.9,3.1,7.8,4.6,11.7c0.7,2,1.4,3.9,2.1,5.9l1,3l0.5,1.5l0.4,1.5 c2.2,8.2,3.1,16.8,3.1,25.2c-0.1,17-3.6,33.4-5,49.8l-0.1-0.6c0.6,2.4,1.3,4.8,2,7.1c0.7,2.4,1.5,4.8,1.9,7.5 c0.4,2.7,0.2,5.4-0.1,8c-0.3,2.6-0.8,5-1.3,7.5c-0.2,1.2-0.5,2.5-0.8,3.7c-0.3,1.3-0.6,2.5-0.9,3.7c-0.7,2.5-1.7,5-3,7.3 c-1.3,2.3-2.6,4.2-3.5,6.4c-1,2.2-1.6,4.5-2.2,6.9c-1.2,4.8-1.9,9.7-2.6,14.6c-0.7,4.9-1.2,9.9-1.8,14.8 c-1.1,9.9-2,19.9-2.6,29.8c-1.3,19.9-1.8,39.9-0.5,59.8c0.7,9.9,1.9,19.8,4.3,29.4c1.2,4.8,2.8,9.5,5,13.9 c2.2,4.3,5.2,8.4,9.3,10.9l-0.9,1.5c-4.5-2.7-7.7-7.1-10-11.5c-2.3-4.5-4-9.4-5.3-14.2c-2.6-9.8-3.8-19.8-4.6-29.8 c-1.5-20-1.1-40.1,0-60.1c0.6-10,1.4-20,2.4-29.9c0.5-5,1.1-10,1.7-14.9c0.6-5,1.3-10,2.5-14.9c0.6-2.5,1.3-5,2.3-7.4 c1-2.4,2.5-4.7,3.6-6.7c2.4-4.1,3.3-8.8,4.2-13.7c0.4-2.4,0.9-4.9,1.2-7.3c0.3-2.4,0.4-4.7,0-7c-0.4-2.2-1.2-4.6-1.9-7 c-0.7-2.4-1.5-4.8-2.1-7.3l-0.1-0.3l0-0.3c1.3-16.7,4.6-33.1,4.6-49.5c0-8.2-1-16.3-3.1-24.1l-0.4-1.5l-0.5-1.4l-0.9-2.9 c-0.6-1.9-1.4-3.9-2.1-5.8c-1.5-3.9-3-7.7-4.6-11.5c-3.2-7.7-6.5-15.3-9.5-23.1c-3-7.8-5.7-15.8-7.7-24c-2-8.2-3.4-16.6-3.8-25.1 c-0.5-8.5,0.3-17,1.4-25.4c2.5-16.7,6.7-32.9,10.6-49c1.9-8.1,3.7-16.1,5.1-24.2c0.3-2,0.7-4,0.9-6.1c0.2-2,0.5-4,0.7-6.1 c0.3-4.1,0.7-8.2,0.5-12.1l0-1.5l-0.2-1.4l-0.2-1.4l-0.3-1.2l-0.1-0.6c0-0.2-0.1-0.3-0.2-0.5c-0.2-0.3-0.2-0.7-0.4-1 c-0.2-0.2-0.3-0.5-0.5-0.8c-0.3-0.2-0.4-0.4-0.7-0.6c-1.1-0.8-3.3-1.7-5.3-3.1c-2.1-1.4-3.7-3.5-5-5.5l-1.6-3.1l-1.3-2.9 c-0.8-2-1.6-4-2.3-6c-1.4-4-2.6-8.1-3.8-12.1c-1.2-4-2.3-7.8-4-11.3c-0.8-1.8-1.7-3.5-2.7-5.2c-1-1.7-2.1-3.4-3.2-5.1 c-2.3-3.3-4.8-6.4-7.5-9.7c-2.6-3.3-5.2-6.9-7.4-10.6L603.6,469z"/></g><g id="change2_69"><path fill="#0476fc" d="M658,1117.4c-0.1,0-0.2,0-0.3,0c-3.5-0.1-7.2-3.3-11.7-9.8c-15.5-22.6-14.7-28.3-11.7-49.7 c0.8-5.3,1.6-11.4,2.4-19c4.2-40.5,8.4-118.8-2.9-155.8c-6.5-21.4-7.1-40.8-7.7-59.6c-0.4-14.3-0.8-27.8-4-40.5 c-5.9-23.8-4.4-40-2.9-57.1c0.4-3.9,0.7-8,1-12.1c0.7-11.3,2.2-15.4,3.6-19.3c1.3-3.6,2.5-7,3-16.2l2.1,0.1 c-0.5,9.4-1.8,13-3.1,16.7c-1.3,3.8-2.7,7.8-3.5,18.8c-0.3,4.2-0.6,8.2-1,12.2c-1.5,16.9-3,32.9,2.8,56.4 c3.2,12.9,3.6,26.6,4.1,41c0.6,18.6,1.1,37.9,7.6,59c11.4,37.3,7.2,116,2.9,156.6c-0.8,7.7-1.7,13.7-2.4,19.1 c-3,21.3-3.7,26.4,11.3,48.3c4,5.8,7.4,8.8,10.1,9c2.5,0.1,4.5-2.3,6.6-4.8c2.3-2.8,4.6-5.6,8-5.6c3,0.1,6,2.3,9.7,7.1l-1.6,1.3 c-3.1-4.1-5.9-6.2-8.1-6.3c0,0,0,0-0.1,0c-2.4,0-4.3,2.3-6.3,4.8C663.8,1114.6,661.4,1117.4,658,1117.4z"/></g><g id="change2_33"><path fill="#0476fc" d="M680.2,1104c-4.3-5.5-6.9-8.5-9.7-11.6c-3.1-3.4-6.3-7-11.7-14.1c-11-14.4-12.5-44.9-10-61.9 c1.9-13.5-1.2-25.7-4.6-38.7c-1.1-4.2-2.2-8.5-3.1-12.8l2-0.4c0.9,4.3,2,8.6,3.1,12.7c3.3,12.6,6.6,25.6,4.6,39.5 c-2.8,19.3,0.1,47.9,9.6,60.4c5.4,7,8.5,10.6,11.6,14c2.7,3,5.5,6.2,9.8,11.7L680.2,1104z"/></g><g id="change2_39"><path fill="#0476fc" d="M674.3,1096.9c-4.5-3.2-9.7-4.3-15.2-5.4c-4.3-0.9-8.7-1.9-12.7-3.9c-7.7-3.9-9.7-11.5-11.6-18.8 c-0.4-1.5-0.8-3-1.2-4.4l2-0.6c0.4,1.5,0.8,3,1.2,4.5c1.9,7.2,3.7,14,10.5,17.5c3.8,1.9,7.9,2.8,12.2,3.7 c5.5,1.2,11.1,2.4,15.9,5.8L674.3,1096.9z"/></g><g id="change2_22"><path fill="#0476fc" d="M655.1,587c-4,0-7.9-0.7-11.8-2.1l0.7-1.9c12.8,4.8,23.9,0.3,31-4.3c8-5.2,11.3-12.3,10.7-22.9 c-0.5-7.7-1.6-12.6-3-18.8c-0.3-1.3-0.6-2.6-0.9-4l2-0.5c0.3,1.4,0.6,2.7,0.9,4c1.5,6.3,2.6,11.2,3.1,19.1 c0.7,11.3-3,19.1-11.6,24.7C669.4,584.8,662.2,587,655.1,587z"/></g><g id="change2_11"><path fill="#0476fc" d="M652.9,587.5l-0.9-1.9c6.8-3.2,18.1-8.6,22.8-16.2c2.6-4.2,2.2-7.6,1.8-11.4c-0.3-2.7-0.6-5.5,0.1-8.8l2,0.4 c-0.6,2.9-0.3,5.6-0.1,8.1c0.4,3.9,0.9,7.9-2,12.8C671.9,578,661.9,583.2,652.9,587.5z"/></g><g id="change2_47"><path fill="#0476fc" d="M681.3,583.5c-2.2,0-4.6-0.4-7.3-1.1l0.5-2c7.2,1.8,11.8,1.7,16.9-4.1l1.5,1.4 C689.1,581.9,685.5,583.5,681.3,583.5z"/></g><g id="change2_25"><path fill="#0476fc" d="M652.5,743.6l-2-0.4c4-21.2,8.1-49.2,5.1-78c-0.9-8.4-1.9-16.9-2.8-25.2c-2-17.7-4.1-36-5.4-54.1l2.1-0.2 c1.3,18,3.4,36.3,5.4,54c0.9,8.3,1.9,16.8,2.8,25.2C660.6,694.1,656.5,722.3,652.5,743.6z"/></g><g id="change2_34"><path fill="#0476fc" d="M674.4,740.8l-1.9-0.7c4.4-11.8,5.5-18.4,7.4-30.3c0.3-1.6,0.5-3.3,0.8-5.1c2.5-15.1-3.7-77.5-13.3-87.2 c-5.3-5.4-8-7.4-10.9-9.7c-2.4-1.9-5-3.8-9.1-7.8l1.4-1.5c4.1,3.9,6.5,5.8,8.9,7.6c2.8,2.2,5.7,4.4,11.1,9.8 c10.6,10.7,16.2,74.5,13.8,89c-0.3,1.8-0.6,3.5-0.8,5.1C679.9,722.2,678.8,728.8,674.4,740.8z"/></g><g id="change2_68"><path fill="#0476fc" d="M557.1,369.1l-0.9-1.8c6.7-3.4,16-6.8,23.3-8.4l3-0.6c5.3-1.1,9.1-1.9,14.4-3.7l0.7,2 c-5.4,1.8-9.3,2.6-14.6,3.8l-3,0.6C572.8,362.4,563.7,365.7,557.1,369.1z"/></g><g id="change2_12"><path fill="#0476fc" d="M570.8,383l-2-0.3c1.3-8.3,4.4-15.6,9.8-23.5l1.7,1.2C575,367.9,572.1,374.9,570.8,383z"/></g><g id="change2_10"><path fill="#0476fc" d="M548.5,396.6c-0.7,0-1.4-0.1-2.1-0.5c-1.3-0.7-2.1-2.1-2.5-4.2l-0.1-0.5l0.3-0.4c13-14.6,34.4-6.8,50.1-1.1 c1.7,0.6,3.3,1.2,4.9,1.8l-0.7,1.9c-1.6-0.5-3.2-1.1-4.9-1.8c-15.8-5.8-35.4-12.9-47.5,0.1c0.2,1.1,0.7,1.9,1.3,2.2 c1,0.5,2.6,0.2,5-0.9c2.1-1,3.9-2,5.8-3.2c1.4-0.8,2.8-1.6,4.2-2.4l1,1.8c-1.4,0.8-2.8,1.6-4.2,2.4c-1.9,1.1-3.8,2.3-6,3.3 C551.9,395.9,550.2,396.6,548.5,396.6z"/></g><g id="change2_14"><path fill="#0476fc" d="M590,414.4c-4.1,0-8.3-0.6-11.4-2c-2.3-1-4.1-2.6-5.8-4.1c-2.4-2.2-4.5-4-7.4-3.6c-1.6,0.3-3.6,1.2-5.7,2.1 c-4.6,2.1-10.3,4.8-13.2-0.5c-1.1-2-1.3-3.7-0.8-5.2c0.9-2.6,3.8-4,6.5-5.2c0.9-0.4,1.7-0.8,2.5-1.2l1,1.8 c-0.8,0.5-1.7,0.9-2.6,1.3c-2.4,1.1-4.8,2.2-5.4,4c-0.3,1-0.1,2.1,0.7,3.6c1.8,3.4,5.2,2.1,10.5-0.4c2.2-1,4.3-2,6.2-2.3 c3.9-0.6,6.6,1.8,9.2,4.1c1.6,1.4,3.2,2.9,5.2,3.8c5.4,2.4,14.1,2.2,19.9,0.7l0.5,2C596.9,413.9,593.5,414.4,590,414.4z"/></g><g id="change2_26"><path fill="#0476fc" d="M572.4,406.8l-1.5-1.4c3.3-3.5,4.9-6.7,5.5-10.9l2,0.3C577.7,399.4,575.9,403,572.4,406.8z"/></g><g id="change2_15"><path fill="#0476fc" d="M577.5,400.3l-1.4-1.5c1.7-1.5,3.5-3,5.3-4.4l1.3,1.6C580.9,397.4,579.1,398.8,577.5,400.3z"/></g><g id="change2_60"><path fill="#0476fc" d="M607.6,533.1l-1.3-1.6c3.2-2.7,6.2-4,9.9-5.6l0.4-0.2c3.8-1.7,6.8-4.3,8.9-7.6l1.8,1.1 c-2.3,3.7-5.6,6.5-9.8,8.4l-0.4,0.2C613.4,529.4,610.6,530.7,607.6,533.1z"/></g><g id="change2_3"><path fill="#0476fc" d="M604,474.6c-2,3.4-3.8,6.9-5.3,10.4c-1.5,3.5-2.7,7.3-4,11.2c-1.4,3.8-2.7,7.6-4.2,11.4 c-1.5,3.8-3.1,7.6-4.9,11.3c-1.8,3.7-3.6,7.3-5.5,10.9l-1.4,2.7l-0.8,1.5l-1,1.4c-1.3,1.9-3.1,3.7-5.1,5c-2,1.3-4.2,2.1-5.5,2.9 c-1.3,0.8-2,1.5-2.6,2.9c-0.6,1.4-0.9,3.2-1,5c-0.2,1.8-0.2,3.8-0.2,5.7c0.2,15.7,3.9,31.3,7.7,46.9c3.8,15.6,8,31.3,10.1,47.5 c1,8.1,1.4,16.4,0.5,24.7c-0.9,8.1-2.5,16.2-4.7,24.1c-2.2,7.9-5.1,15.5-8.2,23c-3.1,7.5-6.5,14.8-9.5,22.2 c-1.6,3.7-3,7.4-4.4,11.1c-1.4,3.7-2.6,7.4-3.5,11.3c-1.8,7.7-2.6,15.6-2.6,23.5c-0.1,15.9,2.5,31.8,3.7,48l0,0.3l-0.1,0.3 c-0.7,2.5-1.3,4.9-2.1,7.4c-0.7,2.4-1.6,4.9-2.2,7.2c-0.7,2.3-0.9,4.6-0.9,7.1c0,2.5,0.1,5,0.2,7.5c0.3,5,0.4,10.1,1.5,14.8 c0.3,1.2,0.7,2.2,1.2,3.3c0.5,1,1.2,2.1,1.8,3.4c1.2,2.5,1.7,5.2,2.1,7.7c1.5,10.3,1,20.4,1.5,30.5l1.4,30.4 c0.8,20.3,1.3,40.6,0.1,60.9c-0.6,10.1-1.7,20.3-3.7,30.3c-2,10-4.8,19.9-9.8,28.9l-1.2-0.7c4.8-8.8,7.5-18.6,9.4-28.5 c1.9-9.9,2.8-20,3.4-30.1c1.1-20.2,0.4-40.4-0.6-60.7l-1.6-30.4c-0.6-10.1-0.2-20.4-1.7-30.2c-0.4-2.4-0.9-4.8-1.9-6.9 c-0.5-1-1.2-2.1-1.8-3.3c-0.6-1.2-1.1-2.6-1.4-3.9c-1.3-5.2-1.3-10.3-1.7-15.4c-0.1-2.5-0.3-5.1-0.3-7.7c0-2.6,0.2-5.4,1-7.9 c0.7-2.6,1.5-4.9,2.2-7.3c0.7-2.4,1.4-4.8,2-7.3l0,0.6c-1.3-15.9-4.1-31.9-4.2-48.2c0-8.2,0.7-16.4,2.5-24.4 c0.9-4,2.1-8,3.5-11.8c1.4-3.8,2.9-7.6,4.4-11.3c3.1-7.5,6.3-14.8,9.4-22.2c3-7.4,5.7-14.9,7.8-22.5c2.1-7.6,3.6-15.4,4.3-23.3 c0.8-7.8,0.3-15.6-0.7-23.5c-2.1-15.7-6.4-31.2-10.4-46.8c-2-7.8-3.9-15.7-5.5-23.7c-1.6-8-2.6-16.2-2.8-24.5 c0-2.1,0-4.2,0.2-6.3c0.2-2.2,0.5-4.4,1.4-6.8c0.4-1.2,1.1-2.4,2-3.5c0.9-1.1,2.1-1.9,3.1-2.5c2.2-1.2,3.8-1.8,5.1-2.7 c1.3-0.9,2.4-2,3.4-3.4l0.7-1.1l0.6-1.2l1.4-2.7c1.8-3.6,3.6-7.1,5.3-10.7c3.4-7.1,6-14.6,8.6-22.2c1.3-3.7,2.4-7.7,4.1-11.6 c1.6-3.9,3.5-7.6,5.5-11.2L604,474.6z"/></g><g id="change2_56"><path fill="#0476fc" d="M527.9,1117.1l-1.8-1.1c2.8-4.5,5.6-7,8.6-7.6c3.6-0.7,6.6,1.4,9.6,3.5c2.6,1.9,5.1,3.6,7.5,2.9 c2.6-0.7,5.2-4.1,8-10.3c8.7-19.5,5.7-27.5,0.1-42c-2.5-6.5-5.6-14.7-8.2-25.7c-8.6-36.5,1.9-127.8,15.5-162.2 c7.9-20.1,8.8-40.7,9.7-60.7c0.6-14.7,1.2-28.5,4.6-40.9c6.2-22.5,4.8-37.8,3.3-53.9c-0.4-4.4-0.8-8.9-1.1-13.6 c-0.6-10.8-2-14.6-3.4-18.2c-1.4-3.6-2.7-7-3.1-16.3l2.1-0.1c0.4,8.9,1.6,12.2,2.9,15.6c1.5,3.8,3,7.7,3.6,18.9 c0.2,4.6,0.7,9.2,1.1,13.5c1.5,16.4,2.9,31.8-3.4,54.7c-3.4,12.2-3.9,25.9-4.5,40.5c-0.9,20.1-1.7,40.9-9.8,61.3 c-13.2,33.4-23.8,125.5-15.4,161c2.6,10.9,5.7,19,8.2,25.5c5.6,14.5,8.9,23.2-0.2,43.5c-3.1,6.9-6.1,10.6-9.4,11.4 c-3.4,0.9-6.4-1.2-9.2-3.2c-2.7-1.9-5.2-3.7-8-3.2C532.8,1110.9,530.5,1113.1,527.9,1117.1z"/></g><g id="change2_7"><path fill="#0476fc" d="M528.1,1108.6l-1.9-0.7c2.5-6.5,4.6-9.6,6.7-12.7c2.5-3.6,4.9-7,7.7-16c4.1-13.2,2.1-35.3,0.4-53 c-0.4-4.6-0.8-9-1.1-12.9c-1.4-19.7,4.1-36,10-53.2l2,0.7c-5.8,17-11.2,33.1-9.9,52.4c0.3,3.9,0.7,8.3,1.1,12.9 c1.7,17.9,3.7,40.2-0.5,53.8c-2.9,9.3-5.5,13-7.9,16.6C532.6,1099.3,530.5,1102.3,528.1,1108.6z"/></g><g id="change2_5"><path fill="#0476fc" d="M531.9,1100.4l-1.5-1.4c3.6-3.6,8.2-5.7,12.8-7.7c4.4-2,8.6-3.8,11.8-7c5.5-5.4,5-12.9,4.5-20.1 c-0.1-1.2-0.2-2.4-0.2-3.6l2.1-0.1c0.1,1.2,0.1,2.3,0.2,3.5c0.5,7.7,1.1,15.6-5.1,21.7c-3.5,3.4-8,5.5-12.4,7.4 C539.7,1095.1,535.2,1097.1,531.9,1100.4z"/></g><g id="change2_19"><path fill="#0476fc" d="M551.4,583.4c-7.1,0-14.3-2.2-21-6.5c-8.6-5.5-12.3-13.3-11.6-24.4c0.5-7.9,1.7-12.8,3.1-19.1 c0.3-1.2,0.6-2.5,0.9-3.8l2,0.5c-0.3,1.4-0.6,2.6-0.9,3.9c-1.5,6.4-2.6,11.1-3.1,18.7c-0.7,10.5,2.6,17.4,10.6,22.6 c7,4.5,18.1,8.9,31,4.2l0.7,1.9C559.3,582.7,555.4,583.4,551.4,583.4z"/></g><g id="change2_70"><path fill="#0476fc" d="M553.6,583.8c-8.9-4.2-18.9-9.2-23.6-16.7c-3-4.8-2.5-8.8-2.1-12.7c0.3-2.5,0.6-5.2,0-8.1l2-0.4 c0.7,3.2,0.4,6,0.1,8.8c-0.5,3.9-0.8,7.2,1.8,11.3c4.4,7,14.1,11.9,22.7,16L553.6,583.8z"/></g><g id="change2_37"><path fill="#0476fc" d="M525.2,580c-4.2,0-7.8-1.5-11.6-5.7l1.5-1.4c5.2,5.8,9.7,5.9,16.9,4l0.5,2C529.9,579.6,527.5,580,525.2,580z"/></g><g id="change2_20"><path fill="#0476fc" d="M554,733.5c-4.3-21.7-8.3-47.5-5.2-74.8c0.8-7.1,1.7-14.2,2.5-21.3c2.2-18.2,4.4-36.9,5.8-55.3l2.1,0.2 c-1.4,18.4-3.6,37.2-5.8,55.4c-0.9,7.1-1.7,14.2-2.5,21.3c-3.1,27,0.9,52.7,5.2,74.2L554,733.5z"/></g><g id="change2_13"><path fill="#0476fc" d="M531.4,732.9c-4.4-12-5.4-18.6-7.3-30.7l-0.7-4.5c-2.2-13.9,3.9-75.6,14.3-86c5.3-5.3,8.2-7.4,11-9.5 c2.5-1.9,4.9-3.6,8.9-7.5l1.4,1.5c-4.1,4-6.7,5.9-9.1,7.7c-2.7,2-5.6,4.1-10.8,9.3c-9.4,9.4-16,69.7-13.7,84.3l0.7,4.5 c1.8,11.9,2.9,18.5,7.2,30.3L531.4,732.9z"/></g><g id="change2_36"><path fill="#0476fc" d="M602,528.2c-3.1-2.3-5.8-3.3-9.6-4.5l-0.2-0.1c-4.3-1.5-7.4-4.1-9.6-7.9l1.8-1c1.9,3.4,4.7,5.7,8.5,7 l0.2,0.1c3.8,1.3,6.8,2.3,10.2,4.9L602,528.2z"/></g><g id="change2_48"><path fill="#0476fc" d="M612.5,536.4l-2.1,0c0-3.4,0.9-6.2,3-9.3l1.7,1.2C613.4,531,612.6,533.4,612.5,536.4z"/></g><g id="change2_27"><path fill="#0476fc" d="M573.5,638.4c-0.9-10.3-1.2-22.4-1.4-34.2c-0.2-10.3-0.4-20.1-1-28.4c-0.9-11.6-0.8-17.8-0.6-24.9 c0.1-3.9,0.2-8.3,0.1-14.1l2.1,0c0.1,5.9,0,10.3-0.1,14.2c-0.1,7.4-0.2,13.2,0.6,24.7c0.6,8.4,0.8,18.1,1,28.5 c0.2,11.7,0.5,23.8,1.4,34.1L573.5,638.4z"/></g><g id="change2_62"><path fill="#0476fc" d="M632.9,643.6l-2.1-0.2c0.9-9.8,1.1-21.4,1.4-32.5c0.3-11.5,0.5-22.3,1.3-31.5c1-11.3,1.1-17.4,1.1-24.4 c0-4.2,0.1-9,0.4-15.5l2.1,0.1c-0.3,6.4-0.3,11-0.4,15.4c-0.1,7-0.1,13.1-1.2,24.5c-0.8,9.1-1.1,19.9-1.3,31.3 C634.1,622.2,633.8,633.8,632.9,643.6z"/></g><g id="change2_44"><path fill="#0476fc" d="M749.8,648.2l-2.1-0.1c0.1-4,0.7-6.7,1.3-9.3c0.6-2.9,1.3-5.6,1.3-10.2c0-3.8,0.5-6.1,1-8.5 c0.7-3.3,1.4-6.7,0.9-14.7c-0.7-13.2-14.3-50.2-25.9-62l1.5-1.4c11.9,12.1,25.8,49.9,26.5,63.3c0.4,8.3-0.3,11.8-1,15.3 c-0.5,2.3-0.9,4.5-1,8.1c0,4.8-0.7,7.8-1.3,10.6C750.5,641.9,749.9,644.4,749.8,648.2z"/></g><g id="change2_64"><path fill="#0476fc" d="M486.2,274.6l-1.6-1.3c4.6-6,12.9-9.3,24.8-10c6.4-0.4,10-0.7,15.1-1.2l3.7-0.4l0.2,2.1l-3.7,0.4 c-5.1,0.5-8.8,0.9-15.2,1.2C498.2,266.1,490.4,269.2,486.2,274.6z"/></g><g id="change2_17"><path fill="#0476fc" d="M499,266.9c-2.4,0-4.2-1.3-5.9-2.6l-0.7-0.5l1.2-1.7l0.7,0.5c1.6,1.2,3,2.3,4.8,2.2l0.1,2.1 C499.1,266.9,499.1,266.9,499,266.9z"/></g><g id="change2_1"><path fill="#0476fc" d="M710.8,261.2c-4.5-5.1-11.9-7.4-22.4-7c-6.8,0.2-10.5-1-15.5-2.7c-0.9-0.3-1.8-0.6-2.9-1l0.6-2 c1,0.3,2,0.7,2.9,1c5,1.7,8.3,2.8,14.7,2.6c11.2-0.4,19.1,2.1,24,7.7L710.8,261.2z"/></g><g id="change2_2"><path fill="#0476fc" d="M697.7,254.7l0-2.1c2.1,0,4.5-1.6,6.1-2.6l1.1,1.8C703.1,252.9,700.4,254.6,697.7,254.7z"/></g><g id="change3_27"><path fill="#cd4f42" d="M491.8,415.3l-3.2-1.4c1.5-3.4,2.8-6.4,4.2-9.3c4-8.8,7.5-16.4,10.7-27.9c3.9-13.8,4.4-30.8,4.6-48.5 c0-0.3,0-0.7,0-1.2c0.1-1.3,0.1-3.2,0.1-5.1c-0.1-2.5-0.1-5.2-0.1-7.9c-0.1-8.8-0.3-18.8-1.1-27.4l-0.1-0.6l0.3-0.5 c8-12.4,14.7-22,29-32.1c6.8-4.8,23.9-16.2,36.3-18.7c9.8-2,19.5,11,21.3,13.7c7.2,10.3,8.6,18,10.3,27.7 c0.4,2.1,0.8,4.3,1.3,6.7l-3.4,0.7c-0.5-2.4-0.9-4.6-1.3-6.7c-1.8-9.7-3-16.6-9.8-26.4c-3.6-5.2-11.4-13.6-17.8-12.3 c-12,2.5-29.8,14.5-35,18.2c-13.6,9.6-20.2,18.7-27.8,30.6c0.8,8.6,1,18.4,1.1,27.1c0,2.7,0.1,5.4,0.1,7.9c0,2,0,4-0.1,5.3 c0,0.5,0,0.9,0,1.1c-0.2,17.9-0.7,35.1-4.7,49.3c-3.3,11.7-6.8,19.4-10.8,28.4C494.6,408.9,493.3,411.9,491.8,415.3z"/></g><g id="change3_97"><path fill="#cd4f42" d="M443.2,621.9c-1,0-2-0.1-3.2-0.4c-3.6-0.9-6.3-3-7.8-6.1c-1.8-3.6-1.8-8.3,0-12.8c0.4-1,0.9-2.2,1.4-3.3 c2.9-7,6.5-15.7,6.5-21.5c0-6.9,0.1-8.2,0.4-15.1c3-57,7.2-115.4,17.7-156.4c4-15.7,5.3-16.6,6.7-17.6c0.3-0.2,0.6-0.4,0.9-1 c2.4-4.2,4.7-7.9,6.5-10.8c2.4-3.8,4.2-6.6,4.6-8.1l0.2-0.7c7.4-25.8,9.2-31.9,32.7-44l0.9,1.8c-22.7,11.7-24.2,17-31.6,42.7 l-0.2,0.7c-0.5,1.8-2.2,4.5-4.8,8.6c-1.8,2.9-4.1,6.5-6.5,10.7c-0.6,1-1.1,1.4-1.5,1.6c-0.9,0.6-2,1.4-5.8,16.4 c-10.4,40.8-14.6,99.1-17.6,156c-0.4,6.8-0.4,8-0.4,15c0,6.2-3.7,15.1-6.7,22.2c-0.5,1.2-0.9,2.3-1.4,3.3c-1.6,4-1.6,8-0.1,11.1 c1.3,2.5,3.5,4.2,6.5,5c7.3,1.9,10.5-4.2,13.6-10.2l1.8,0.9C453.3,615.5,450,621.9,443.2,621.9z"/></g><g id="change3_71"><path fill="#cd4f42" d="M455.2,613.3l-2-0.3c1.6-11.6,2.5-18.2,2.4-31c-0.2-23.4,9-50.1,17.2-73.7c3.1-8.9,6-17.3,8.2-25.1 c8.7-29.7,10.9-73.6,5-96c-3.4-12.9-3.3-15.4-3.1-18.4c0.1-2.3,0.3-4.9-1.6-13.9l2-0.4c1.9,9.3,1.8,12,1.6,14.5 c-0.2,2.8-0.3,5.2,3.1,17.7c6,22.6,3.8,67.1-5,97.1c-2.3,7.9-5.2,16.3-8.3,25.2c-8.1,23.4-17.2,50-17,73 C457.7,595,456.8,601.7,455.2,613.3z"/></g><g id="change3_82"><path fill="#cd4f42" d="M477,506.6l-2-0.4c3-16.7,1.3-34.1-5.4-54.7c-5.2-16.1-10.2-35.4-7.7-56.3l2,0.2 c-2.4,20.4,2.5,39.5,7.6,55.4C478.3,471.9,480,489.5,477,506.6z"/></g><g id="change3_3"><path fill="#cd4f42" d="M457.7,514.2c-6.9-21.5-6.6-44-5.7-65.1l2.1,0.1c-0.9,21-1.2,43.2,5.6,64.4L457.7,514.2z"/></g><g id="change3_78"><path fill="#cd4f42" d="M709.1,427.3c-1.2-2-2.3-3.3-3.3-4.7c-1.2-1.6-2.5-3.3-4.1-6c-19.3-32.7-15.7-74.6-12.5-111.6l0.5-5.6 c-5.1-18.1-23.7-74.7-52.9-67.2c-23.3,6-23.7,29.6-24,50.3c-0.1,4.9-0.2,9.6-0.5,14l-3.4-0.3c0.4-4.2,0.4-8.9,0.5-13.7 c0.3-20.9,0.8-46.9,26.6-53.6c31.5-8.1,50.4,46.2,57.1,69.9l0.1,0.3l-0.5,6.2c-3.2,36.5-6.7,77.8,12,109.6c1.5,2.5,2.6,4,3.9,5.6 c1.1,1.4,2.2,2.8,3.5,4.9L709.1,427.3z"/></g><g id="change3_11"><path fill="#cd4f42" d="M759,618.5c-2.4,0-5.8-1.4-10.2-7.1c-7.5-9.6-7.7-18.6-8-28.1c-0.2-6.8-0.4-13.9-3.3-21.7 c-10.2-27.4-17.1-49.6-20.7-65.9l2-0.4c3.5,16.2,10.4,38.2,20.6,65.6c3,8.2,3.2,15.4,3.4,22.4c0.2,9.2,0.5,17.8,7.5,26.8 c4,5.1,7.7,7.2,10.1,5.9c3.7-2,5.1-11.8,0.9-24.1c-5.1-14.8-6.8-33.1-8.5-52.4c-0.6-6.3-1.2-12.8-1.9-19.2 c-1.9-17-6.4-39.7-10.2-59.7c-1.9-10-3.8-19.5-5.2-27.7c-2.5-14.5-7-25.9-11.4-36.9c-3.1-7.8-6-15.1-8.2-23.4 c-4.4-16.3-11.1-23.9-20.4-34.5c-2.1-2.4-4.3-4.8-6.6-7.6l1.6-1.3c2.3,2.7,4.4,5.2,6.5,7.5c9.1,10.4,16.3,18.5,20.9,35.3 c2.2,8.2,5.1,15.4,8.1,23.1c4.4,11.1,9,22.6,11.5,37.4c1.4,8.1,3.3,17.6,5.2,27.6c3.9,20.1,8.3,42.8,10.3,59.9 c0.7,6.4,1.3,12.9,1.9,19.3c1.8,19.2,3.5,37.3,8.4,51.9c4.2,12.3,3.4,23.7-1.9,26.6C760.9,618.3,760.1,618.5,759,618.5z"/></g><g id="change3_75"><path fill="#cd4f42" d="M716.5,486.5c-6-14-7.7-29.2-8.7-43.6c-1-15,1.7-33.6,4.8-45.4c1.9-7,1.9-11.1,2-15.5 c0.1-3.2,0.1-6.5,0.9-11.3l2,0.3c-0.7,4.6-0.8,7.8-0.8,11c-0.1,4.5-0.2,8.7-2.1,15.9c-3.1,11.6-5.7,29.9-4.8,44.7 c0.9,14.1,2.6,29.1,8.5,42.9L716.5,486.5z"/></g><g id="change3_67"><path fill="#cd4f42" d="M720.8,512.3c-0.4-1.5-0.8-3.1-1.2-4.8c-1.4-5.5-3.1-11.7-3.1-16.6c0-6.7,2-11.2,4.1-16 c0.7-1.6,1.4-3.2,2.1-5c5.4-14.5,8.6-30.2,10.1-49.5l2.1,0.2c-1.5,19.4-4.7,35.3-10.2,50c-0.7,1.8-1.5,3.5-2.2,5.1 c-2.1,4.8-4,8.9-4,15.1c0,4.7,1.6,10.7,3,16.1c0.4,1.7,0.9,3.4,1.2,4.9L720.8,512.3z"/></g><g id="change3_56"><path fill="#cd4f42" d="M612.2,336c0.2,11.7-0.1,23.3-0.4,34.9c-0.3,11.6-0.8,23.2-1.3,34.7c-0.5,11.5-0.7,23-0.3,34.4 c0.4,11.4,1.5,22.8,3.2,34.1L613,473c3.5,5.8,7.2,11.6,10.5,17.8c3.3,6.2,5.8,13,7.5,19.8c1.8,6.9,2.5,13.8,3.5,20.5 c0.9,6.7,2,13.4,3.7,19.8c0.4,1.6,0.9,3.2,1.4,4.7c0.6,1.5,1.1,3.1,1.8,4.5c1.3,3,3,5.6,5,8l1.6,1.7c0.5,0.6,1.2,1.1,1.8,1.7 c1.2,1.1,2.5,2.2,3.8,3.4c2.5,2.2,5.2,4.4,7.7,7.1c2.5,2.7,4.5,6.3,5.5,9.9c1,3.6,1.4,7.1,1.6,10.6c0.5,7,0.4,13.9,0.2,20.7 c-0.2,6.9-0.7,13.7-0.8,20.4c-0.1,3.4-0.1,6.8,0,10.1c0,1.7,0.1,3.4,0.3,5l0.4,5.1c1,13.6,1.6,27.4,1.3,41.1 c-0.3,6.8-0.3,13.6,0.2,20.4c0.5,6.8,1.4,13.5,2.4,20.3c2.1,13.5,3.2,27.2,3.5,40.9l-0.7,0c-0.6-13.6-2-27.2-4.5-40.6 c-1.2-6.7-2.3-13.5-2.9-20.3c-0.7-6.8-0.8-13.8-0.7-20.6c0-13.6-1-27.2-2.2-40.8l-0.5-5.1c-0.1-1.7-0.3-3.5-0.4-5.2 c-0.2-3.5-0.2-6.9-0.2-10.3c0-6.9,0.3-13.7,0.5-20.5c0.1-6.8,0.1-13.6-0.5-20.2c-0.3-3.3-0.8-6.6-1.6-9.6c-0.9-3-2.3-5.5-4.5-7.8 c-2.2-2.3-4.8-4.4-7.4-6.6c-1.3-1.1-2.6-2.2-3.9-3.4c-0.7-0.6-1.3-1.1-2-1.7l-2-2c-2.4-2.8-4.5-5.9-6-9.2c-0.8-1.6-1.4-3.3-2.1-5 c-0.6-1.7-1.1-3.4-1.6-5.1c-1.9-6.8-3-13.7-4.1-20.4c-1.1-6.8-1.9-13.5-3.6-19.8c-1.7-6.4-4.1-12.5-7.2-18.4 c-3.1-5.8-6.9-11.5-10.5-17.3l-0.3-0.5l-0.1-0.7c-1.9-11.5-3.1-23.2-3.8-34.8c-0.6-11.7-0.7-23.4-0.4-35 c0.5-23.1,1.1-46.2,0.3-69.1L612.2,336z"/></g><g id="change3_61"><path fill="#cd4f42" d="M680.4,1122.1c-1.9-2.5-2-2.7-2.8-4.6c-0.1-0.4-0.3-0.8-0.5-1.4c-4-10-9.1-9.4-16.7-8.6 c-3.2,0.4-6.8,0.8-10.6,0.3c-9.3-1.2-9.8-7.6-10.2-12.7c-0.2-2.7-0.4-5.2-1.6-7.1l-0.3-0.4l0-0.5c0.6-10.1,2.4-12.4,4.3-14.1 c0.9-0.8,1.7-1.4-2.3-18.7c-6.3-27.5-0.7-72.8,3.4-105.8c0.8-6.2,1.5-12,2-17.1c3.4-31.3,2.9-47,1.6-74.2 c-0.6-12.8,0.7-24.9,1.9-36.6c1.4-13.2,2.7-25.6,1.6-38.9c-1.6-18.3-8.5-33.6-15.9-49.8c-2.8-6.2-5.7-12.5-8.3-19.2 c-11.4-28.8,3.2-70.3,7.9-82.3c5.5-14,7.8-24.9,10.2-36.4c1.3-6.4,2.7-13,4.7-20.5l3.3,0.9c-2,7.5-3.4,14-4.7,20.4 c-2.4,11.7-4.8,22.7-10.4,37c-4.6,11.7-18.9,52.1-7.9,79.8c2.6,6.6,5.5,12.9,8.3,19c7.5,16.5,14.5,32,16.2,50.9 c1.2,13.6-0.2,26.8-1.6,39.6c-1.2,11.6-2.5,23.6-1.9,36.1c1.3,27.4,1.9,43.2-1.6,74.8c-0.6,5.1-1.3,10.9-2,17.1 c-4,32.8-9.6,77.8-3.4,104.7c4.2,18.6,3.7,20,1.1,22.1c-1,0.8-2.5,2.1-3.1,11.1c1.3,2.5,1.6,5.4,1.8,8.1c0.4,5.1,0.7,8.7,7.3,9.6 c3.4,0.4,6.6,0.1,9.8-0.3c7.5-0.8,15.2-1.7,20.2,10.7c0.2,0.6,0.4,1,0.6,1.4c0.6,1.6,0.6,1.6,2.3,3.8L680.4,1122.1z"/></g><g id="change3_28"><path fill="#cd4f42" d="M637.2,794.1l-3.4-0.7c0.9-4.1,2-7.9,3-11.6c1.3-4.8,2.7-9.7,3.8-15.4l0.1-0.4 c14.7-30.8,13.4-76.1,12.5-109.1l-0.1-4.2c-0.6-22.6-0.4-37.1-0.1-54c0.1-7.6,0.2-15.5,0.3-24.9l3.4,0 c-0.1,9.4-0.2,17.3-0.3,24.9c-0.3,16.8-0.5,31.4,0.1,53.9l0.1,4.1c0.9,33.3,2.2,78.9-12.7,110.5c-1.1,5.7-2.5,10.7-3.8,15.5 C639.1,786.5,638,790.1,637.2,794.1z"/></g><g id="change3_17"><path fill="#cd4f42" d="M674.3,715.3c-5.6-10.1-12-18.7-19.6-26.3l1.5-1.5c7.7,7.7,14.3,16.5,20,26.8L674.3,715.3z"/></g><g id="change3_101"><path fill="#cd4f42" d="M612.4,478.5c-6.5,4.2-12.6,8.9-17.7,14.4c-5.2,5.5-9.3,11.8-12.1,18.8l-1,2.6l-1,2.8l-1.9,5.7 c-1.3,3.8-2.7,7.6-4.1,11.4c-2.9,7.5-6.1,15-10,22.2c-2,3.6-4.1,7.1-6.7,10.4c-2.6,3.3-5.5,6.5-9.2,8.9c-1.7,1.1-3.5,2.2-5.5,3.1 c-1,0.5-2.1,0.9-3.2,1.2c-1.2,0.2-2.6,0.5-4,0.1c-0.7-0.1-1.4-0.5-2-0.8c-0.5-0.4-1.1-0.7-1.5-1.1c-0.9-0.8-1.5-1.5-2.2-2.1 c-1.3-1.3-2.7-2.2-4.4-2.9c-1.9-0.8-3.8-1.8-5.6-3.1c-1.8-1.3-3.4-3-4.4-5c-1.1-2-1.7-4.1-2.1-6.1c-0.6-2.1-0.4-4.8,0.4-6.8 c0.8-2.1,2-3.8,2.4-5.3c0.1-0.4,0.2-0.8,0.2-1.1l0-0.6l-0.1-0.8c-0.1-1.1-0.1-2.1,0-3.2c0.2-2.2,0.9-4.2,1.6-6.1 c0.4-1,0.9-2,1.4-2.9c0.5-0.8,0.8-1.5,1-2.4l2.1,0.5c-0.2,1-0.6,2.2-1.2,3.1c-0.5,0.9-0.8,1.6-1.1,2.5c-0.6,1.9-1.2,3.7-1.3,5.5 c0,0.9,0,1.8,0.1,2.7l0.1,0.7l0.1,0.9c0,0.6-0.1,1.2-0.2,1.8c-0.6,2.3-1.7,4-2.3,5.7c-0.6,1.7-0.6,3.2-0.1,5 c0.5,1.9,1.1,3.6,2,5.1c1.7,3,5,4.9,8.5,6.3c0.9,0.4,2.1,0.9,3,1.5c1,0.6,1.8,1.3,2.7,2c1.6,1.4,2.9,2.8,3.9,2.9 c1,0.2,2.7-0.3,4.2-1.1c1.6-0.8,3.2-1.9,4.8-3c5.9-4.3,10-11.1,13.5-18c3.4-7,6.3-14.3,8.8-21.8c1.3-3.7,2.5-7.5,3.6-11.3 l1.7-5.7l0.9-2.9l1-3c2.8-8,7.3-15.4,12.9-21.7c5.5-6.4,12-11.7,18.7-16.5L612.4,478.5z"/></g><g id="change3_81"><path fill="#cd4f42" d="M524.5,571.2c-0.2-0.5-0.4-1-0.7-1.5c-2.1-4.7-3.9-8.7-2-14.4c1.1-3.4,3.5-7.2,5.7-10.8 c1.8-2.8,3.4-5.5,4.4-7.8c1.3-3.1,1.5-5,1.7-7.1c0.1-1.4,0.3-2.9,0.8-4.9l2,0.5c-0.4,1.8-0.6,3.2-0.7,4.6 c-0.2,2.2-0.5,4.4-1.8,7.7c-1,2.4-2.7,5.2-4.5,8.1c-2.2,3.5-4.5,7.2-5.5,10.4c-1.7,5-0.1,8.5,1.9,12.9c0.2,0.5,0.4,1,0.7,1.5 L524.5,571.2z"/></g><g id="change3_25"><path fill="#cd4f42" d="M548.8,563.1c-2.8,0-5.6-0.6-8.5-2.4c-5.8-3.6-9.7-9-12.1-16.4l2-0.6c2.3,7.1,5.8,11.9,11.2,15.3 c4.6,2.9,8.9,2.2,13.8,1.4c1.1-0.2,2.2-0.4,3.4-0.5l0.3,2c-1.1,0.1-2.2,0.3-3.3,0.5C553.2,562.8,551,563.1,548.8,563.1z"/></g><g id="change3_45"><path fill="#cd4f42" d="M524.2,778.2l-2.1-0.1c0.5-14.1,1.8-26.6,3.9-38.4l2,0.4C526.1,751.7,524.8,764.2,524.2,778.2z"/></g><g id="change3_88"><path fill="#cd4f42" d="M528.2,740.1l-2-0.4c2.7-12.5,4-24.8,3.9-37.5l2.1,0C532.2,715,530.9,727.4,528.2,740.1z"/></g><g id="change3_104"><path fill="#cd4f42" d="M530,702.2c-0.5-15.3,0.8-30.4,2.3-47.2l2.1,0.2c-1.5,16.7-2.7,31.7-2.3,46.9L530,702.2z"/></g><g id="change3_34"><path fill="#cd4f42" d="M534.4,655.1l-2.1-0.1c0.6-15,0.2-30.2-0.2-45c-0.1-3.7-0.2-7.4-0.3-11l2.1,0c0.1,3.7,0.2,7.4,0.3,11 C534.6,624.8,535,640.1,534.4,655.1z"/></g><g id="change3_64"><path fill="#cd4f42" d="M535,599.4l-4.1-0.8c3.4-17.4,6.6-20.8,21.4-30.6l2.3,3.4C540.6,580.7,538.1,583.4,535,599.4z"/></g><g id="change3_4"><path fill="#cd4f42" d="M522.9,1125l-3.5-2.2c1-1.6,1.4-3.9,1.8-6.1c0.2-1.4,0.5-2.8,0.9-4c3.8-12.2,11.4-12.9,18.9-13.6 c3.2-0.3,6.5-0.6,9.8-1.8c5.4-2,5.1-3.1,4.2-6.1c-0.5-1.9-1.2-4.3-0.5-7.1c-3.9-7.9-5.7-10.1-6.8-11.4c-2-2.5-2-2.5-6-19.7 l-0.5-2.3c-7.3-31.8-5.4-92.9-1.7-124.1c1.7-14.5,2.4-26,3-37.2c0.8-13,1.5-25.3,3.8-40c2.1-13.9,0.9-27.6-0.4-40.8 c-1.1-12.1-2.3-24.7-0.8-37.1c2.3-18.9,9.2-33.8,16.5-49.7c2.8-6,5.6-12.2,8.3-18.7c9.8-24.2-0.6-57.9-7.7-75.8 c-5.7-14.5-7.9-24.6-10.4-36.3c-1.2-5.6-2.4-11.3-4.1-18l4-1c1.7,6.8,3,12.6,4.2,18.2c2.5,11.5,4.6,21.5,10.2,35.7 c7.3,18.5,18,53.4,7.7,78.9c-2.7,6.6-5.6,12.9-8.3,18.9c-7.2,15.5-13.9,30.2-16.1,48.4c-1.4,12-0.4,23.8,0.8,36.3 c1.3,13.5,2.5,27.5,0.3,41.8c-2.2,14.5-3,26.7-3.7,39.6c-0.7,11.2-1.4,22.8-3,37.4c-3.6,31-5.5,91.4,1.7,122.7l0.5,2.3 c3.7,16.3,3.7,16.3,5.2,18c1.2,1.5,3.2,3.9,7.6,12.9l0.4,0.8l-0.3,0.8c-0.7,1.9-0.2,3.6,0.3,5.5c1.2,4.3,1.5,8.1-6.8,11.1 c-3.8,1.4-7.5,1.7-10.8,2c-7.2,0.7-12.4,1.2-15.3,10.7c-0.3,1-0.5,2.2-0.8,3.5C524.8,1119.9,524.3,1122.7,522.9,1125z"/></g><g id="change3_102"><path fill="#cd4f42" d="M561.8,784.1c-0.9-4.2-1.9-8-2.9-12.1c-1.2-4.7-2.5-9.6-3.5-15.2c-14.8-33.4-13.3-83-12.5-109.7 c1-32.1,1.1-43,1-72.2l4.1,0c0,29.2-0.1,40.1-1,72.3c-0.8,26.4-2.3,75.6,12.2,108.2l0.1,0.5c1,5.5,2.3,10.4,3.5,15.1 c1,3.9,2.1,8,3,12.3L561.8,784.1z"/></g><g id="change3_70"><path fill="#cd4f42" d="M525.1,707.8l-1.8-1c5.7-10,12.3-18.6,20.2-26.4l1.4,1.5C537.2,689.4,530.7,697.9,525.1,707.8z"/></g><g id="change3_73"><path fill="#cd4f42" d="M568.6,894.1c-0.1-9.5-1-16-1.9-22.9c-0.7-5.7-1.5-11.6-2-19.8c-0.6-10,2.1-21.8,4.8-33.3 c2.4-10.3,4.8-20.9,5-30.3c0.3-20.3-5.7-37.2-18.4-51.9l1.6-1.3c13,15.1,19.2,32.5,18.9,53.3c-0.1,9.7-2.6,20.4-5,30.7 c-2.7,11.8-5.3,23-4.7,32.7c0.5,8.2,1.3,14,2,19.7c0.9,7,1.7,13.5,1.9,23.2L568.6,894.1z"/></g><g id="change3_26"><path fill="#cd4f42" d="M543.4,887.4c-4-9.7-4.1-25.9-1.9-36c1.2-5.3,2.7-8.1,4.2-10.8c1.2-2.1,2.4-4.2,3.4-7.6l2,0.6 c-1.1,3.6-2.4,5.8-3.6,8c-1.5,2.7-2.9,5.2-4,10.2c-2.1,9.8-2,25.5,1.8,34.8L543.4,887.4z"/></g><g id="change3_55"><path fill="#cd4f42" d="M544.6,872.5c-3.4,0-6.8-1.1-9.4-3.2c-3.6-2.8-5-5.5-6.6-8.3c-0.9-1.7-1.9-3.5-3.4-5.4l1.6-1.3 c1.7,2,2.7,3.9,3.7,5.7c1.4,2.7,2.8,5.2,6,7.7c3.1,2.4,7.4,3.3,11.2,2.4c2.1-0.5,5-2,6.5-5.6c3.2-7.5-0.3-12-5-18.2l1.6-1.3 l-0.8,0.6l0.8-0.6c4.8,6.2,8.9,11.6,5.3,20.3c-1.5,3.5-4.3,5.9-7.9,6.8C547,872.4,545.8,872.5,544.6,872.5z"/></g><g id="change3_83"><path fill="#cd4f42" d="M543.9,1021.7l-2.1-0.2c3.3-35.7,6.2-88.7,6.6-118.1c0.2-16.4-0.5-22.1-1.2-28.2c-0.6-5.2-1.3-10.6-1.3-23.2 l2.1,0c0,12.4,0.7,17.8,1.3,22.9c0.7,5.9,1.4,12,1.2,28.5C550.1,932.9,547.2,986,543.9,1021.7z"/></g><g id="change3_47"><path fill="#cd4f42" d="M517.6,1126.9l-1.6-1.3c7.7-8.9,14-9.4,21.3-9.9c3.3-0.2,7.1-0.5,11.5-1.6c11.8-3,11.9-3.2,13.5-13.7 c0.2-1.2,0.4-2.6,0.7-4.1c1.8-11-3.3-22.6-8.3-33.9c-1.5-3.3-2.9-6.4-4.1-9.6c-4.1-10.6-5.3-22.2-6.4-33.4 c-0.3-3.5-0.7-7.2-1.1-10.7l2-0.3c0.4,3.5,0.8,7.2,1.2,10.8c1.1,11.1,2.2,22.5,6.2,32.9c1.2,3.1,2.6,6.2,4,9.5 c5.1,11.5,10.4,23.5,8.5,35.1c-0.3,1.5-0.5,2.9-0.6,4.1c-1.7,11-2.2,12.1-15,15.4c-4.5,1.2-8.4,1.5-11.8,1.7 C530,1118.2,524.6,1118.6,517.6,1126.9z"/></g><g id="change3_29"><path fill="#cd4f42" d="M527.9,1128.7l-2-0.7c1.3-3.8,2.5-7.7,3.5-11.7l2,0.5C530.4,1120.8,529.2,1124.8,527.9,1128.7z"/></g><g id="change3_13"><path fill="#cd4f42" d="M536.8,1129.1l-2-0.5c1-4.1,1.8-8.3,2.4-12.9l2,0.2C538.6,1120.6,537.8,1124.9,536.8,1129.1z"/></g><g id="change3_40"><path fill="#cd4f42" d="M549.2,1133.5c-2.3-5.8-3-11.2-2.2-17.6l2.1,0.2c-0.7,6.1,0,11.2,2.1,16.6L549.2,1133.5z"/></g><g id="change3_66"><path fill="#cd4f42" d="M555.9,1136.8l-2-0.5c1-4.2,2.5-7.4,4-10.7c0.9-1.9,1.8-4,2.7-6.3c2.1-5.4,3.2-13.6,3.2-22.5l2.1,0 c0,5.4-0.3,15.5-3.3,23.2c-0.9,2.4-1.9,4.5-2.8,6.4C558.2,1129.8,556.8,1132.7,555.9,1136.8z"/></g><g id="change3_46"><path fill="#cd4f42" d="M555.2,1136.7l-2-0.5c1.1-4,2.6-7,4.2-10.2c1-2.1,2.1-4.2,3.1-6.7c2.7-6.6,3.2-15.9,3.2-22.5l2.1,0 c0,6.8-0.6,16.3-3.4,23.2c-1.1,2.6-2.1,4.8-3.2,6.9C557.7,1130,556.2,1132.9,555.2,1136.7z"/></g><g id="change3_77"><path fill="#cd4f42" d="M532,761.5l-0.9-1.8c8.6-4.4,15.3-9.6,21.2-16.2l1.6,1.4C547.8,751.6,540.9,756.9,532,761.5z"/></g><g id="change3_37"><path fill="#cd4f42" d="M575.2,543.7c-0.6,0-1.1,0-1.7-0.1c-7.1-0.6-15.1-5.3-19.3-11.3c-1.3-1.9-2.4-6.3,0.1-8.4l1.3,1.6 c-1.4,1.1-0.6,4.3,0.3,5.6c3.9,5.6,11.3,9.9,17.8,10.5c2.9,0.3,7-0.1,10.3-3.3c1.3-1.2,1.8-2.3,1.5-2.7c-1.8-1.9-12.7,0-14,1.1 l-1.4-1.5c1.7-1.6,14-4.1,16.9-1c0.9,0.9,1.4,2.7-1.5,5.6C582.7,542.4,579.2,543.7,575.2,543.7z"/></g><g id="change3_12"><path fill="#cd4f42" d="M553.5,530.9c-1.6-1.4-3.7-2.1-5.9-2.8l0.6-2c2.3,0.7,4.8,1.5,6.7,3.2L553.5,530.9z"/></g><g id="change3_21"><path fill="#cd4f42" d="M567.5,502c-3.4,0-5.4-0.9-6.2-2.7c-1.9-4.4,4.9-11.2,7.7-13.4c5.9-4.8,9.2-7.6,14.8-12.5l1.4,1.5 c-5.6,5-8.9,7.8-14.9,12.6c-4.2,3.4-8.1,8.7-7.1,11c0.6,1.5,3.7,1.9,8.4,1.1c10-1.5,13.5-12.7,16.9-23.5c2-6.5,4-12.6,7.2-16.6 c6.7-8.2,7.1-9.9,8.7-16.4c0.4-1.7,0.8-3.6,1.5-6l2,0.5c-0.6,2.4-1.1,4.3-1.5,5.9c-1.6,6.7-2,8.7-9.1,17.2 c-3,3.7-4.9,9.6-6.9,15.9c-3.4,10.9-7.3,23.2-18.5,24.9C570.3,501.9,568.8,502,567.5,502z"/></g><g id="change3_76"><path fill="#cd4f42" d="M516.7,321.7l-2.1,0c0.1-5.7,1.4-12,2.7-18.1c0.8-3.9,1.6-7.5,2-10.8c1-8.3,0.3-12.9-1.5-20.7l2-0.5 c1.9,8,2.6,12.7,1.5,21.4c-0.4,3.4-1.2,7.1-2,11C518.2,310,516.8,316.2,516.7,321.7z"/></g><g id="change3_110"><path fill="#cd4f42" d="M523.3,321.6c-0.9-6.1-2.6-10.1-6-14.3l1.6-1.3c3.7,4.5,5.5,8.8,6.5,15.3L523.3,321.6z"/></g><g id="change3_98"><path fill="#cd4f42" d="M528.1,261.1c-1.8-3.5-3.4-5.6-6.7-5.4c-2,0.1-3.8,1.1-5.7,2.1c-1.8,1-3.6,1.9-5.7,2.3l-0.3-2 c1.7-0.3,3.3-1.1,5-2.1c2-1.1,4.2-2.2,6.6-2.4c4.8-0.2,7,3.3,8.6,6.5L528.1,261.1z"/></g><g id="change3_23"><path fill="#cd4f42" d="M577.9,318.6c-0.5,0-1.1,0-1.6-0.1c-4.4-0.5-8.2-2.9-11.5-7.3c-5.2-6.9-5.3-11.9-5.3-16.7 c-0.1-3.8-0.1-7.4-2.5-12l1.8-1c2.7,5.1,2.7,9.1,2.8,13c0.1,4.7,0.1,9.1,4.9,15.5c2.9,3.9,6.3,6.1,10.1,6.5 c5.5,0.6,11.9-2.3,19.5-8.9l1.3,1.6C589.9,315.4,583.6,318.6,577.9,318.6z"/></g><g id="change3_31"><path fill="#cd4f42" d="M559.3,300c-2.2-0.4-4.3-0.5-6.4-0.6c-1.6-0.1-3.2-0.1-5-0.3c-4.4-0.5-7.7-2.8-10.1-6.8l1.8-1 c2,3.4,4.9,5.4,8.5,5.8c1.7,0.2,3.3,0.2,4.9,0.3c2.1,0.1,4.4,0.1,6.7,0.6L559.3,300z"/></g><g id="change3_79"><path fill="#cd4f42" d="M534.5,298.5l-0.4-2c2.7-0.6,5.5-0.7,8.1-0.7l0.5,0l0.1,2.1l-0.5,0C539.5,297.9,537,298,534.5,298.5z"/></g><g id="change3_105"><path fill="#cd4f42" d="M535.1,315.6l-0.6-2c4.1-1.2,7.1-2.9,11.3-5.5c3.9-2.4,8.9-4.8,13.7-6.7l0.8,1.9c-4.7,1.8-9.5,4.2-13.3,6.6 C542.6,312.6,539.4,314.4,535.1,315.6z"/></g><g id="change3_107"><path fill="#cd4f42" d="M526.7,309.2l-0.4-2c2.3-0.4,4.4-0.6,6.4-0.8c1.9-0.2,3.9-0.4,6.2-0.7c1.8-0.3,3.7-0.5,5.7-0.7 c3.2-0.4,6.5-0.7,9.4-1.4l0.5,2c-3,0.8-6.4,1.1-9.7,1.5c-2,0.2-3.9,0.4-5.6,0.7c-2.3,0.4-4.4,0.6-6.3,0.8 C530.9,308.6,528.9,308.8,526.7,309.2z"/></g><g id="change3_63"><path fill="#cd4f42" d="M533.5,326.2l-0.3-2c5.1-0.7,9.2-4.8,12.9-8.5c1.3-1.3,2.5-2.5,3.7-3.5c3.6-3,5.7-3.5,8.4-4 c1.1-0.2,2.4-0.5,3.9-1l0.6,2c-1.6,0.5-2.9,0.8-4.1,1c-2.6,0.5-4.3,0.9-7.5,3.6c-1.2,1-2.4,2.2-3.6,3.4 C543.7,321,539.2,325.3,533.5,326.2z"/></g><g id="change3_1"><path fill="#cd4f42" d="M535,337.8l-1.6-1.3c1.8-2.1,2.8-4.2,3.2-6.4c0.5-2.5,1-5,2.2-7.6l1.9,0.9c-1.1,2.4-1.6,4.7-2,7.1 C538.3,333,537.1,335.4,535,337.8z"/></g><g id="change3_7"><path fill="#cd4f42" d="M550.2,356.9l-1.8-1.1c2.8-4.5,4.4-10.1,5.8-15.4c0.8-2.7,1.5-5.3,2.3-7.8c2.2-6.1,5.5-9.5,9.3-13.4 c1-1,2-2,3-3.1l1.5,1.4c-1,1.1-2,2.2-3,3.2c-3.7,3.8-6.8,7-8.8,12.7c-0.8,2.4-1.5,4.9-2.3,7.6 C554.7,346.5,553.2,352.1,550.2,356.9z"/></g><g id="change3_9"><path fill="#cd4f42" d="M559.1,357.1c-0.6-6.3-0.1-10.4,0.7-17.1c0.9-7.5,3.5-15.7,6.7-21.5l1.8,1c-3.1,5.6-5.6,13.5-6.5,20.8 c-0.8,6.8-1.2,10.6-0.7,16.7L559.1,357.1z"/></g><g id="change3_41"><path fill="#cd4f42" d="M563.7,350.6c-0.6-4.5-1.8-7.6-3.9-10.5l1.7-1.2c2.3,3.2,3.6,6.7,4.3,11.5L563.7,350.6z"/></g><g id="change3_92"><path fill="#cd4f42" d="M489.2,290.3c-7.1,0-13.7-1.6-15.8-6.5c-1.1-2.7-0.4-4,0.4-4.7c3.8-3.1,17.3,3.5,19.2,4.8 c1.9,1.3,5.4,2.2,8.9,2.9c2.1-0.5,4-1.1,5.4-1.7l0.8,1.9c-0.4,0.2-0.8,0.3-1.2,0.5c0.6,0.1,1.2,0.1,1.8,0.1l-0.1,2.1 c-1.8-0.1-4.2-0.3-6.7-0.8C498.1,289.7,493.5,290.3,489.2,290.3z M476.7,280.3c-0.7,0-1.3,0.1-1.6,0.4c-0.5,0.4-0.1,1.6,0.2,2.3 c2.3,5.4,12.7,6,21.5,4.7c-2-0.6-3.7-1.3-5-2.1C489,283.8,480.6,280.3,476.7,280.3z"/></g><g id="change3_8"><path fill="#cd4f42" d="M590.2,248.8c-0.5-4.8-0.3-7.4-0.1-10.2c0.2-2.7,0.4-5.6,0-11l-0.2-2.8c-0.8-10.2-1.8-22.8-7.5-35.1 c-6.4-13.6-14.1-35.5-16.7-51c-1.4-8.3-3.3-13.6-5.3-19.2c-1.6-4.6-3.3-9.4-4.9-16.2c-3-13-3.7-27.7,14-37.7l1,1.8 c-13.4,7.5-17.1,17.8-13,35.4c1.6,6.7,3.2,11.4,4.8,16c2,5.7,3.9,11.1,5.4,19.6c2.5,15.1,10.4,37.3,16.5,50.5 c5.9,12.6,6.9,25.5,7.7,35.8l0.2,2.8c0.5,5.6,0.2,8.5,0,11.3c-0.2,2.7-0.4,5.2,0.1,9.8L590.2,248.8z"/></g><g id="change3_38"><path fill="#cd4f42" d="M557.9,106.7l-1.8-1.1c1.8-3,3.9-5.1,6.2-7.3c1.2-1.2,2.5-2.4,3.7-3.8c1.9-2.2,3.1-5.1,4.3-8 c0.9-2.2,1.9-4.4,3.1-6.4l1.7,1.1c-1.2,1.8-2,3.9-2.9,6.1c-1.3,3-2.6,6.2-4.7,8.6c-1.3,1.5-2.6,2.7-3.8,3.9 C561.6,101.9,559.5,103.9,557.9,106.7z"/></g><g id="change3_80"><path fill="#cd4f42" d="M574.8,94.7c-2-0.5-4.5-1-6.4-0.2l-0.8-1.9c2.5-1.1,5.5-0.6,7.8,0L574.8,94.7z"/></g><g id="change3_106"><path fill="#cd4f42" d="M587.6,196.8l-2.1-0.1c0.6-9.5,0.8-19.3-0.9-26.5c-0.6-2.6-1.5-5.3-2.3-7.9c-1.7-5.2-3.5-10.6-3.1-15.3 c0.6-6.9,2.2-11.1,4-16.1c1-2.8,2.6-4.3,4-5.7c1.2-1.2,2.4-2.2,3.2-4.2l1.9,0.8c-1,2.3-2.4,3.6-3.7,4.8c-1.4,1.3-2.6,2.5-3.5,4.9 c-1.8,5-3.3,9-3.9,15.6c-0.4,4.3,1.2,9.2,3,14.5c0.9,2.7,1.8,5.4,2.4,8.1C588.4,177.2,588.1,187.1,587.6,196.8z"/></g><g id="change3_5"><path fill="#cd4f42" d="M581.2,151.2l-1.9-0.7c1.1-3,2.5-4.9,6.5-5.8c2.9-0.6,6.3-1.6,9.1-4l1.3,1.6c-3.2,2.7-7,3.8-10,4.4 C583,147.4,582.1,148.7,581.2,151.2z"/></g><g id="change3_32"><path fill="#cd4f42" d="M583.1,160l-1.2-1.7c2.9-2,5.7-3.2,9.2-3.7l0.3,2C588.3,157.1,585.7,158.1,583.1,160z"/></g><g id="change3_10"><path fill="#cd4f42" d="M573.5,236.1c-1-10.8-0.6-19.5,0.4-31.8c1.1-12.6,1.7-25.8-0.5-36.9l2-0.4c2.3,11.4,1.6,24.7,0.5,37.4 c-1,12.1-1.4,20.7-0.4,31.4L573.5,236.1z"/></g><g id="change3_20"><path fill="#cd4f42" d="M738.6,519.9l-2-0.7c6.3-18.9,6.2-37.8,5.2-53.8l2.1-0.1C744.8,481.5,745,500.6,738.6,519.9z"/></g><g id="change3_42"><path fill="#cd4f42" d="M662.5,582.9c-1.2,0-2.5-0.2-3.8-0.5l0.5-2c7.1,1.9,11.4-2.5,13.8-6.4c3.3-5.4,4.5-9.1,3-14.9 c-0.9-3.4-3.3-7.1-5.6-10.7c-1.8-2.8-3.5-5.5-4.4-7.8c-1.3-3.4-1.6-5.6-1.8-7.9c-0.1-1.4-0.3-2.8-0.7-4.6l2-0.4 c0.4,1.9,0.6,3.4,0.7,4.8c0.2,2.2,0.4,4.2,1.7,7.3c0.9,2.2,2.5,4.8,4.2,7.5c2.4,3.7,4.9,7.6,5.8,11.3c1.7,6.5,0.3,10.6-3.2,16.5 C671.7,580.2,667.4,582.9,662.5,582.9z"/></g><g id="change3_96"><path fill="#cd4f42" d="M626.6,895.5l-2.1-0.1c0.6-8.5,1.7-14,2.9-19.7c1.1-5.1,2.2-10.4,3.1-18.5c1-9.3-1.3-20.3-3.7-31.9 c-2-9.6-4.1-19.5-4.1-28.4c-0.1-20.3,6.6-38.3,19.4-52l1.5,1.4c-12.4,13.3-18.9,30.8-18.8,50.6c0,8.7,2.1,18.5,4.1,28 c2.4,11.3,4.8,22.9,3.7,32.6c-0.9,8.2-2,13.6-3.1,18.7C628.3,881.7,627.2,887.1,626.6,895.5z"/></g><g id="change3_6"><path fill="#cd4f42" d="M651,892.4l-1.8-1.1c4.9-8.3,6.2-22.9,4.6-32.2c-0.8-4.8-2.1-7.1-3.5-9.6c-1.1-2-2.3-4.1-3.3-7.6l2-0.6 c0.9,3.2,2,5.2,3.1,7.1c1.4,2.5,2.9,5.1,3.8,10.2C657.3,866.9,656.7,882.8,651,892.4z"/></g><g id="change3_15"><path fill="#cd4f42" d="M652.3,878.5c-1.4,0-2.9-0.2-4.2-0.6c-3.6-1.1-6.1-3.5-7.4-6.9c-3.1-8.1,0.8-12.4,5.2-17.5l1-1.2l1.6,1.3 l-1,1.2c-4.5,5.1-7.4,8.5-4.8,15.4c1.3,3.5,4,5,6.1,5.6c3.7,1.1,8.2,0.4,11.4-1.9c3.4-2.4,4.8-4.7,6.5-7.4 c1.1-1.7,2.2-3.4,3.8-5.3l1.5,1.4c-1.5,1.7-2.6,3.4-3.6,5c-1.7,2.7-3.4,5.3-7.1,8C658.7,877.5,655.5,878.5,652.3,878.5z"/></g><g id="change3_33"><path fill="#cd4f42" d="M641,1026.1c-6.6-32.5-2.6-83.1,1-118.3c1.7-16,2.9-21.8,4.2-27.3c1.1-4.9,2.2-9.9,3.6-22.1l2,0.2 c-1.4,12.3-2.5,17.4-3.6,22.4c-1.2,5.5-2.5,11.2-4.1,27.1c-3.6,35.1-7.7,85.4-1.1,117.7L641,1026.1z"/></g><g id="change3_86"><path fill="#cd4f42" d="M664.5,1129.9c-0.7-3.8-1.7-9.9-2.2-14.3l2-0.2c0.5,4.3,1.5,10.4,2.2,14.1L664.5,1129.9z"/></g><g id="change3_18"><path fill="#cd4f42" d="M672.2,1127.1c-1.6-4.2-2.9-8.4-3.8-13.1l2-0.4c0.9,4.5,2.1,8.7,3.7,12.7L672.2,1127.1z"/></g><g id="change3_108"><path fill="#cd4f42" d="M657,1135.2l-2-0.4c1.2-5.9,1-11.1-0.8-17l2-0.6C658,1123.4,658.3,1129,657,1135.2z"/></g><g id="change3_95"><path fill="#cd4f42" d="M651.6,1139.5c-1.6-3.6-3.5-6.2-5.6-9c-1.3-1.8-2.7-3.7-4.2-6.1c-2.3-3.7-1.7-9.2-1.2-14.6 c0.4-3.8,0.8-7.7,0.1-10.5l2-0.5c0.8,3.2,0.3,7.3-0.1,11.2c-0.5,5-1,10.2,0.9,13.3c1.4,2.3,2.8,4.1,4.1,5.9 c2.1,2.9,4.1,5.6,5.8,9.4L651.6,1139.5z"/></g><g id="change3_16"><path fill="#cd4f42" d="M667.6,773.3c-8.8-5.2-15.7-10.9-21.6-18.1l1.6-1.3c5.7,7,12.4,12.6,21.1,17.6L667.6,773.3z"/></g><g id="change3_57"><path fill="#cd4f42" d="M628.4,546.5c-4,0-7.5-1.4-10.1-4.1c-2.8-2.9-2.3-4.7-1.4-5.6c2.8-3,14.8-0.7,16.7,1l-1.4,1.6 c-1.4-1.2-12-3.1-13.9-1.1c-0.5,0.5,0.4,1.7,1.4,2.8c3.1,3.2,7.1,3.6,9.9,3.4c6.5-0.5,13.8-4.9,17.6-10.5 c0.9-1.3,1.6-4.5,0.2-5.6l1.3-1.6c2.6,2,1.5,6.5,0.2,8.4c-4.2,6.1-12,10.8-19.1,11.4C629.4,546.5,628.9,546.5,628.4,546.5z"/></g><g id="change3_62"><path fill="#cd4f42" d="M647.8,533.7l-1.4-1.5c2-1.9,4.3-2.8,6.2-3.4l0.6,2C650.8,531.6,649.2,532.4,647.8,533.7z"/></g><g id="change3_103"><path fill="#cd4f42" d="M676.6,323.2l-2.1-0.2c0.5-5.3,0-10.8-0.6-16.2c-0.4-3.9-0.9-8-0.8-12c0-6.5,1.6-12.6,3.1-18.4 c0.7-2.7,1.4-5.4,1.9-8.2l2,0.4c-0.6,2.8-1.3,5.6-2,8.3c-1.5,6-3,11.7-3,17.9c0,3.9,0.4,7.9,0.8,11.8 C676.6,312.1,677.2,317.7,676.6,323.2z"/></g><g id="change3_93"><path fill="#cd4f42" d="M668.2,322.8l-2-0.5c1.4-5.9,3.8-10.1,7.9-14.3l1.5,1.5C671.8,313.3,669.6,317.3,668.2,322.8z"/></g><g id="change3_85"><path fill="#cd4f42" d="M668.3,246.2l-1.8-1c1.7-3.2,4-6.5,8.8-6.2c2.3,0.1,4.3,1,6.3,1.9c1.7,0.7,3.4,1.5,5.2,1.7l-0.2,2.1 c-2.1-0.2-4-1-5.8-1.8c-1.9-0.8-3.7-1.6-5.6-1.7C671.8,241,670,243,668.3,246.2z"/></g><g id="change3_48"><path fill="#cd4f42" d="M610.4,314.1c-4.2,0-9.3-1.5-15.7-4.7l0.9-1.9c8.9,4.4,14.9,5.5,19.4,3.6c3.7-1.5,6.5-5.1,8.4-10.9 c3-8.9,1.5-15.7-0.2-22.8c-1.2-5.2-2.5-10.6-2-17l2.1,0.1c-0.4,6.1,0.8,11.4,2,16.4c1.7,7.5,3.4,14.5,0.2,24 c-2.2,6.4-5.3,10.4-9.6,12.2C614.2,313.7,612.4,314.1,610.4,314.1z"/></g><g id="change3_49"><path fill="#cd4f42" d="M626.8,286.5l-1.5-1.4c1.8-2,4.1-3.7,6.2-5.4c1.4-1.1,2.8-2.2,4.1-3.3c2.9-2.6,5-6.8,5.9-11.7l2,0.3 c-0.9,5.3-3.3,10-6.5,12.9c-1.4,1.2-2.8,2.3-4.3,3.4C630.6,283.1,628.5,284.6,626.8,286.5z"/></g><g id="change3_14"><path fill="#cd4f42" d="M640.8,273.5l-1-1.8c2.6-1.5,5.2-2.4,8-2.9l0.4,2C645.6,271.3,643.3,272.2,640.8,273.5z"/></g><g id="change3_2"><path fill="#cd4f42" d="M652.4,292.4c-4.3,0-8-0.8-11.6-1.6c-4.2-1-10.2-0.6-14.3,0.1l-0.4-2c4-0.7,10.4-1.2,15.1-0.1 c4.6,1.1,7.8,1.6,11.8,1.5l0,2.1C652.8,292.4,652.6,292.4,652.4,292.4z"/></g><g id="change3_59"><path fill="#cd4f42" d="M632.6,290.2l-0.6-2c3.5-1,8.1-3.2,13.6-6.6c4.1-2.6,7-4.1,11.1-5.5l0.7,2c-3.9,1.3-6.6,2.7-10.6,5.3 C641.1,286.8,636.3,289.1,632.6,290.2z"/></g><g id="change3_99"><path fill="#cd4f42" d="M656.6,306.1c-5.4,0-10.3-3.2-14.6-6c-1.5-0.9-2.8-1.8-4.1-2.6c-3.5-1.9-5.5-1.2-8.2-0.3 c-1.2,0.4-2.5,0.9-4,1.2l-0.4-2c1.4-0.3,2.6-0.7,3.7-1.1c2.9-1,5.6-2,9.9,0.4c1.4,0.8,2.8,1.7,4.3,2.6c4.3,2.8,9.2,6,14.3,5.6 l0.2,2.1C657.3,306.1,656.9,306.1,656.6,306.1z"/></g><g id="change3_72"><path fill="#cd4f42" d="M658.7,318.1c-2.5-2-4.2-4.1-5.3-6.6c-1-2.4-2-4.6-3.6-6.7l1.7-1.2c1.7,2.3,2.8,4.7,3.8,7.2 c0.9,2.2,2.4,4,4.6,5.8L658.7,318.1z"/></g><g id="change3_100"><path fill="#cd4f42" d="M645.2,341.9c-3.7-4.2-6.2-9.7-8.6-15c-1-2.2-1.9-4.3-2.9-6.2c-2.8-5.3-6.6-7.8-11-10.7 c-0.7-0.5-1.5-1-2.3-1.5l1.2-1.7c0.8,0.5,1.5,1,2.3,1.5c4.7,3.1,8.7,5.7,11.7,11.5c1,1.9,2,4.1,3,6.3c2.3,5.2,4.7,10.5,8.3,14.4 L645.2,341.9z"/></g><g id="change3_22"><path fill="#cd4f42" d="M634.4,344.4c-0.3-4.7-1.2-8.4-2.3-12.8c-0.3-1.2-0.6-2.4-0.9-3.7c-1.4-6.2-4.6-12.9-8.3-17.7l1.6-1.3 c3.9,5,7.2,12,8.7,18.5c0.3,1.3,0.6,2.5,0.9,3.6c1.1,4.5,2,8.3,2.4,13.2L634.4,344.4z"/></g><g id="change3_35"><path fill="#cd4f42" d="M628.8,338.7c-0.1-5,0.7-8.7,2.7-12.3l1.8,1c-1.8,3.3-2.5,6.6-2.4,11.3L628.8,338.7z"/></g><g id="change3_90"><path fill="#cd4f42" d="M709.8,299.7c-4.6,0-9.7-0.9-14-2.5c-1.8,0.2-3.7,0.1-5.4-0.4l0.5-1.8c-1.1-0.6-2-1.3-2.8-2l1.4-1.5 c1.5,1.3,3.9,2.6,6.7,3.6c2.9-0.3,5.7-1.3,7.7-2.4c1.5-0.8,16.3-6.8,19.7-3.3c1,1.1,0.9,2.7-0.2,4.7c-1.6,2.7-4.7,4.5-9,5.2 C712.8,299.5,711.3,299.7,709.8,299.7z M700.1,296.3c4.5,1.1,9.5,1.6,13.7,0.9c2.6-0.4,6-1.5,7.6-4.2c0.6-1.1,0.8-2,0.5-2.3 c-1.7-1.8-13.3,1.7-17.2,3.7C703.4,295.2,701.8,295.8,700.1,296.3z"/></g><g id="change3_43"><path fill="#cd4f42" d="M608.8,288.9l-2-0.3c1-6,0.8-12.6,0.7-18.9c-0.1-5.2-0.2-10.5,0.2-15.5c0.5-5.2,2.4-12,4.2-18.6 c2-7.4,4.1-15,3.9-19.4c-0.1-3.1-0.4-6.3-0.8-9.4c-0.6-5.5-1-9.8-0.1-12.2c7-17.6,15.7-39.6,18.7-57.1c1.3-7.5,2.9-12.6,4.2-17.1 c1.8-5.9,3.3-11,3.9-19.7c0.9-13.9-5.8-27.2-18.9-37.3l1.3-1.6c13.6,10.6,20.5,24.5,19.6,39.1c-0.5,8.9-2.1,14.1-3.9,20.1 c-1.3,4.5-2.9,9.5-4.2,16.9c-3.1,17.7-11.8,39.7-18.9,57.5c-0.8,1.9-0.3,6.4,0.2,11.2c0.3,3.1,0.7,6.3,0.8,9.5 c0.2,4.7-1.9,12.2-4,20.1c-1.8,6.5-3.6,13.2-4.1,18.3c-0.5,4.9-0.3,10.2-0.2,15.3C609.7,276,609.8,282.7,608.8,288.9z"/></g><g id="change3_58"><path fill="#cd4f42" d="M641.9,101.9c-2.5-3.4-5.2-5.3-8.4-7.6c-1.1-0.8-2.3-1.6-3.4-2.5c-3-2.3-4.9-5.4-6.7-8.3 c-1.1-1.7-2.2-3.5-3.5-5.1l1.6-1.3c1.4,1.7,2.5,3.5,3.6,5.3c1.8,2.9,3.5,5.7,6.2,7.8c1.2,0.9,2.3,1.7,3.4,2.4 c3.2,2.2,6.2,4.4,8.9,8L641.9,101.9z"/></g><g id="change3_39"><path fill="#cd4f42" d="M622.8,91.6l-0.8-1.9c2.2-0.9,5.5-1.2,7.7-0.7l-0.5,2C627.4,90.6,624.6,90.8,622.8,91.6z"/></g><g id="change3_91"><path fill="#cd4f42" d="M614.5,196.6c0-1.5-0.1-3-0.1-4.6c-0.2-7.3-0.5-15.6,1.5-22.3c0.5-1.7,1.1-3.5,1.6-5.3 c2-6.4,4.3-13.6,3.7-18.8c-0.7-5.6-2.1-8.8-3.7-12.5c-0.3-0.7-0.6-1.4-0.9-2.2c-1-2.3-2.3-3.4-3.7-4.6c-1.4-1.2-2.8-2.4-3.9-4.7 l1.9-0.9c0.9,1.9,2.1,2.9,3.4,4c1.5,1.3,3.1,2.7,4.3,5.4c0.3,0.8,0.6,1.5,0.9,2.2c1.6,3.8,3,7.1,3.8,13 c0.7,5.6-1.5,12.8-3.8,19.7c-0.6,1.8-1.1,3.6-1.6,5.2c-1.8,6.3-1.6,14.5-1.4,21.6c0,1.6,0.1,3.1,0.1,4.6L614.5,196.6z"/></g><g id="change3_51"><path fill="#cd4f42" d="M621.4,149c-1.6-2.7-1.9-2.9-4.9-3.4c-3.9-0.7-7.2-1.9-10-4l1.2-1.7c2.5,1.8,5.5,3,9.1,3.6 c3.7,0.6,4.5,1.1,6.4,4.4L621.4,149z"/></g><g id="change3_74"><path fill="#cd4f42" d="M619.6,159c-2.2-1.5-4.4-2.2-7.4-2.4l0.1-2.1c3.4,0.2,5.9,1,8.4,2.7L619.6,159z"/></g><g id="change3_24"><path fill="#cd4f42" d="M628,233l-2-0.3c1.3-9.1,0-17.5-1.4-26.4c-0.3-1.9-0.6-3.7-0.9-5.7c-2-13.5,0.6-28,2.4-35.4l2,0.5 c-2.9,12.4-3.7,25.1-2.3,34.6c0.3,1.9,0.6,3.8,0.9,5.6C628,215,629.4,223.6,628,233z"/></g><g id="change3_69"><path fill="#cd4f42" d="M651.7,565.8c-1.9,0-3.7-0.3-5.5-0.5c-1.9-0.3-3.8-0.5-5.9-0.6l0-2.1c2.2,0,4.2,0.3,6.1,0.6 c4.2,0.6,7.9,1.1,12.5-1.4c6.4-3.5,11.9-10.3,15.1-18.4l1.9,0.8c-3.4,8.6-9.2,15.7-16,19.5C657,565.3,654.3,565.8,651.7,565.8z"/></g><g id="change3_60"><path fill="#cd4f42" d="M639.1,432.2c-1.4-1.5-2-3-2.4-4.5c-0.4-1.4-0.9-2.6-2.1-3.9c-0.4-0.4-0.8-0.8-1.3-1.3 c-2.8-2.8-6.5-6.6-5.8-10.9c0.3-1.8,0.7-3.3,1.1-4.8c0.6-2.1,1.1-4.1,1.1-6.5c-7.8-10.5-9.8-11-22.3-6.4l-0.7-1.9 c13.4-4.9,16.4-4,24.9,7.4l0.2,0.3l0,0.3c0,2.8-0.6,5-1.2,7.4c-0.4,1.4-0.8,2.9-1,4.6c-0.5,3.3,2.7,6.5,5.3,9.1 c0.5,0.5,0.9,0.9,1.3,1.4c1.5,1.6,2,3.2,2.5,4.7c0.5,1.4,0.8,2.5,1.9,3.7L639.1,432.2z"/></g><g id="change3_36"><path fill="#cd4f42" d="M624.9,429.7l-1.5-1.4c2.8-3.2,4.2-6.4,4.9-11l2,0.3C629.6,422.6,628,426.2,624.9,429.7z"/></g><g id="change3_109"><path fill="#cd4f42" d="M641.5,402.6c-3.5,0-7.3-0.3-11.1-1.5l0.6-2c4.3,1.3,8.7,1.4,12.7,1.3l0.1,2.1 C643,402.6,642.2,402.6,641.5,402.6z"/></g><g id="change3_94"><path fill="#cd4f42" d="M641.5,480.4l-1.8-1c0.8-1.5,1.9-2.4,3-3.4c1.2-1.1,2.4-2.1,3-3.8c0.5-1.5,0.6-2.9,0-4 c-0.5-1-1.5-1.8-2.9-2.3l-0.2-0.1c-6.3-4.2-10.8-9.1-14.3-16c-0.4-0.8-0.8-1.7-1.3-2.5c-3.1-6.1-6.2-12.3-10.8-16.7 c-5.6-5.3-8.5-9.5-11-16.2l1.9-0.7c2.5,6.4,5.1,10.3,10.5,15.5c4.8,4.6,8.1,11,11.2,17.2c0.4,0.8,0.8,1.7,1.3,2.5 c3.4,6.6,7.4,11.2,13.5,15.2c1.9,0.6,3.2,1.8,4,3.3c0.8,1.6,0.8,3.6,0.1,5.6c-0.8,2.1-2.2,3.4-3.5,4.6 C643.1,478.4,642.1,479.2,641.5,480.4z"/></g><g id="change3_52"><path fill="#cd4f42" d="M391.6,647c-0.3,0-2.1-0.1-2.8-1.6c-0.7-1.7,0.7-4.1,4.2-7.6c3.1-3,4.2-6.1,5.3-9.4 c1.6-4.7,3.3-9.6,10.6-14.6c12-8.2,29.7-28.2,29.9-28.4l1.6,1.4c-0.7,0.8-18,20.5-30.3,28.8c-6.8,4.6-8.3,9.1-9.9,13.5 c-1.2,3.4-2.4,6.9-5.9,10.3c-4.2,4.1-3.8,5.3-3.8,5.3c0.1,0.2,0.6,0.3,0.9,0.3L391.6,647C391.6,647,391.6,647,391.6,647z"/></g><g id="change3_84"><path fill="#cd4f42" d="M440.8,677.3c-0.5,0-1.1-0.2-1.5-0.4l0.9-1.9c0.5,0.2,0.7,0.2,0.7,0.2c0.4-0.3,1.2-3.4,2.3-7.7 c1.1-4.3,2.8-10.9,5.5-20.4c7.8-27,5.5-37.1,5.5-37.2l2-0.5c0.1,0.4,2.5,10.6-5.5,38.3c-2.7,9.5-4.4,16-5.5,20.3 c-1.7,6.6-2.1,8.4-3.5,9.1C441.3,677.3,441.1,677.3,440.8,677.3z"/></g><g id="change3_19"><path fill="#cd4f42" d="M407.9,682.2c-0.4,0-0.7,0-1.2-0.1c-1.1-0.2-2-0.8-2.6-1.8c-2.9-4.8,1.7-18.5,6.2-31.7 c2.4-7.1,4.6-13.8,5.2-17.8c1.9-12.7,16.3-27.9,16.9-28.6l1.5,1.4c-0.1,0.2-14.6,15.4-16.4,27.5c-0.6,4.2-2.9,11-5.3,18.2 c-3.9,11.6-8.7,26-6.3,30c0.3,0.5,0.7,0.7,1.2,0.8c1.2,0.2,1.8-0.1,2.1-0.3c1.3-1,1.9-4.1,2.5-8c1.2-7.4,3.1-18.6,12.3-30.4 l1.6,1.3c-8.9,11.4-10.7,22.3-11.9,29.5c-0.8,4.6-1.3,7.9-3.3,9.4C409.7,682,408.9,682.2,407.9,682.2z"/></g><g id="change3_68"><path fill="#cd4f42" d="M425.8,687.6c-0.1,0-0.2,0-0.3,0c-2.3-0.2-3.5-2.8-3.9-3.8l-0.1-0.2l1.8-1.1c0,0.1,0.1,0.2,0.2,0.4 c0.3,0.6,1.1,2.5,2.2,2.6c0.6,0,1.7-0.3,3.5-3c2.5-3.7,5.4-18.1,8.3-32c2.9-14.1,5.6-27.4,8.1-30.9l1.7,1.2 c-2.2,3.1-5,16.9-7.8,30.2c-3,14.8-5.9,28.7-8.6,32.7C429.1,686.4,427.4,687.6,425.8,687.6z"/></g><g id="change3_50"><path fill="#cd4f42" d="M416.4,695.2c-1,0-1.6-0.5-1.9-0.9c-1.4-2,0.2-6.7,3.5-15.5c3.1-8.4,7-19,7.2-27.3 c0.4-17.2,8.6-34.5,8.7-34.7l1.9,0.9c-0.1,0.2-8.1,17.1-8.5,33.9c-0.2,8.7-4.2,19.4-7.3,28c-2.1,5.8-4.6,12.4-3.7,13.5 c0,0.1,0.2,0,0.3,0l0.1,2.1C416.5,695.2,416.5,695.2,416.4,695.2z"/></g><g id="change3_53"><path fill="#cd4f42" d="M809.2,647C809.2,647,809.2,647,809.2,647l0-2.1c0.3,0,0.8-0.1,0.8-0.3c0,0,0.4-1.2-3.8-5.3 c-3.5-3.3-4.7-6.9-5.9-10.3c-1.5-4.4-3.1-9-9.9-13.5c-12.2-8.3-29.5-28-30.3-28.8l1.6-1.4c0.2,0.2,17.9,20.3,29.9,28.4 c7.3,5,9,9.9,10.6,14.6c1.1,3.3,2.2,6.4,5.3,9.4c3.6,3.5,5,5.9,4.3,7.6C811.3,646.9,809.5,647,809.2,647z"/></g><g id="change3_54"><path fill="#cd4f42" d="M760,677.3c-0.3,0-0.5-0.1-0.8-0.2c-1.3-0.6-1.8-2.4-3.5-9.1c-1.1-4.3-2.8-10.9-5.5-20.3 c-8-27.6-6-43.4-5.9-44.1l2,0.3c0,0.2-2,16.1,5.8,43.2c2.7,9.5,4.4,16.1,5.5,20.4c1.1,4.3,1.9,7.3,2.4,7.7c0,0,0.1,0,0.6-0.3 l0.9,1.9C761,677.1,760.5,677.3,760,677.3z"/></g><g id="change3_30"><path fill="#cd4f42" d="M792.8,682.2c-1,0-1.8-0.2-2.5-0.7c-2-1.4-2.6-4.8-3.3-9.4c-1.2-7.2-3-18.1-11.9-29.5l1.6-1.3 c9.2,11.8,11.1,23,12.3,30.4c0.6,3.9,1.2,7.1,2.5,8c0.3,0.2,0.9,0.5,2.1,0.3c0.5-0.1,0.9-0.4,1.2-0.8c2.4-4-2.5-18.4-6.3-30 c-2.4-7.2-4.7-14-5.3-18.2c-1.8-12.1-19.3-30.9-19.5-31.1l1.5-1.4c0.7,0.8,18.1,19.5,20,32.2c0.6,4,2.8,10.7,5.2,17.8 c4.4,13.2,9,26.9,6.2,31.7c-0.6,1-1.5,1.6-2.6,1.8C793.6,682.2,793.2,682.2,792.8,682.2z"/></g><g id="change3_44"><path fill="#cd4f42" d="M775,687.6c-1.7,0-3.3-1.3-5.1-3.9c-2.7-4-5.6-19.1-8.6-35.1c-2.7-14.4-5.6-29.2-7.7-32.4l1.7-1.2 c2.4,3.5,5.2,17.9,8.1,33.2c2.9,15.1,5.8,30.6,8.3,34.3c1.8,2.7,3,3,3.5,3c1.1-0.1,1.9-2,2.2-2.6c0.1-0.2,0.2-0.4,0.2-0.4 l0.9,0.6l0.9,0.5l-0.1,0.2c-0.4,1-1.6,3.6-3.9,3.8C775.2,687.6,775.1,687.6,775,687.6z"/></g><g id="change3_89"><path fill="#cd4f42" d="M784.3,695.2c0,0-0.1,0-0.1,0l0.1-2.1c0.1,0,0.2,0,0.3,0c0.9-1.2-1.6-7.7-3.7-13.5c-3.2-8.6-7.1-19.3-7.3-28 c-0.4-16.8-10.4-37.4-10.5-37.7l1.9-0.9c0.4,0.9,10.3,21.3,10.7,38.5c0.2,8.3,4.1,18.9,7.2,27.3c3.3,8.8,4.9,13.5,3.5,15.5 C785.9,694.7,785.3,695.2,784.3,695.2z"/></g><g id="change3_65"><path fill="#cd4f42" d="M619.7,334.6l-12.3-1.5c0.7-6,1.6-12,2.7-18c1.4-7.6,2.9-14.1,4.2-19.4c1.6-6.9,3.5-14.8,2.6-16.5 c-0.1-0.1-0.9-0.3-1.5-0.1c-2.8,0.6-8,9.6-7.9,28.5l-12.4,0.1c-0.1-22.7,6.7-38.3,17.7-40.7c3.5-0.7,8.5-0.3,12.3,3 c6.6,5.8,4.5,14.9,1.3,28.6c-1.3,5.4-2.7,11.5-4.1,18.8C621.3,323.1,620.4,328.9,619.7,334.6z"/></g><g><g id="change2_61"><path fill="#0476fc" d="M599.6,330.3c0.6-3.3,1.3-6.4,2-9.6l2.2-9.4c0.7-3.1,1.5-6.2,2.1-9.3c0.7-3.1,1.4-6.2,1.9-9.3l0.1-0.5 c0.2-1.2,0.9-2.2,1.8-2.8c1-0.7,1.9-1.4,3.3-2.3c0.7-0.4,1.5-0.9,2.4-1.2c0.9-0.3,1.7-0.6,2.5-0.7c1.6-0.3,2.8-0.4,4.2-0.4 c1.4-0.1,2.6,0,3.9,0.1c2.5,0.2,4.8,0.4,7.1,0.6c2.3,0.2,4.6,0.3,7,0l0,0c0.4,0,0.7,0.2,0.8,0.6c0,0.2-0.1,0.4-0.2,0.6 c-1.9,1.9-4.4,3.1-6.9,4c-2.4,0.9-4.9,1.5-7.3,2.1c-1.2,0.3-2.3,0.5-3.3,0.8c-1,0.3-2.1,0.6-2.9,0.9c-0.8,0.4-1.1,0.5-1.7,1.1 c-0.6,0.5-1.5,1.3-2.4,2.1l1.9-3.3c-0.4,3.4-0.9,6.8-1.6,10.1c-0.7,3.3-1.6,6.6-2.6,9.9c-1,3.2-2.2,6.4-3.5,9.5 c-1.3,3.1-2.8,6.1-4.5,9.1c-1,1.7-3.1,2.2-4.8,1.2C600,333.1,599.3,331.7,599.6,330.3L599.6,330.3z"/></g><g id="change2_8"><path fill="#0476fc" d="M636.3,287.5l-1.9-0.7c0.5-1.5,1.1-2.5,1.6-3.3c0.9-1.4,1.3-2.1,0.9-5.1c-0.9-6-1.6-13,0.8-18.4 c1-2.3,1.4-4.4,1.1-6.2l2-0.3c0.3,2.3-0.1,4.7-1.3,7.4c-2.2,5-1.6,11.6-0.7,17.3c0.6,3.6-0.1,4.8-1.1,6.5 C637.3,285.4,636.8,286.2,636.3,287.5z"/></g><g id="change2_53"><path fill="#0476fc" d="M659.5,275.7c-1.9,0-3.8,0.5-5.6,1.4c-1.8,0.8-3.5,1.9-5.1,3.2c-1.6,1.2-3,2.8-4.9,3.9 c-1.8,1.2-3.9,1.8-5.8,2.6l0-1.3c2.5,1,4.6,2.7,6.6,4.3c2,1.6,3.9,3.3,6.2,4.3c1.1,0.5,2.2,0.9,3.3,0.8c1.1-0.1,2.1-0.5,3-1.3 c1.7-1.5,2.6-3.9,2.9-6.2l2.1,0.2c-0.4,2.7-1.6,5.5-3.8,7.3c-1.1,0.9-2.6,1.5-4,1.5c-1.5,0.1-2.9-0.5-4.1-1.1 c-2.4-1.2-4.4-2.9-6.4-4.6c-2-1.6-3.9-3.2-6.2-4.2l-1.5-0.7l1.6-0.6c1.9-0.8,3.9-1.4,5.5-2.5c1.7-1,3-2.6,4.7-3.9 c1.6-1.3,3.4-2.6,5.3-3.5c1.9-1,4-1.7,6.2-1.9L659.5,275.7z"/></g><g id="change2_51"><path fill="#0476fc" d="M660.9,302.1c-1.4-2.5-2.6-3.9-5.3-4.6l0.5-2c3.4,0.9,5,2.8,6.6,5.6L660.9,302.1z"/></g><g id="change2_30"><path fill="#0476fc" d="M668.1,348c-0.7-2.9-1.4-5-2.2-7.2c-0.7-2.1-1.5-4.2-2.3-7.2c-0.6-2.3-1.3-5.3-2-8.4 c-1.3-5.5-2.7-11.6-4-15.6c-1.3-4.2-3-6.5-4.8-9.3c-0.9-1.3-1.9-2.7-2.8-4.4l1.8-1c1,1.6,1.9,3,2.8,4.3c1.9,2.8,3.7,5.4,5.1,9.8 c1.3,4.1,2.8,10.3,4,15.8c0.7,3.1,1.4,6.1,2,8.4c0.8,2.9,1.5,5,2.2,7c0.8,2.2,1.5,4.4,2.3,7.4L668.1,348z"/></g></g><g><g id="change3_87"><path fill="#cd4f42" d="M575.4,327.3c2.1-11.2-6.5-16.4,6.5-23.7c13.1-7.3,26.9-5.9,39,5.3c12.1,11.2,14.1,18.9,10.1,38 s-17.5,13.4-30.6,6.3C587.3,346.1,582.3,339.7,575.4,327.3z"/></g></g></g></g></svg>