<?xml version="1.0" encoding="UTF-8" standalone="no"?><svg xmlns="http://www.w3.org/2000/svg" xmlns:xlink="http://www.w3.org/1999/xlink" contentScriptType="text/ecmascript" fill="#000000" width="550" zoomAndPan="magnify" contentStyleType="text/css" viewBox="35.0 35.0 480.0 480.0" height="550" preserveAspectRatio="xMidYMid meet" version="1"><g><g><g><g id="change1_5"><path d="M388.4,354.6H298c-2,0-3.6-1.6-3.6-3.6v-23.8l-22.6,0.5c0,0-0.1,0-0.1,0l-0.4,0c-10.6-0.1-19.1-8.5-19.4-19.1l-0.8-25.1 c-6.3,0.3-11-1.1-13.9-4.2c-3.9-4.3-2.8-9.7-2.7-10.3c0.1-0.3,0.2-0.6,0.3-0.9l8.5-16c5.4-10.1,8.7-20.7,9.9-31.5 c2.7-25.4,14.5-45.2,35.1-58.9c29.5-19.7,68.1-20,98.3-0.7c28.4,18.1,35.6,45.8,36.6,65.9c0.9,16.6-3.4,33.1-12.4,48 c-3.6,5.9-7.2,12.6-10.8,19.9c-5.3,10.7-8.1,22.6-8.1,34.4V351C392,353,390.4,354.6,388.4,354.6z M301.6,347.4h83.2v-18.3 c0-12.9,3-25.9,8.8-37.6c3.7-7.5,7.4-14.3,11.1-20.4c8.2-13.6,12.2-28.7,11.4-43.8c-1-18.4-7.5-43.7-33.3-60.2 c-27.8-17.8-63.3-17.5-90.5,0.6c-18.7,12.5-29.4,30.5-31.9,53.7c-1.3,11.7-4.9,23.2-10.7,34.2l-8.3,15.5c-0.1,0.7,0,2.3,1,3.5 c1.7,1.8,5.8,2.4,11.5,1.5c1-0.1,2,0.1,2.8,0.8c0.8,0.7,1.3,1.6,1.3,2.6l0.9,29c0.2,6.7,5.6,12.1,12.3,12.1l0.3,0L298,320 c1,0,1.9,0.3,2.6,1c0.7,0.7,1.1,1.6,1.1,2.6L301.6,347.4L301.6,347.4z"/></g><g id="change1_9"><path d="M419.8,381H256.5c-2,0-3.6-1.6-3.6-3.6V351c0-2,1.6-3.6,3.6-3.6h163.3c2,0,3.6,1.6,3.6,3.6v26.3 C423.4,379.4,421.8,381,419.8,381z M260.1,373.8h156.1v-19.1H260.1V373.8z"/></g></g><g><g id="change1_7"><path d="M197.9,355.1c-0.9,0-1.8-0.3-2.5-1c-1.4-1.4-1.4-3.7-0.1-5.1l46.3-47.3c1.4-1.4,3.7-1.4,5.1-0.1 c1.4,1.4,1.4,3.7,0.1,5.1L200.5,354C199.8,354.7,198.8,355.1,197.9,355.1z"/></g><g id="change1_8"><path d="M190.9,327.9c-1.2,0-2.4-0.6-3.1-1.8c-1-1.7-0.4-3.9,1.3-4.9l43.4-25.7c1.7-1,3.9-0.5,4.9,1.3c1,1.7,0.4,3.9-1.3,4.9 l-43.4,25.7C192.1,327.7,191.5,327.9,190.9,327.9z"/></g><g id="change1_3"><path d="M174.9,301c-1.8,0-3.3-1.3-3.6-3.1c-0.3-2,1.1-3.8,3-4.1l59.9-9.1c2-0.3,3.8,1.1,4.1,3c0.3,2-1.1,3.8-3,4.1l-59.9,9.1 C175.3,301,175.1,301,174.9,301z"/></g></g><g><g id="change1_1"><path d="M190.1,243.9c-4.9,0-8.9-4-8.9-8.9c0-4.9,4-8.9,8.9-8.9s8.9,4,8.9,8.9C198.9,240,195,243.9,190.1,243.9z M190.1,233.4 c-0.9,0-1.7,0.8-1.7,1.7s0.8,1.7,1.7,1.7c0.9,0,1.7-0.8,1.7-1.7S191,233.4,190.1,233.4z"/></g><g id="change1_11"><path d="M170.5,226.1c-4.9,0-8.9-4-8.9-8.9c0-4.9,4-8.9,8.9-8.9s8.9,4,8.9,8.9C179.4,222.1,175.4,226.1,170.5,226.1z M170.5,215.5c-0.9,0-1.7,0.8-1.7,1.7c0,0.9,0.8,1.7,1.7,1.7s1.7-0.8,1.7-1.7C172.2,216.3,171.4,215.5,170.5,215.5z"/></g><g id="change1_4"><path d="M190.1,218.5c-4.9,0-8.9-4-8.9-8.9c0-4.9,4-8.9,8.9-8.9s8.9,4,8.9,8.9C198.9,214.6,195,218.5,190.1,218.5z M190.1,208 c-0.9,0-1.7,0.8-1.7,1.7c0,0.9,0.8,1.7,1.7,1.7c0.9,0,1.7-0.8,1.7-1.7C191.7,208.7,191,208,190.1,208z"/></g><g id="change1_12"><path d="M183.3,278.6c-0.4,0-0.8,0-1.2-0.1c-5.1-0.5-9.2-4.6-9.9-9.7c-0.1-1.2-0.1-2.4,0.1-3.5c0.7-3.9,1.2-7.4,1.5-10.6 c0.1-1.5-0.8-2.9-2.2-3.4l-0.1,0c-1.4-0.5-2.9-0.2-3.8,0.9c-2.1,2.5-4.2,5.3-6.7,8.7c-0.4,0.5-0.8,1-1.2,1.4 c-2.2,2.2-5.3,3.4-8.4,3.3c-3.1-0.1-6.1-1.6-8.1-4c-3.3-3.9-3.5-9.5-0.5-13.7c0.8-1.1,1.7-2,2.8-2.7c2.8-1.9,5.2-3.7,7.4-5.4 c1.4-1.1,1.8-3,1.1-4.6l-0.1-0.1c-0.7-1.5-2.3-2.4-3.9-2.2c-2.8,0.3-5.9,0.7-9.4,1.3c-3.8,0.6-7.6-0.8-10.1-3.6 c-2.1-2.4-3.1-5.5-2.8-8.7c0.6-5.1,4.6-9.2,9.7-9.9c1.2-0.1,2.4-0.1,3.5,0.1c2.6,0.5,4.9,0.9,7.1,1.2c2,0.3,4-0.9,4.6-2.8l0-0.1 c0,0,0,0,0,0c0.7-1.8,0.1-3.8-1.4-5c-1.8-1.4-3.8-2.9-6-4.5c-0.5-0.4-0.9-0.7-1.4-1.2c-2.3-2.3-3.4-5.4-3.3-8.5 c0.2-3.2,1.7-6.1,4.2-8.1c4-3.2,9.8-3.3,13.8-0.1c0.9,0.7,1.7,1.6,2.4,2.6c1.2,1.7,2.3,3.3,3.3,4.7c1.3,1.8,3.7,2.4,5.7,1.5 l0.1,0c0,0,0.1,0,0.1,0c2-0.9,3.1-2.9,2.9-5c-0.2-1.9-0.5-3.9-0.9-6.1c-0.1-0.6-0.1-1.2-0.1-1.8c0-3.2,1.4-6.2,3.7-8.3 c2.4-2.1,5.5-3.1,8.7-2.8c5.1,0.6,9.2,4.6,9.9,9.7c0.1,1.2,0.1,2.4-0.1,3.5c-0.4,2-0.7,3.9-1,5.7c-0.3,2.1,0.9,4.2,2.9,5.1 l0.1,0.1c2,0.9,4.3,0.3,5.6-1.5c1.2-1.5,2.4-3.1,3.7-5c0.4-0.5,0.7-1,1.2-1.4c2.3-2.3,5.4-3.4,8.5-3.3c3.2,0.2,6.1,1.7,8.1,4.2 c3.2,4,3.3,9.8,0.1,13.8c-0.7,0.9-1.6,1.7-2.6,2.4c-2.2,1.5-4.1,2.8-5.8,4.2c-1.5,1.2-2.1,3.2-1.4,5l0,0.1 c0.7,1.9,2.6,3.1,4.6,2.8c2.3-0.3,4.7-0.6,7.5-1.1c0.6-0.1,1.2-0.1,1.8-0.1c3.2,0,6.2,1.4,8.3,3.7c2.1,2.4,3.1,5.5,2.8,8.7 c-0.6,5.1-4.6,9.2-9.7,9.9c-1.2,0.1-2.4,0.1-3.5-0.1c-3.3-0.6-6.3-1.1-9.1-1.4c-1.6-0.2-3.2,0.7-3.9,2.2c0,0,0,0.1,0,0.1 c-0.8,1.7-0.3,3.6,1,4.7c2.2,1.8,4.7,3.7,7.6,5.8c0.5,0.3,1,0.7,1.4,1.2c2.2,2.2,3.4,5.3,3.3,8.5c-0.2,3.2-1.7,6.1-4.2,8.1 c-4,3.2-9.8,3.3-13.8,0.1c-0.9-0.7-1.8-1.6-2.4-2.6c-2.2-3.3-4.3-6.1-6.4-8.6c-0.9-1.1-2.4-1.4-3.7-0.9l-0.3,0.1 c-1.4,0.6-2.3,1.9-2.2,3.3c0.3,3.3,0.8,6.8,1.4,11c0.1,0.6,0.1,1.2,0.1,1.8c0,3.2-1.4,6.2-3.7,8.3 C188.7,277.6,186.1,278.6,183.3,278.6z M170.2,243.8c1.3,0,2.6,0.2,3.9,0.7l0.1,0c4.4,1.7,7.2,6.1,6.8,10.8 c-0.3,3.4-0.8,7.1-1.6,11.3c-0.1,0.4-0.1,0.9,0,1.3c0.2,1.8,1.7,3.2,3.5,3.4c1.2,0.1,2.3-0.2,3.1-1c0.9-0.8,1.3-1.8,1.3-3 c0-0.2,0-0.4-0.1-0.7c-0.7-4.4-1.2-8-1.5-11.5c-0.4-4.6,2.3-9,6.7-10.7l0.2-0.1c4.2-1.7,9-0.5,11.9,2.9c2.2,2.7,4.5,5.7,6.9,9.2 c0.2,0.3,0.5,0.7,0.9,0.9c1.4,1.1,3.5,1.1,4.9,0c0.9-0.7,1.4-1.8,1.5-2.9c0.1-1.1-0.4-2.2-1.2-3c-0.2-0.2-0.3-0.3-0.5-0.4 c-3-2.2-5.6-4.1-7.9-6c-4-3.2-5.2-8.7-3-13.3l3.3,1.4l-3.3-1.5c2-4.3,6.5-6.8,11.2-6.3c3,0.3,6.1,0.8,9.7,1.5 c0.4,0.1,0.8,0.1,1.3,0c1.8-0.2,3.2-1.7,3.4-3.5c0.1-1.2-0.2-2.3-1-3.1c-0.8-0.9-1.8-1.3-3-1.3c-0.2,0-0.4,0-0.7,0.1 c-2.9,0.5-5.4,0.8-7.8,1.1c-5.4,0.6-10.4-2.5-12.3-7.5l0-0.1c-1.7-4.8-0.2-10.1,3.8-13.2c1.9-1.5,3.9-2.9,6.2-4.5 c0.3-0.2,0.7-0.5,0.9-0.9c1.1-1.4,1.1-3.5,0-4.9c-0.7-0.9-1.8-1.4-2.9-1.5c-1.2-0.1-2.2,0.4-3,1.2c-0.1,0.1-0.3,0.3-0.4,0.5 c-1.4,1.9-2.6,3.6-3.8,5.2c-3.4,4.4-9.2,5.9-14.2,3.7l-0.1,0c-5-2.2-7.9-7.4-7.1-12.7c0.3-1.9,0.6-3.9,1-6 c0.1-0.4,0.1-0.8,0-1.3c-0.2-1.8-1.7-3.2-3.5-3.4c-1.2-0.1-2.3,0.2-3.1,1c-0.9,0.8-1.3,1.8-1.3,3c0,0.2,0,0.4,0.1,0.6 c0.4,2.3,0.7,4.4,0.9,6.4c0.7,5.2-2.3,10.4-7.1,12.5l0,0c-5.1,2.3-11,0.7-14.4-3.8c-1.2-1.5-2.3-3.2-3.5-5 c-0.2-0.3-0.5-0.7-0.9-0.9c-1.4-1.1-3.5-1.1-4.9,0c-0.9,0.7-1.4,1.8-1.5,2.9c-0.1,1.1,0.4,2.2,1.2,3c0.2,0.2,0.3,0.3,0.5,0.4 c2.3,1.7,4.4,3.2,6.3,4.7c4,3.1,5.5,8.4,3.8,13.1c0,0,0,0,0,0c-1.8,5.1-7,8.3-12.4,7.6c-2.4-0.3-4.9-0.7-7.6-1.2 c-0.4-0.1-0.8-0.1-1.3,0c-1.8,0.2-3.2,1.7-3.4,3.5c-0.1,1.2,0.2,2.3,1,3.1c0.9,1,2.2,1.5,3.6,1.3c3.7-0.6,6.9-1,9.9-1.3 c4.6-0.5,9.1,2.1,11.1,6.3l0,0.1c2.2,4.6,1,10.1-3,13.3c-2.3,1.9-4.9,3.8-7.9,5.8c-0.4,0.3-0.7,0.6-1,1c-1,1.4-1,3.5,0.2,4.8 c0.7,0.9,1.8,1.4,2.9,1.4c1.1,0,2.2-0.4,3-1.2c0.2-0.2,0.3-0.3,0.4-0.5c2.5-3.5,4.8-6.5,7-9.1 C164.2,245.1,167.2,243.8,170.2,243.8z"/></g></g><g id="change1_6"><path d="M147.7,307.8c-8.2,0-15-6.7-15-15c0-8.2,6.7-15,15-15c8.2,0,15,6.7,15,15C162.6,301.1,155.9,307.8,147.7,307.8z M147.7,285.1c-4.3,0-7.8,3.5-7.8,7.8s3.5,7.8,7.8,7.8c4.3,0,7.8-3.5,7.8-7.8S151.9,285.1,147.7,285.1z"/></g><g id="change1_10"><path d="M183.3,398.1c-8.2,0-15-6.7-15-15c0-8.2,6.7-15,15-15c8.2,0,15,6.7,15,15C198.3,391.4,191.6,398.1,183.3,398.1z M183.3,375.4c-4.3,0-7.8,3.5-7.8,7.8s3.5,7.8,7.8,7.8c4.3,0,7.8-3.5,7.8-7.8S187.6,375.4,183.3,375.4z"/></g><g id="change1_13"><path d="M136.3,382.2c-8.2,0-15-6.7-15-15c0-8.2,6.7-15,15-15s15,6.7,15,15C151.3,375.5,144.6,382.2,136.3,382.2z M136.3,359.5 c-4.3,0-7.8,3.5-7.8,7.8s3.5,7.8,7.8,7.8c4.3,0,7.8-3.5,7.8-7.8S140.6,359.5,136.3,359.5z"/></g></g></g><g id="change1_2"><path d="M275,515c-32.4,0-63.8-6.3-93.4-18.9c-28.6-12.1-54.2-29.4-76.3-51.4c-22-22-39.3-47.7-51.4-76.3 C41.3,338.8,35,307.4,35,275c0-32.4,6.3-63.8,18.9-93.4c12.1-28.6,29.4-54.2,51.4-76.3c22-22,47.7-39.3,76.3-51.4 C211.2,41.3,242.6,35,275,35c32.4,0,63.8,6.3,93.4,18.9c28.6,12.1,54.2,29.4,76.3,51.4c22,22,39.3,47.7,51.4,76.3 c12.5,29.6,18.9,61,18.9,93.4c0,32.4-6.3,63.8-18.9,93.4c-12.1,28.6-29.4,54.2-51.4,76.3c-22,22-47.7,39.3-76.3,51.4 C338.8,508.7,307.4,515,275,515z M275,42.1C146.6,42.1,42.1,146.6,42.1,275c0,128.4,104.5,232.9,232.9,232.9 c128.4,0,232.9-104.5,232.9-232.9C507.9,146.6,403.4,42.1,275,42.1z"/></g></svg>