<?xml version="1.0" encoding="UTF-8" standalone="no"?><svg xmlns="http://www.w3.org/2000/svg" xmlns:xlink="http://www.w3.org/1999/xlink" contentScriptType="text/ecmascript" fill="#000000" width="250" zoomAndPan="magnify" contentStyleType="text/css" viewBox="125.0 0.0 250.0 500.0" height="500" preserveAspectRatio="xMidYMid meet" version="1"><g id="change1_1"><path d="M12,0c-0.414,0-0.75,0.336-0.75,0.75v18.957l-4.128-2.358c-0.326-0.187-0.74-0.103-0.968,0.196C6.051,17.68,6,17.84,6,18 c0,0.192,0.074,0.385,0.219,0.53l5.25,5.25c0.293,0.293,0.768,0.293,1.061,0l5.25-5.25c0.267-0.266,0.294-0.687,0.066-0.986 c-0.228-0.299-0.642-0.383-0.968-0.196l-4.128,2.359V0.75C12.75,0.336,12.414,0,12,0z" transform="translate(0, 0) scale(20.833333333333332 20.833333333333332)"/></g></svg>