<svg viewBox="0 0 96 96" xmlns="http://www.w3.org/2000/svg" xmlns:xlink="http://www.w3.org/1999/xlink" id="Icons_Germ" overflow="hidden"><style>
.MsftOfcResponsive_Fill_156082 {
 fill:#156082; 
}
</style>
<path d="M81.9318 35.3341C83.7145 34.8905 85.5641 34.7814 87.3866 35.0122 89.0276 35.2417 90.544 34.0975 90.7735 32.4565 91.0026 30.8189 89.8634 29.3046 88.2265 29.0708 86.0125 28.7795 83.766 28.8498 81.5746 29.2787 81.0636 26.8194 80.068 24.4865 78.646 22.416 79.8922 21.2897 81.3651 20.4432 82.9657 19.9336 84.5492 19.4465 85.4381 17.7681 84.9511 16.1846 84.464 14.601 82.7855 13.7122 81.202 14.1992 78.7197 14.9826 76.4395 16.3012 74.5223 18.0619 72.1255 16.1971 69.3154 14.936 66.329 14.385 66.7872 12.7485 67.5685 11.2203 68.6269 9.89062 69.6732 8.60591 69.4799 6.71624 68.1952 5.66992 66.9105 4.62359 65.0208 4.81684 63.9745 6.10155 62.082 8.48065 60.7832 11.2762 60.1855 14.2568 57.7635 14.586 55.4282 15.381 53.3085 16.598 52.3033 15.4174 51.6445 13.9816 51.4051 12.4497 51.1638 10.8106 49.6394 9.67758 48.0004 9.91893 46.3613 10.1603 45.2283 11.6846 45.4696 13.3237 45.8682 15.9138 46.9688 18.3451 48.652 20.3537 46.2994 22.9191 44.6977 26.0822 44.0221 29.4968 42.5309 28.9508 41.2453 27.9566 40.3417 26.6508 39.443 25.2589 37.5861 24.8591 36.1942 25.7578 34.8023 26.6564 34.4025 28.5133 35.3011 29.9052 35.3029 29.908 35.3047 29.9108 35.3065 29.9135 37.2207 32.7078 40.0726 34.7238 43.3453 35.5964 42.5981 38.4341 40.5658 40.7584 37.8531 41.8776 34.1735 41.6188 30.8417 39.6091 28.8964 36.475 28.0565 35.0467 26.2178 34.5697 24.7895 35.4096 23.3648 36.2473 22.8859 38.0796 23.7186 39.5073 24.688 41.1666 25.9447 42.6403 27.4301 43.8596 25.2671 44.6934 23.2746 45.9154 21.5509 47.4654 19.1741 47.7385 16.7828 47.0922 14.8671 45.6591 13.5915 44.6015 11.7001 44.7781 10.6424 46.0537 9.5848 47.3293 9.76146 49.2207 11.037 50.2783 12.8133 51.7326 14.9225 52.7236 17.1757 53.1627 16.0924 55.3172 15.4294 57.6584 15.2223 60.061 13.3708 61.2184 11.2458 61.8647 9.06339 61.934 7.4067 61.9069 6.04173 63.228 6.01466 64.8847 5.98771 66.5331 7.29602 67.8945 8.94425 67.933 9.03408 67.9345 9.12197 67.9354 9.21084 67.9354 11.4666 67.8966 13.6919 67.4075 15.7561 66.4968 16.3732 68.9203 17.4646 71.1973 18.9671 73.1964 17.7801 74.4754 16.4095 75.5708 14.9003 76.4467 13.4578 77.2622 12.9496 79.0926 13.765 80.535 14.5805 81.9775 16.411 82.4858 17.8534 81.6703 19.8568 80.5144 21.6793 79.0703 23.2626 77.3842 25.3144 78.8405 27.6361 79.8731 30.0917 80.4215 30.1334 80.6856 30.2106 80.9429 30.3212 81.1864 30.8796 82.6951 30.8535 84.3581 30.2479 85.8485 29.6093 87.3772 30.3309 89.1342 31.8596 89.7728 33.3882 90.4114 35.1452 89.6899 35.7838 88.1612 35.7855 88.1571 35.7872 88.1529 35.7889 88.1488 36.7473 85.8388 36.9786 83.2914 36.4519 80.8466 38.9305 80.7357 41.3966 80.4315 43.8278 79.9368 44 80.1285 44.1964 80.2972 44.412 80.4384 46.2295 81.6421 47.7203 83.2776 48.7509 85.1986 49.4353 86.7074 51.2132 87.3757 52.722 86.6913 54.2307 86.0069 54.899 84.229 54.2147 82.7202 54.2124 82.7153 54.2102 82.7104 54.2079 82.7054 53.3645 80.9323 52.2116 79.3238 50.8034 77.9554 53.6371 76.8996 56.3635 75.5756 58.9454 74.0013 59.1392 74.125 59.3465 74.2259 59.5634 74.3021 61.4706 75.0433 63.1863 76.2047 64.5829 77.7001 65.6821 78.94 67.5784 79.0541 68.8184 77.9549 70.0575 76.8564 70.1724 74.9617 69.0751 73.7216 67.7628 72.2662 66.2279 71.0285 64.5275 70.0545 65.7338 69.0631 66.9004 68.0236 68.0028 66.9203 68.5946 66.3295 69.1825 65.7103 69.7518 65.078 70.0897 64.7023 70.4007 64.3053 70.7263 63.9196 70.9786 64.0266 71.2445 64.0982 71.5165 64.1322 73.4527 64.458 75.2774 65.2606 76.826 66.4677 78.12 67.5023 80.0076 67.292 81.0422 65.9981 82.0768 64.7041 81.8666 62.8165 80.5726 61.7819 80.5699 61.7797 80.5671 61.7775 80.5643 61.7753 78.7816 60.3719 76.7465 59.3231 74.5691 58.6857 75.4101 57.3605 76.2081 56.0082 76.9149 54.6059 77.5328 53.3788 78.0758 52.1189 78.5841 50.8456 78.9633 50.9521 79.3598 50.9828 79.7508 50.9359 81.3245 50.8414 82.8986 51.1144 84.3485 51.7333 85.8781 52.3703 87.6344 51.6466 88.2713 50.1171 88.9083 48.5875 88.1847 46.8312 86.6551 46.1942 84.7074 45.3798 82.6222 44.9442 80.5113 44.9107 80.6879 44.2139 80.87 43.5184 81.0145 42.8139 81.517 40.3487 81.8237 37.8476 81.9318 35.3341ZM75.1376 41.6084C74.4028 45.1838 73.1987 48.6464 71.5565 51.9063 69.8839 55.2233 67.7772 58.3029 65.2919 61.064 64.7958 61.6148 64.2854 62.1526 63.7606 62.6773 61.555 64.8839 59.1102 66.8377 56.4716 68.5025 49.8371 72.692 42.1491 74.9108 34.3026 74.9004 27.0335 74.9068 21.1356 69.0191 21.1292 61.75 21.1229 54.4809 27.0105 48.583 34.2796 48.5767 34.2873 48.5767 34.2949 48.5767 34.3026 48.5767 42.7818 48.5686 49.6534 41.6965 49.661 33.2173 49.661 25.9481 55.5539 20.0552 62.8231 20.0552 70.0923 20.0552 75.9852 25.9481 75.9852 33.2173 75.9857 36.0357 75.7017 38.847 75.1376 41.6084Z" class="MsftOfcResponsive_Fill_156082" fill="#156082"/><path d="M64.1669 31.8882C64.1669 30.1005 62.7177 28.6514 60.9301 28.6514 59.1424 28.6514 57.6933 30.1005 57.6933 31.8882 57.6933 33.6756 59.1421 35.1247 60.9296 35.125 62.7165 35.1231 64.1647 33.6751 64.1669 31.8882Z" class="MsftOfcResponsive_Fill_156082" fill="#156082"/><path d="M65.8768 39.7822C64.0893 39.7821 62.6402 41.2311 62.64 43.0186 62.6399 44.8061 64.0889 46.2552 65.8764 46.2554 67.6639 46.2555 69.113 44.8065 69.1132 43.019 69.1132 43.0189 69.1132 43.0187 69.1132 43.0186 69.1111 41.232 67.6634 39.7843 65.8768 39.7822Z" class="MsftOfcResponsive_Fill_156082" fill="#156082"/><path d="M54.746 43.4922C52.9584 43.4925 51.5094 44.9418 51.5097 46.7295 51.5099 48.5171 52.9593 49.9661 54.747 49.9658 56.5344 49.9656 57.9833 48.5165 57.9833 46.729 57.9813 44.942 56.533 43.494 54.746 43.4922Z" class="MsftOfcResponsive_Fill_156082" fill="#156082"/><circle cx="53.5097" cy="59.0962" r="3.23657" class="MsftOfcResponsive_Fill_156082" fill="#156082"/><circle cx="41.1425" cy="56.6226" r="3.23657" class="MsftOfcResponsive_Fill_156082" fill="#156082"/><path d="M33.7226 62.043C31.9349 62.0427 30.4855 63.4917 30.4852 65.2793 30.485 67.067 31.9339 68.5164 33.7216 68.5166 35.5092 68.5169 36.9586 67.068 36.9589 65.2803 36.9589 65.2802 36.9589 65.28 36.9589 65.2798 36.9567 63.4933 35.5091 62.0454 33.7226 62.043Z" class="MsftOfcResponsive_Fill_156082" fill="#156082"/></svg>