<svg viewBox="0 0 96 96" xmlns="http://www.w3.org/2000/svg" xmlns:xlink="http://www.w3.org/1999/xlink" id="Icons_Kidney" overflow="hidden"><style>
.MsftOfcThm_Accent1_Fill_v2 {
 fill:#4472C4; 
}
.MsftOfcThm_Accent1_Stroke_v2 {
 stroke:#4472C4; 
}
</style>
<path d="M75.07 17.67C70.2961 14.9674 64.239 16.538 61.38 21.22 55.69 29.93 62.22 36.44 63.71 42L56 42C52.6863 42 50 44.6863 50 48L50 81 54 81 54 48C54 46.8954 54.8954 46 56 46L63.71 46C62.22 51.56 55.71 58.07 61.38 66.78 64.239 71.462 70.2961 73.0326 75.07 70.33 83 65.64 88 55.55 88 44 88 32.45 83 22.36 75.07 17.67Z" class="MsftOfcThm_Accent1_Fill_v2 MsftOfcThm_Accent1_Stroke_v2" stroke="#4472C4" fill="#4472C4"/><path d="M40 42 32.29 42C33.78 36.44 40.29 29.93 34.62 21.22 31.761 16.538 25.7039 14.9674 20.93 17.67 13 22.36 8 32.45 8 44 8 55.55 13 65.64 20.93 70.33 25.7039 73.0326 31.761 71.462 34.62 66.78 40.31 58.07 33.78 51.56 32.29 46L40 46C41.1046 46 42 46.8954 42 48L42 81 46 81 46 48C46 44.6863 43.3137 42 40 42Z" class="MsftOfcThm_Accent1_Fill_v2 MsftOfcThm_Accent1_Stroke_v2" stroke="#4472C4" fill="#4472C4"/></svg>